<svg version="1.0" xmlns="http://www.w3.org/2000/svg" width="200" height="320" viewBox="0 0 1007 1280"><path d="M576 1.5c-1.5 1.8-1.1 5.6 2 20 1.9 8.7 2.1 12.2 1.7 27-.4 13-1 18.9-2.6 25-4.9 18.3-13.9 28.4-18.7 21-1.8-2.7-5.1-3.3-7.6-1.3-.9.7-3.7 4.6-6.3 8.7-8.9 14.1-20.8 22.5-35.2 25.1-10.1 1.8-13.9.5-20.4-7-5.4-6.3-7.7-7.2-12.2-4.9-7 3.6-10 9.5-13.7 26.9-2.7 12.6-4.4 16.3-11.7 24.2-7.3 8-9.8 14.1-12.9 31.5-3 17.4-5.4 25.6-10.2 34.7-4.6 8.7-9.3 13.6-13.1 13.6-1.6 0-3.4-.6-4-1.3-2.5-3.1-4.3-11-5.2-24.2-.6-7.7-1.6-15.1-2.3-16.5-.7-1.6-2.8-3-6.1-4.2-8.4-2.9-13.3-10.4-15-22.8-1.6-10.9 4.1-32.3 14.7-55.8 5-11 5.9-13.9 5.5-16.9-.7-3.8.2-6.1 3.9-10.6 3.2-3.8 3.1-7.2-.2-9.3-2.3-1.6-2.8-1.6-5.9-.1-4.8 2.3-6.9 7.2-9.4 21.1-3.8 21-10.9 35.2-21.7 43.4-4.1 3.2-6.2 5.7-7.7 9.3-1.7 4.1-2.5 4.9-4.7 4.9-2.9 0-9.8 3.5-11.7 5.9-5.5 6.9-14.8 32.7-17.4 48.5l-1.3 7.8-6.8 4.5c-4.7 3.1-7 5.3-7.5 7.1-.3 1.5.1 6.7.9 11.6 2.1 12.2 1.8 38.3-.6 49.1-2.4 11.3-8.9 24.1-14.3 28.2-7.9 5.9-21 6.5-28.4 1.2-3.6-2.6-8.4-10.5-8.1-13.6.1-1.4-.4-2.3-1.2-2.3-.8 0-2.4-1.6-3.6-3.5-4.2-6.8-11.5-10.7-13.6-7.4-1 1.7-.7 6.8.7 10.1 1 2.3.9 4.2-.5 10.2-3 12.4-1 14.9 20.4 25.7 13.5 6.9 22.3 14.1 23.6 19.3.8 3.5-.5 6-3.5 6.4-1.6.3-2.1 1-2.1 3.3 0 2.2-.7 3.2-2.5 4.1-1.8.8-2.2 1.4-1.5 2.3.7.9.7 2.1-.1 3.9-.9 2-1 3.8-.1 7.4 1.2 5.4.5 6.7-6.1 10.9-5.8 3.7-3.7 3.9 2.7.3 3.1-1.7 6-2.9 6.5-2.6 1.7 1.1 2 6.7.6 10.4-2.8 7.3-6.6 27.3-7.2 38.2-.4 6.9-1 11-1.7 11-2.6 0-23 9.1-30.5 13.6-18.1 10.7-28.7 25.9-24.1 34.5.9 1.6.7 1.9-1.4 1.9-5.8 0-11.5 8.6-10.2 15.4 1.2 6.4 6.7 8.3 16.2 5.7 9.6-2.6 12.2-9.8 6.2-16.8-1.8-2.1-2.5-3.2-1.6-2.5 3.9 3.1 7.4-1.2 4.7-5.7-1.5-2.3 1.4-12.1 4.6-16 1.2-1.4 2.5-3.6 2.9-4.8 1-3 10.3-11.4 16.8-15 5-2.8 15.9-7.3 17.7-7.3.5 0 1.1 2.4 1.5 5.4.5 4.5 4 19.4 7.2 30.2.4 1.7 0 2.3-2.3 3.1-6.4 2.3-12.1 9.3-13.7 17-1.1 4.7 2.2 11.4 7 14.4 3.4 2.1 5.1 2.4 12.6 2.3 5.4 0 9.2-.5 10.2-1.3 1.2-1 1.7-.8 3.1 1.8 1.3 2.7 1.4 3.2.1 3.7-3.2 1.2-9.6 8.1-9 9.7.3.9-.1 2.9-.9 4.5-1.2 2.4-1.2 3.2-.1 4.7 1.2 1.6 1.1 2.1-.3 3.7-1.3 1.4-1.3 1.8-.2 1.8 1.5 0 4.5 3.9 4.1 5.4-.2.5.3 1.3 1 1.8 1 .7.9 1.1-.4 1.9-2.6 1.5-2.2 2.9.7 2.9 1.4 0 2.5.5 2.5 1 0 .7.6.7 1.9.1 2.1-1.2 9.1-.3 9.1 1.2 0 .5.7.4 1.5-.3s2.4-1 3.5-.7c1.1.3 3.6 0 5.6-.6 3.2-1 3.8-.9 5.1.8 1.3 1.9 1.4 1.8.8-.8-.4-1.5-.5-2.7-.2-2.7s3.1 3.2 6.1 7.1c5.5 6.9 6.9 11.1 4.4 12.3-.9.4-.9.8-.2 1.1.7.4.6 2.4-.4 6.6-1.9 7.7-.8 11.6 5.3 18.8 2.5 2.9 4.5 5 4.5 4.7 0-.4 1.1.1 2.5 1 1.7 1.1 2.5 2.5 2.5 4.5 0 2.2.6 3 3.4 4 3.2 1.1 3.4 1.6 4 6.8 1.5 13.4 1.8 17.1 1.2 17.1-2.2 0-22.5-11.8-33.1-19.4-9.2-6.5-11.7-8.5-19.8-16.4-7.7-7.4-10-11.1-9.5-15 .2-2.3 1.1-3 5.3-4.3 2.7-1 5.1-2.2 5.3-2.9 1.8-5.4-12.8-15.1-36-23.8-11.6-4.4-14.6-6-19.6-10.6-5.3-4.9-7.6-10.1-7.5-17.2.1-5.2.5-6.5 2.7-8.7 4.5-4.5 2.8-9.5-3.6-11.1-2-.4-3.4 0-5.7 1.9-3.8 3.3-4.7 6-2.7 9 1.3 2 1.3 2.5.1 3.5-3.9 3.2-1.2 9.2 9.5 21.9l7.9 9.3-2.8 2.4c-5.4 4.6-4 13 2.6 15.5 2 .7 2.2 1.2 1.3 2.8-1.7 3.3-1.1 10.3 1.4 15.7 1.8 3.9 2.1 5.5 1.3 6.4-.9.9-.8 1.1.5.8 1-.2 4 2.5 8.2 7.4 7.2 8.4 22 22 32.1 29.4 6.1 4.5 6.3 4.8 4.2 5.8-2.6 1.3-3.7 7.4-1.5 8.7 2.6 1.7 5.7.9 8.1-2.2l2.4-3 6.7 3.3c5 2.4 6.5 3.6 6 4.8-.4.8-.9 3.4-1.2 5.7l-.4 4.3-5.7-.6c-3.1-.3-11.9-1.5-19.6-2.5-7.7-1-14.3-1.9-14.8-1.9s-.6-.7-.3-1.5c.8-2.3-2.4-3.2-3.9-1.1-1.5 2-4.5 1.1-4.5-1.3 0-2.6-4.2-6.1-7.2-6.1-1.5 0-4 1.1-5.7 2.6-2.8 2.3-3.3 2.4-7.3 1.3-2.4-.6-3.7-1.4-3-1.6 2-.7 1.4-4.1-1-5.7-2.8-2-3.3-2-5.3 0-.9.9-1.3 2.4-1 3.5.4 1.3.2 1.7-.7 1.4-.7-.2-6.2-1.8-12.3-3.5-47.7-13.4-91.7-33.3-131.5-59.4C37.4 568.1 8 521 2.9 457.5c-2.2-28.2 2-61.2 12.6-98C26.6 321 44.2 281.2 77 221c20.8-38.2 22.7-43.2 18.7-49.4-1.4-2.1-2.5-2.6-5.6-2.6-6 0-7.6 2.5-7.7 12.4 0 11.8-2.7 19-23.6 63.5-16 34.1-22.8 49.4-30.3 68.6C-7.7 406-9.2 479.7 24.2 538.2c22.2 38.9 58.7 70.3 113.8 97.9 14.2 7.1 49.3 21.9 51.9 21.9 1.4 0 1.4 1.3 0 2.7-1.6 1.6-.3 6 2.2 7.4 3.9 2 6.6.3 9.4-5.8.1-.2 2.1.4 4.6 1.1 2.4.8 7.6 2.4 11.5 3.5 6.1 1.8 7 2.4 7 4.3-.1 2.8 3.3 3.7 5 1.3 1.2-1.5 2.1-1.5 13.3 1.1 10.3 2.4 12.1 3.1 12.5 5 1.1 4.2 10.5 5.6 13.5 2 .8-1 3-.9 10.8.5 5.4 1 16.3 2.5 24.3 3.4 21.7 2.5 22.3 2.8 15 6.5-2.6 1.3-4.7 3.4-5.7 5.5-.9 1.9-2.1 3.5-2.5 3.5-.5 0-.4-.9.2-1.9 1.4-2.7 1.3-4.1-.4-4.1-1.2 0-3.8 4.8-4 7.5-.1.5 1 1 2.4 1 1.9 0 2.6.6 2.8 2.4.2 1.2 1.9 3.7 3.8 5.4 2 1.7 3.1 3.4 2.6 3.9-1 1-6.9-.8-9.3-2.8-.8-.8-2.2-1.4-3-1.4-.7 0-3.7-1-6.6-2.2-4.8-2-5.1-2.3-4.6-5 .4-2 0-3.5-1.2-4.8-2.3-2.5-4.6-2.5-7.7-.1-2.4 2-2.5 2-5.6.1-1.8-1.1-3.2-2.4-3.2-2.9s-1-1.3-2.1-1.6c-1.2-.4-4.1-2.1-6.4-3.7-2.4-1.7-5.5-3.1-6.8-3.1-1.4 0-2.8-.6-3.1-1.3-1.6-4.2-13.6 1.2-19.7 9l-4.4 5.6-1.4-2.8c-.8-1.5-1.5-3.5-1.6-4.4-.1-1.8-7.5-8.4-11.2-10.1-1.3-.6-2.3-1.3-2.3-1.7 0-.3-3.3-.5-7.2-.5-8.8.2-15.5 3.2-21.1 9.4-4.8 5.3-6.7 9.2-7.4 15.1-.5 4-.1 5.9 2.5 11.3 2 4.3 4 7.1 6 8.3 1.7 1 2.9 2.1 2.7 2.5-.3.4.5.7 1.8.8 1.2 0 4.9.3 8.2.7 5.4.5 6.8.3 12.7-2.4 4.5-2 6.5-2.5 6.1-1.6-.3.9.2 1.4 1.3 1.5 1.1.1.6.4-1.1.8-4.2.9-4.7 5-.9 8 1.5 1.1 3.2 2.1 3.9 2.1 2 0 4.8-3.8 4.1-5.6-.5-1.2.2-2.4 2-3.9 2-1.6 2.5-2.6 2-4.3-.8-2.5-5.3-3.1-7.4-1-1.8 1.8-1.4-.1.7-3 1-1.5 3.1-5.1 4.5-8 2.6-5 2.8-5.3 4.5-3.8 1 .9 3.3 1.6 5.3 1.6 4.6 0 7.3-2.9 6.5-6.8-.5-2.6-.1-3.3 3.9-6.1 2.4-1.8 4.4-3.6 4.4-4.2 0-.5.5-.9 1-.9.6 0 1 1.2 1 2.7 0 1.6.9 4.3 2 6.1 2.5 4.1 2.5 4.2-.5 4.2-3.4 0-8.2 2.5-9.5 4.9-1.4 2.7-1.2 9.2.3 11.2 3.6 4.7 12.6 4.9 17.2.3 1.3-1.3 3-2.1 3.8-1.8 2.4.9 3-1.4.7-2.6-1.1-.6-2-1.7-2-2.5 0-1.7 1.1-1.9 2.5-.6 2.1 1.9 12.4 4.2 21.8 4.8 5.3.3 9.7.9 9.7 1.2 0 .3-1.6 1.7-3.5 3.1-5.4 3.9-6.7 7.5-5.9 17 .7 8.2.6 8.6-3.3 8.1-.7-.1-1.5 1-1.9 2.4-.5 2.1-1.2 2.5-4.2 2.5-4.8 0-11.3 3.3-13.7 7-1.1 1.6-2.6 3-3.3 3-2.2 0-2.7 3.2-.6 4.7 1.4 1 1.6 1.7.8 3s-.2 2.4 3 5.6l4.1 4 8.2-.6c4.5-.2 8.5-.2 8.8.1.3.3-.9 2.1-2.7 3.9-3.3 3.4-3.2 5.6.2 3.5 2.4-1.5 7-1.6 7-.2 0 .5-.9 1-2 1s-2 .5-2 1.1c0 .6.9.8 2.1.4 1.4-.5 2.8 0 4.2 1.2 1.2 1.1 3.6 2.5 5.4 3.2 6.1 2.4 5.8 3.8-.6 3.3-7.2-.5-13.3 1.9-18.8 7.6l-3.7 3.9-2.9-2.1c-2.1-1.5-4.3-2.1-8.4-2.1-4 0-5.8-.5-6.7-1.8-.7-.9-1.8-1.7-2.5-1.7-1.4 0-1.4 2.3.1 3.8.6.6 1 3.2 1 5.8-.2 4 .2 5 3.3 8.1 3.4 3.4 3.8 3.5 8.9 3 5.3-.5 5.3-.5 6.5 2.9.7 1.8 2.8 4.6 4.7 6.2l3.5 2.9-9.3 1.4c-7 1.1-21.9 1.4-59.8 1.4-53 0-54.4.1-63.2 4.6-5.3 2.7-18.4 14.6-26 23.7-6.5 7.6-16.2 21.8-16.4 23.7 0 .5-.8 3.4-1.7 6.4-3.3 10.7-1.4 21.1 3.8 21.1 3.6 0 5.9-3.9 4.5-7.6-.6-1.6-1.6-5.1-2.1-7.8-.8-4.1-.6-5.2.7-6.8 1.2-1.3 1.3-1.8.4-1.8-1.9 0-.5-6.5 2.9-13.5 3.7-7.3 9.6-14.3 21.6-25.4 10.6-9.9 13.9-11.6 19.4-10.1 6.9 1.8 13.5 9 30.4 33.1 5.9 8.4 9.5 11.4 14.5 12.3 2.2.3 4.7 1.2 5.5 2 1.2 1.2 2.3 1.1 8.3-.8 3.8-1.3 8.4-3 10.1-3.9 2.2-1.2 3.4-1.3 3.8-.6.5.7 1.5.4 2.9-.9 1.1-1 5.8-3.4 10.4-5.2 6.3-2.6 8.5-3.1 9.4-2.2 2.8 2.8 9.9-.6 8.5-4.1-.3-.9 2.4-2.8 8.3-5.9l8.7-4.5 1.2 5c1 4.3.9 5.3-.5 6.8-2.6 2.9-1.4 5.4 2.6 5.5 2.5 0 4.6 1.1 7.5 3.6 2.2 2 5.2 4.6 6.8 5.9l2.8 2.4-5.5 4.2c-28.7 22-21.2 65.6 16.3 95.5 13.1 10.5 24.4 14.8 39.2 14.8 13.4 0 25.1-5 33.8-14.6 5.4-5.9 8.4-12.5 10.7-23.8.8-3.8 1.7-7.2 1.9-7.6.2-.4 1.8-.5 3.4-.2 2 .3 3.3-.1 3.6-.9.4-1 2-1.3 5.9-1.1 3 .2 8.9-.3 13.1-1.2 9-1.9 22.7-2.1 27.6-.5 4.9 1.7 7.9 4.8 7.9 8.1 0 3.6 3.9 6.3 8 5.4 1.7-.3 3-.3 3 0 0 1.6-8.9 13.2-13.8 18-7.3 7.1-14.6 11.6-24.7 14.9-6.4 2.2-8.7 2.5-12 1.8-3.4-.7-4-1.2-4.3-3.6-.2-2-1.2-3.1-3-3.9-1.5-.5-3.5-1.4-4.4-1.9-2.5-1.3-2.4-1.3-4.5 2.8-1.4 2.7-1.7 4.6-1.2 6.5.7 2.6.5 2.8-2.9 3.3-2.1.3-6.5 1.2-10 1.9-5.1 1.1-6.2 1.1-6 0 .2-.7 0-1.3-.4-1.3-2.4-.2-2.9.1-2.6 1.5.2 1.3-1.9 2.2-9.2 4.3-29.2 8.3-62.4 24.2-65.8 31.6-1.9 4.2-1.5 7.3 1.4 9.1 2.2 1.5 2.9 1.5 5.4.3 1.6-.8 4.9-4.1 7.4-7.3 12.5-16.1 32.6-26.6 63.1-32.9 6.6-1.4 14.4-2.8 17.3-3.2l5.2-.7v3.1c0 4.2 3.3 7.5 6.7 6.6 4.5-1.1 10-5.3 11.3-8.7 1.9-4.5 5-6.6 5-3.3 0 .8.9 1.5 2.1 1.5 1.6 0 1.9-.4 1.4-2.1-.4-1.3-.3-1.9.2-1.6.6.4 1.9 0 2.9-.8 2.5-1.9 3.4-1.9 3.4.1 0 2.3 2.4 1.1 2.8-1.3.4-2.5 4.5-4.6 6-3.1 1.5 1.5 5.4-.9 4.8-3-.3-1.2 1.1-2.9 4.4-5.5 5.7-4.4 13.6-14.5 18.5-23.8 3.3-6.4 3.7-6.7 9.2-8.4 3.2-1 6.1-2 6.5-2.2 1.5-.8 3.8 7.1 3.8 12.7 0 5.3.3 6.1 3.1 8.4 3.6 3.1 5.3 3.2 11.6.8 3.6-1.4 6.6-1.8 11.9-1.4 5.6.3 8.1 0 11.5-1.5 7-3.1 9.6-3.5 12.8-1.9 8.6 4.5 12.1 10.9 14.1 25.7 1.3 10.3 5.5 19.5 10.8 23.9 10 8.3 44.2 21 56.4 21 12.9 0 28.5-2.9 38.2-7.1 4.9-2.1 9.1-3.7 9.3-3.5.2.2-.4 1.7-1.3 3.3-2.3 3.9-1.2 7.8 2.6 9.8 4 2.1 6.1 1.9 10.1-.8 1.9-1.2 6.2-4 9.6-6 3.5-2.1 7.1-5.3 8.3-7.2 1.2-1.9 2.7-3.5 3.3-3.5.6 0 3.5 2.5 6.4 5.7l5.2 5.6 9.3-.6c12.3-.8 13.3-1.2 16.2-6.1 1.3-2.2 4.5-5.8 7-7.9 5.6-4.6 7.1-7.4 8.6-15.6.6-3.5 2-8.6 3.1-11.3 3.3-8.4 2.7-11.4-3.3-17-2.9-2.6-7-5.4-9.1-6-2.7-.8-4.7-2.4-6.8-5.5l-3-4.3 2.7-1c1.5-.6 4.9-2.7 7.6-4.6 2.6-2 5.3-3.4 6-3.2.7.2 6.3 2.3 12.5 4.7 10 4 11.1 4.6 10.2 6.3-1.2 2.2-.2 2.3 5.1.7 3.4-1.1 4.1-.9 7.1 1.4 4.9 3.6 10.5 5.7 15.6 5.7 3.7 0 5-.5 7.7-3.2 1.8-1.8 3.5-3.8 3.7-4.3.2-.6 3.8-2 7.9-3.3 4.1-1.3 8.3-2.5 9.2-2.9 3-.9 13 10.1 15.7 17.4 4.8 12.8 10 18.3 17.5 18.3 4.6 0 8-1.4 12.4-5 2-1.7 4.6-3 5.8-3 3 0 9.7 5.1 14.5 11.2 19.7 25 30.9 57.8 29.6 86.8-.6 14.1-2.8 21.6-9.7 32.9-5.8 9.5-6.5 14.2-2.7 18.6 5.2 6.1 14.7 3.5 19.5-5.3 2.2-3.9 2.3-5.2 2.3-20.9-.2-44.7-11.9-90.4-35.6-138.8-4.1-8.3-10.8-20.8-14.9-27.9-4.2-7.1-7.5-13-7.4-13.2 1.9-1.7 12.3-6.9 16.8-8.4 7.2-2.4 10-2.5 17-.4 4.3 1.3 6.6 2.9 12.4 8.8 3.9 4 8.7 9.1 10.6 11.5 2.8 3.4 4.2 4.3 6.8 4.3 4 .1 7.2-2.6 7.2-6.2 0-6.3-31.5-43.5-52.8-62.4l-10.1-9 5-5.3c8.6-9.1 10.8-17.4 7.3-27.6-1.9-5.5-8.3-11.7-14.1-13.6-5.8-1.9-21.1-2.5-28.9-1.2-3.8.7-9.7 2.6-13 4.3l-6.2 3.1-19.3-14c-10.7-7.7-33.7-24-51.1-36.1-45.4-31.6-60.7-42.6-60.8-43.6 0-1.8 9.1-11.4 12.4-13 5-2.3 8.7-2 22 1.9s24.2 4.8 25.2 2c1-2.4-1.3-4.2-6.9-5.5-23.9-5.5-47.5-11.9-79.4-21.5-6.1-1.8-11.1-6.2-11.9-10.4-.4-1.7-1-3.1-1.5-3.1-1.2 0-5.1-7.9-4.4-9 .3-.5.1-1.1-.5-1.5-1.3-.8-3.5-6-6.5-15.5-4-12.8-3.9-12-1.1-12 4.1 0 9.3-5.7 10.1-11.3.6-3.8.4-5.2-1-6.7-1.6-1.7-1.6-1.9.4-3 2.9-1.5 2.6-4.1-.6-7.1-1.6-1.4-3.3-3.4-3.9-4.4-1-1.6-1.5-1.8-3-.9-2.1 1.2-3.2 5.4-1.5 5.4.6 0 1.1 1.2 1.1 2.6 0 2-.4 2.4-1.9 1.9-1-.3-3-.1-4.5.4-1.4.6-2.6.7-2.6.3 0-.4-.5-3.6-1-7.1-.8-4.4-.8-6.7 0-7.6.8-.9.7-1.4-.1-1.7-.8-.3-1.5-4.2-2-11.4l-.7-10.9 3.4-3.8c4.7-5.1 4.7-9.4-.1-14.1-2-2-3.5-4.5-3.5-5.8 0-4.2 1.2-6.8 3.1-6.8 1.8 0 3.5-1.7 2.6-2.6-.3-.3-1.5 0-2.8.6l-2.2 1.2.7-10.2c.3-5.7 1.1-10.9 1.7-11.6.6-.7.8-2.6.4-4.3-.8-3.6 2.5-27.2 6.6-47.6 9.1-45 21.2-80.8 37.5-110.8 3.1-5.6 6.2-10.7 6.9-11.3 2.2-1.7 4.8-9.5 4.9-14.9.1-4.3-.2-5.1-2.5-6.4-5.7-3.2-16.9 3.3-22.2 12.8-2.9 5.1-10.3 24.8-11.4 30.1-.3 1.4-2 10.1-3.9 19.5-3 15.3-14.4 83.6-14.4 86.5 0 .9-.7.8-2.3-.3-2.7-1.8-9.9-3.1-12.5-2.3-1.1.4-2.7 2.2-3.7 4.1-1.1 1.8-2.9 3.6-4.2 4-5.3 1.3-5.5 9.3-.4 11.5 3.8 1.5 8.6-.7 9.5-4.5.6-2.2 1-2.5 2.9-1.8 1.2.4 3.7.8 5.4.8 3.8 0 4.1-3.3-1.8 27-5.5 28.1-9.2 42.2-12 45.1-1.7 1.9-2.3 3.7-2.5 8.2-.3 10.3-10.8 32.5-19.5 41.5-2.7 2.8-5.1 5.8-5.4 6.9-.4 1-2 2.5-3.7 3.4-2.7 1.4-3.1 1.4-4.9-.2-1.1-1-1.9-3-1.9-4.8 0-4.5-2.5-7.6-6-7.6-1.9 0-4.4-1.3-7.2-3.8-4.3-3.7-5.2-5.9-3.3-7.5.6-.5-.5-.6-2.2-.3-2.7.4-3.6.1-4.8-1.8-.9-1.3-1.3-3.1-.9-4 .4-1.1.1-1.6-1-1.6-2.1 0-5.6-3.5-5.6-5.6 0-1-.6-1.4-1.5-1-2.3.8-1.8-2.1.6-4.2 3.3-2.7 6.2-10.2 6.3-15.7 0-3.3-.9-6.9-2.6-10.6-2.1-4.7-3.9-6.6-10-11.2-4.1-3-8.4-5.7-9.4-5.9-1.5-.2-2-1.4-2.4-6.3-.5-5.4-.3-6.3 2-8.8 2-2.3 2.2-3 1.1-3.7-3.2-1.9-5.5 1.6-6.4 9.8-.3 2.4-.8 4.6-1.1 4.9-.3.3-3.8 1.3-7.8 2.3-6.7 1.6-7.4 1.6-8.5.1-.7-.9-1.3-2.6-1.3-3.9 0-1.3-.8-2.5-1.7-2.8-1-.3-2.8-1.1-4-1.6-1.2-.6-2.9-.8-3.7-.5-2.2.9-2 3.7.2 3.8 4.7.3 7 1.6 8.7 4.9 1.4 2.7 1.3 2.9-2.1 5.9-4 3.6-4.4 3.6-8.6 1.5-2.2-1.2-2.7-1.9-1.9-2.7 1.7-1.7 1.3-3.7-.6-3.7-3.8.1-7.4 5-3.7 5 2.2 0 8.4 3.9 8.4 5.2 0 1.8-6.1 13.8-7 13.8-1.1 0-20.9-27.8-37.4-52.5-4.3-6.5-12.6-22.3-14.4-27.5-1-2.8-.9-3.1.6-2.8 1 .2 1.6 1.1 1.4 2.1-.2.9.2 1.7.8 1.7.5 0 1-.9 1-2 0-1.4.7-2 2.1-2 1.8 0 2.1.5 1.7 3.2-.5 3.1 1.5 8.2 4.7 11.8.7.8 1.2 2.8.9 4.5l-.4 3 1.2-3.3c.9-2.7 1.6-3.2 4.4-3.2h4.2c.4 0 1 3 1.5 6.6.7 6.2 1.1 7 4.9 10.6 2.3 2.1 4.9 3.8 5.8 3.8.9 0 2.1.5 2.8 1.2.9.9 2.1.9 5 0 4.9-1.5 7.4-1.5 5-.1-1 .5-1.8 1.6-1.8 2.4 0 1 1.7 1.3 7.2 1.1 6.4-.3 7.4-.6 9.5-3 2.9-3.4 2.9-7 .2-9.7-1.8-1.8-2-2.5-1-4 .6-1 1.1-2.7 1.1-3.8 0-1.1.6-2.2 1.3-2.4.9-.4.9-.8-.2-1.5-.7-.5-1.1-1.4-.7-2 .3-.6.2-1.3-.4-1.7-.5-.3-1-1.5-1-2.6s-1.4-3.3-3.2-4.9c-3.1-2.9-3.2-3-1.3-4.4 1.1-.8 1.7-1.8 1.2-2.2-.4-.4-1.3-.2-1.9.4-.7.7-2 1.2-3.1 1.2-1.4 0-1.7-.5-1.2-2 .4-1.3.2-2-.6-2-.7 0-2.1-.7-3.1-1.6-1.6-1.6-1.8-1.5-2.4 0-.4 1 .1 2.5 1.1 3.6 2.3 2.5 1.3 3.7-2 2.2-2.4-1.1-6.5-.4-10.8 1.9-1.4.8-1.9.4-2.7-1.7-.6-1.5-.8-2.9-.5-3.2.5-.5-2.1-2.3-6.2-4.1-2.2-1-3.2-3.1-1.5-3.1.5 0 1.5-1.9 2.2-4.3.8-2.3 1.7-4.7 2.2-5.3.4-.6.3-1.5-.3-2.1-1.1-1.1.4-6.3 1.9-6.3.4 0 2.3-1.2 4.1-2.7 5.5-4.6 7.7-12.8 4.6-16.9-.8-1-1.5-2.7-1.5-3.6 0-1.1-.5-1.5-1.5-1.2-.8.4-2.2 0-3.1-.7-2.2-1.8-10.5-1.9-12.3-.2-.7.8-2.2 1.1-3.2.8-1.4-.5-1.9-.1-1.9 1.4 0 1.1-1.1 2.8-2.4 3.7-1.4.8-2.3 2.1-2 2.8.8 2-3.5 6.6-6.2 6.6-1.4 0-3.5.7-4.8 1.5-1.3.9-3 1.4-3.7 1.3-.7-.2-1.3.3-1.4 1.1 0 .8-.6 1.6-1.2 1.8-1 .4-1.3-2.5-1.3-12.1 0-14.3 2.2-27.2 6.8-40.6 3.2-9.5 11.1-25.4 11.2-22.8 0 1 .5 1.8 1.1 1.8.7 0 .8-.7.4-1.8-1.3-3-1-3.6 7.4-16.6 10.9-16.7 12.5-20.5 12.6-28.7 0-9.2-1.6-10.9-9.9-10.7-7.6.2-11.7-1.8-14.1-6.8-1.8-3.9-1.7-9.5.5-14.9 1-2.6 1.3-2.8 2.1-1.3 1 1.7 3.9 2.5 3.9 1.1 0-.4-.5-2.1-1.2-3.9-1.1-3.1-.9-3.6 8.5-17.7 11.2-16.7 15.9-25.2 18.2-33.4 2.9-10 2.8-9.9 9.2-11.6 8.2-2.3 11.7-2.1 16.9.9 3.7 2.2 5.2 2.5 8.9 2 2.4-.4 5.8-1.7 7.7-2.9 2.8-1.9 3.3-2.9 3.3-6.1 0-5-3.2-7.5-10.6-8.2-5.1-.6-5.8-.3-11.9 3.7-6.7 4.3-13.1 7.5-18.3 9l-3 .8.6-5.5c1.1-10.6 7.1-20.9 30.7-52.4 35.7-47.6 46.6-67.6 53.4-98.1 3.9-17.6 4.9-29.9 4.3-51.8-.5-20.2-1.4-25.3-4.7-27.1-2.7-1.4-5.6-1.2-7 .5zM356.4 180.7c-4 18.4-7.1 24.9-16.1 33.8-3.7 3.6-7 6.5-7.4 6.5-1.3 0 5.9-19.8 9.9-27.5 3.7-7 10.8-15.5 13-15.5.8 0 1 .9.6 2.7zM299.7 414c5.1 0 7.3 1.1 7.3 3.5 0 5.3 5.5 5.7 10.5.8l2.8-2.8-.8 17c-.4 9.3-.9 17.3-1.1 17.7-.8 1.4-10.2 3.8-20.4 5.3-5.8.8-12.1 2-14 2.5-1.9.6-3.8 1-4.2 1-.5 0-.8-5.3-.8-11.9 0-13.4 2.4-24 7.3-32.4l2.8-4.7 3.9 2c2.2 1.1 5.2 2 6.7 2zm34.8 20.2l2.6 3.1-2.8 2.3c-1.5 1.3-4.7 3.7-6.9 5.3l-4.2 3.1-.6-3.3c-.6-3.7.6-10 2.4-12.2 2.2-2.6 6.6-1.8 9.5 1.7zm-13.4 26c.4.6 1 3.1 1.4 5.6.7 4.8-.5 6.6-3.6 5.7-.9-.3-2.2.1-2.9 1-.7.8-2.2 1.5-3.4 1.5-1.2 0-2.7.9-3.4 2.1-.8 1.2-1.9 1.8-2.8 1.5-.8-.3-1.4 0-1.4.8 0 .7-.7 1.9-1.6 2.7-.8.7-2.5 3.1-3.6 5.3-1.2 2.3-2.9 4.7-3.9 5.4-2.3 1.6-2.5 4.2-.4 4.2 1.6 0 2.1 4.5.6 5.4-2.2 1.4-5.9-1.4-7.5-5.5-1.5-3.7-1.5-4.5-.3-5.4.7-.5 1.9-2 2.6-3.2 1-1.9.8-2.6-1-4.4-1.4-1.4-2.8-1.9-4.4-1.5-2.2.6-2.4.2-4.1-8.9-1-5.2-1.5-9.7-1.2-10 .7-.7 10.3-2.4 19.5-3.5 9.2-1 20.5-.4 21.4 1.2zm14.4 2.9c1.3 1.3-4.2 1.2-6.6-.1-1-.6-1.9-1.5-1.9-2 0-1 7 .7 8.5 2.1zm7.8 226.9c.6 2.5-.2 6.1-1.4 5.5-.4-.3-1.2.3-1.8 1.2-.9 1.7-1.2 1.6-4-1.1-3.8-3.7-3.9-5.4-.3-6.2 1.5-.3 3.2-.7 3.7-.9 2.3-.8 3.3-.4 3.8 1.5zM304 767c2 3.8-4.5 15.2-7.6 13.2-2.1-1.4-2.3-5.1-.4-7.5 1-1.3 2.2-3.7 2.6-5.3.4-1.6.9-3.3 1.1-3.7.6-1 3.1 1 4.3 3.3zm18.4 47.6c.4.9.4 2.6.1 3.8-.4 1.3.1 1 1.2-.9l1.7-3 1 2.7c.5 1.6 1.3 2.8 1.8 2.8.4 0 .8.4.8.9 0 .8-11.1 5.1-13.1 5.1-.3 0 .4-2.1 1.7-4.7 1.3-2.5 2.4-5.5 2.4-6.5 0-2.2 1.6-2.4 2.4-.2zm30.3 14.1c2.7 8.7 2.4 22.4-.6 28.5-1.2 2.6-3 5.3-3.8 6-1.4 1.1-1.4.9 0-1.9 3.4-6.6.6-15.4-6.2-19.8-4.5-2.8-4.9-3.6-2.6-5.5.8-.7 1.5-2.8 1.5-4.6 0-4.6 1.8-4.3 2.5.3 1 6.1 1.5 6.2 1 .3-.5-5.2-.4-5.6 2.2-7.2 1.5-1 3.1-1.8 3.5-1.8.4 0 1.5 2.6 2.5 5.7zm-23.2 8.2c-.3.6-1.1 1.1-1.7 1.1-.6 0-.6-.6.2-1.5 1.4-1.7 2.6-1.3 1.5.4zm38.8 25.9c.9 1 2.2 3.3 2.8 5 .6 1.8 2 3.7 3 4.3 2.7 1.4 2.6 6.9-.1 7.6-1.1.3-2 1.2-2 1.9 0 .8-.9 1.4-2 1.4-1.3 0-2-.7-2-1.9 0-2.6-2.6-4.4-5.4-3.7-1.7.4-2.6.1-3-1-.9-2.4-.7-6.2.4-6.9.6-.3 1-1.3 1-2.2 0-1.7 3.7-6.3 5-6.3.4 0 1.4.8 2.3 1.8zm261.4 24.3c1.2 3.1 2.5 7.4 2.9 9.6.6 3.9.5 3.9-3.6 5.6-3.5 1.3-5.5 1.4-12.3.7-4.5-.6-10.1-1.1-12.5-1.2l-4.3-.3 3.2-4.3c3.3-4.4 5.4-5 5.4-1.5 0 3.2.8 3.5 4.8 1.8 4.4-1.8 4.6-3.2 1-6-1.5-1.3-2.3-2.7-1.9-3.4 1.1-1.7 11.8-7.1 13.6-6.8.8.1 2.5 2.7 3.7 5.8zm87.1 84.8c.3.8-.1 1.2-.9.9-.7-.2-1.5-1-1.7-1.7-.3-.8.1-1.2.9-.9.7.2 1.5 1 1.7 1.7zm-11.6 4.8l4.1 2.8-3.1.9c-3.9 1.1-7.3-1.3-6.5-4.5.7-2.4.5-2.4 5.5.8z"/><path d="M307.5 428c.3.5 1 1 1.6 1 .5 0 .9-.5.9-1 0-.6-.7-1-1.6-1-.8 0-1.2.4-.9 1zm-22 9c-.3.5-.1 1 .4 1 .6 0 1.1-.5 1.1-1 0-.6-.2-1-.4-1-.3 0-.8.4-1.1 1zm14 336c-.3.5-.1 1 .4 1 .6 0 1.1-.5 1.1-1 0-.6-.2-1-.4-1-.3 0-.8.4-1.1 1zm51.5 79.1c0 .5.5.7 1 .4.6-.3 1-.8 1-1.1 0-.2-.4-.4-1-.4-.5 0-1 .5-1 1.1zm37.5-834.5c-1.2 1.3-1.3 1.9-.4 2.5 1.7 1 5.4-.5 5.4-2.2 0-2.1-3-2.2-5-.3zm34.3 17.1c-3.9 4.6-2.1 8.6 2.8 6.1 3.8-1.8 5.1-4.2 3.5-6.2-1.8-2.1-4.4-2-6.3.1zM289 42.5c-1.7 2.1-.4 3.5 3.5 3.5 1.9 0 3.7-.5 4-1 1-1.6-1.4-4-4-4-1.2 0-2.8.7-3.5 1.5zm373.9 3c-5.6 3.8-6.6 8.6-2.5 12.4 3.3 3.1 8.3 2.2 13.1-2.3 8.5-8.1-.7-16.9-10.6-10.1zm20.3 2.7c-1.9 1.9-1.4 3 1.1 2.6 1.2-.2 2.2-.9 2.2-1.7 0-1.9-1.8-2.4-3.3-.9zM270.5 53c-.3.5.1 1 .9 1 .9 0 1.6-.5 1.6-1 0-.6-.4-1-.9-1-.6 0-1.3.4-1.6 1zm12 2.4c-5.9 2.8-9.2 6.1-10.5 10.5-1.2 4.3 0 7.3 4.3 10.5 7.6 5.8 16.1 5.4 21.8-1.2 6.6-7.4 7.6-14.6 3-19.3-2.5-2.5-3.7-2.9-8.3-2.9-3.5 0-7 .8-10.3 2.4zm114.5-1c0 .8.4 1.7.9 2 1.1.7 3.3-1.8 2.4-2.7-1.2-1.2-3.3-.7-3.3.7zm46.6.6c-1.7 1-3.6 3-4.3 4.4-2.5 4.8 2.6 10.6 9.2 10.6 3.3 0 6.5-4.4 6.5-8.9 0-7.5-5.2-10.2-11.4-6.1zm231.6 4.6c-2.9 1.4-6.9 4.5-8.9 6.8l-3.7 4.3-1.6-3.1c-2.3-4.6-6.2-4.7-10.4-.2-4.3 4.5-5.2 8-3 11.3 1.4 2.2 2.2 2.5 5.4 2l3.8-.5-4 6c-2.2 3.3-5.4 8.9-7.1 12.5-7.3 15.8-3.1 23.5 10.3 18.8 13.9-4.9 36.6-26.6 42.8-40.8 3-6.9.5-14.5-5.8-17.7-5.4-2.8-11.5-2.6-17.8.6zM399 68.1c0 .5.5.7 1 .4.6-.3 1-.8 1-1.1 0-.2-.4-.4-1-.4-.5 0-1 .5-1 1.1zm9.2 2.1c-1.9 1.9-1.4 3 1.1 2.6 1.2-.2 2.2-.9 2.2-1.7 0-1.9-1.8-2.4-3.3-.9zm90.5-.5c-1.2 1.2-.7 5 .8 6.3 3.6 3 10.2-2.2 6.9-5.4-1.5-1.6-6.5-2.2-7.7-.9zM221.8 83.4c-10.3 3.7-19.5 11.7-24.4 21.4-5.7 11.3-3 23.4 6.6 29 3.9 2.4 5.6 2.7 13 2.7 7.1 0 9.4-.4 14-2.6 8.8-4.2 16.2-11 20-18.3 7.1-14.2 2.7-27.4-10.9-32.2-4.6-1.7-13.6-1.7-18.3 0zm209.5 3.3c-.7.2-1.3 1.4-1.3 2.5 0 1.4.6 1.9 2.3 1.6 1.4-.2 2.2-1 2.2-2.2 0-2.1-1.2-2.8-3.2-1.9zM623.5 109c.4.6 1.1.8 1.6.5 1.4-.9 1.1-1.5-.7-1.5-.8 0-1.2.5-.9 1zm1.1 15.6c-1.2 1.1-1.4 2-.7 2.7 1.4 1.4 6.4-.8 5.8-2.6-.6-1.9-3.3-2-5.1-.1zm-189.5 10.7c-1.3 1.6-.5 2.7 2.1 2.7 1.1 0 1.8-.7 1.8-2 0-2.3-2.2-2.7-3.9-.7zM181.5 162c-.3.5-.1 1 .4 1 .6 0 1.1-.5 1.1-1 0-.6-.2-1-.4-1-.3 0-.8.4-1.1 1zm483.5 7.3c-27.2 8.3-60.1 26.3-87 47.7-12.5 9.9-29.5 26.8-36.8 36.5-7.9 10.5-13.5 22.3-14 29.6-.5 6.3.6 8.9 3.8 8.9 3.5 0 4.4-2.6 2.6-7.5-2.3-5.9-1.5-8.9 4.4-17.8 8.6-12.8 23.9-26.1 38.5-33.4 11.4-5.7 29.1-10.8 35.5-10.1 3.4.3 3.5.4 3.7 4.8.1 2.5.2 5.1.2 5.7.2 2.3 5.7 1.4 12.2-2 3.5-1.8 13.6-7.7 22.4-13.1 18.2-11.2 27.2-15.6 38.3-18.7 9.3-2.6 14.1-4.9 19-9.3 4.7-4.2 6.9-5.3 13.1-6.7 2.8-.6 5.4-1.5 5.8-2.1 1.2-2.1-5.1-5.8-12.7-7.4-6.2-1.4-8.9-1.5-15.9-.7-9.6 1.2-13.2.5-17.1-3.2-3.7-3.5-7.4-3.8-16-1.2zM315.7 172c-.8 3.2 2.4 8.5 5.6 8.8 2.3.3 2.7 0 2.7-2 0-1.4-1.4-3.8-3.3-5.6-3.9-3.7-4.3-3.9-5-1.2zm-12.6 2.4c-1.6 1.9-.6 3.6 2 3.6 1.5 0 2-.6 1.7-2.2-.4-2.7-2.1-3.3-3.7-1.4zM153 176.5c-12.8 5.8-16 19.6-6.6 28.4 4 3.8 11.2 4 18.1.6 16.4-8 14.4-29-2.8-30.2-3.3-.2-6.5.3-8.7 1.2zm130.2 21.1c-4.3 3-1.6 9.4 4 9.4 4.9 0 7.6-6.1 4.2-9.4-2-2-5.3-2-8.2 0zm16.7.6c0 .2-.3 2.3-.5 4.9-.6 5.7 2.3 10.2 6.5 9.7 2.1-.2 2.7-.9 2.9-3.3.2-2.3-.6-4.1-3.3-7.3-3.1-3.5-5.2-5.1-5.6-4zm-166.1 33.9c-6.4 3.3-9.4 9.9-7.6 16.8 1.1 4.4 4.7 7.3 10.6 8.6 1.7.3 3.2 1.2 3.2 1.8-.1 2-5.4 7.5-8.3 8.6-3.5 1.4-3.5 3.1.2 3.1 1.9 0 3 .6 3.3 1.8.4 1.2 2.2 2.3 5.3 3.2 4.2 1.2 5.1 1.1 8.1-.5 4.2-2.3 5.2-3.4 6.4-7.5.8-2.8.6-3.5-1.8-5.9-1.5-1.4-3.7-3.1-4.7-3.7-1.9-1.1-1.9-1.3.6-4 7.6-8.3 7.9-18 .7-22.4-4.2-2.6-11.1-2.5-16 .1zm154.8 6.5c-2.4 2.4-1.7 7.4 1 7.4 3 0 6.4-2.4 6.4-4.5 0-4.2-4.4-6-7.4-2.9zM301 240c0 .5.5 1 1 1 .6 0 1-.5 1-1 0-.6-.4-1-1-1-.5 0-1 .4-1 1z"/><path d="M565.4 245.5c-.6 3.5 0 5.5 1.2 4.2 1-1 1.3-7.7.4-7.7-.5 0-1.2 1.6-1.6 3.5zm-278.2 3.6c.2.6.8 1 1.3 1s1.1-.4 1.3-1c.2-.6-.4-1.1-1.3-1.1s-1.5.5-1.3 1.1zm-36 1c-5.2 1-9.5 3.9-13.3 9.2-3.8 5.2-4.1 12.7-.6 17.8 2.5 3.8 9.7 7.8 14.2 7.9 10.8.1 21.6-9.6 21.5-19.2-.1-4.3-2.9-10-5.7-11.4-1.3-.6-3.1-1.8-4-2.6-2.4-2-6.9-2.7-12.1-1.7zm-90.5 8.5c-4.4 4.4-4.5 6.4-.3 9.9l3.7 3.1-2.1 1.9c-1.3 1.2-2 2.8-1.8 4.4.2 2.1.9 2.7 3.5 2.9 2.7.3 3.5-.1 4.5-2.3.9-2.1.9-3.1-.1-4.7-1.1-1.8-.9-2.5 2.3-5.7 2.2-2.3 3.6-4.7 3.6-6.2 0-6-8.6-8.1-13.3-3.3zm359.7 2c.4 1.5 1 3.9 1.3 5.5.7 3.4 3.3 6.1 3.3 3.4 0-2.6-3.3-11.5-4.3-11.5-.5 0-.6 1.2-.3 2.6zm119.2 2c-.4.9-.4 1.9-.2 2.1.8.8 2.6-.8 2.6-2.3 0-1.9-1.6-1.8-2.4.2zm-531.8.6c-.7.4-2.3.8-3.5.8-2.6 0-5.8 4.3-4.9 6.5.3.9 1.9 2.3 3.6 3.3 3.3 1.9 3.7 3.3 1.5 5.2-2.6 2.1-3.7 8.3-2.3 12.6 2.4 7.2 12.4 10.8 19.6 7 12.1-6.3 12.6-21.1.8-25.5-2.7-1.1-2.8-1.2-1.2-3.6 1.9-2.9 2.1-6.4.4-6.6-4.9-.6-13-.4-14 .3zm7.2 7.9c0 .5-.7.9-1.5.9-1.5 0-2-1.2-.9-2.3.8-.8 2.4.1 2.4 1.4zm474-5.6c0 .8.2 1.5.4 1.5s.6-.7 1-1.5c.3-.8.1-1.5-.4-1.5-.6 0-1 .7-1 1.5zm-399.8 8.4c.2.7.7 1.2 1.1 1.2 1.2-.1.9-1.5-.3-2-.7-.2-1.1.2-.8.8zm369.4 4c-.4.7-.5 1.5-.2 1.8.9.9 1.9-.4 1.4-1.8-.4-1.1-.6-1.1-1.2 0zm-361.9.8c-1.2 1.1-.8 4 .7 5.2 2.6 2.2 6.3-1 5-4.4-.6-1.5-4.5-2.1-5.7-.8zm15.7 2.2c-4.4 1.9-6.5 6-6.2 12 .3 4.7.7 5.7 2.8 7 2.2 1.2 3.3 1.2 8.2-.3 7.6-2.2 11.1-5.3 11-9.6-.2-6.6-9.3-11.9-15.8-9.1zm-35.6 11.5c-2 4.4.8 7.4 5.7 6.2 2.9-.7 4.4-4.9 2.5-7.1-2-2.5-6.9-1.9-8.2.9zm-32.4 1.1c-.4.9-.2 2.1.4 2.7 1.6 1.6 4.7.5 4.7-1.7 0-2.6-4.2-3.4-5.1-1zm377.8 1.7c.3 3.5 2.8 5.2 2.8 2 0-2.8-1-5.2-2.2-5.2-.5 0-.8 1.4-.6 3.2zm22.2 11.3c-1.4 1.4-2.2 3-1.9 3.5 1.9 3 10.5-1.1 9.2-4.3-.9-2.5-4.4-2.1-7.3.8zm-31.1 8.5c-8.3 5-6.1 12.3 3.2 10.6 4.6-.9 7.5-3.8 7.5-7.6 0-5-5.1-6.5-10.7-3zm-303.8 1.9c-.6 1.1.9 2.3 1.9 1.4.9-.9.7-2.3-.3-2.3-.6 0-1.2.4-1.6.9zm-.5 4.6c0 .8.7 1.5 1.5 1.5s1.5-.7 1.5-1.5-.7-1.5-1.5-1.5-1.5.7-1.5 1.5zm271 1.1c0 .8.5 1.2 1 .9.6-.3 1-1 1-1.6 0-.5-.4-.9-1-.9-.5 0-1 .7-1 1.6zM220.5 327c-.3.5.1 1 .9 1 .9 0 1.6-.5 1.6-1 0-.6-.4-1-.9-1-.6 0-1.3.4-1.6 1zm442.2 5.8c-3.6 3.6-4.7 6.2-2.8 6.2 1.1 0 8.1-8 8.1-9.2 0-1.6-1.7-.7-5.3 3zM507 332c0 2.3 2.4 5.9 4.7 6.9 1.4.7 2.7 1 2.9.9.2-.2-.7-2.3-1.8-4.6-1.4-2.6-2.9-4.2-4-4.2-1 0-1.8.4-1.8 1zm-376 2.1c0 .5.5.7 1 .4.6-.3 1-.8 1-1.1 0-.2-.4-.4-1-.4-.5 0-1 .5-1 1.1zm100.7 1.5c-1.4 1.4-.7 3.5 1.1 3.2.9-.2 1.7-1 1.7-1.7 0-1.6-1.8-2.5-2.8-1.5zm-57.7 8.9c0 1 .7 1.5 1.8 1.3 2.1-.4 1.9-2.2-.2-2.6-1-.2-1.6.3-1.6 1.3zm65.2 2.7c-2.5.7-3.7 1.8-4.8 4.4-1.2 2.8-1.9 3.4-3.2 2.8-8.4-3.6-16.9-2.5-23.2 3.2-13.1 11.8-6.6 30.2 10.2 29.1 8-.5 14.2-4.5 17.8-11.5 2.4-4.8 2.6-5.8 1.8-10.4-1.1-5.8-.6-7.8 2-7.8 2.5 0 6.2-4.1 6.2-6.8 0-2.9-2.7-4.1-6.8-3zm255.2 6.9c-4 1.1-7.1 6.8-5.4 9.9 1.2 2.3 5 3.5 8.5 2.6 3.2-.8 6.4-6.9 4.9-9.3-1.9-3-4.7-4.1-8-3.2zm244.6 3c-1.4.4-3.7 1.1-5.2 1.4-1.7.3-3.3 1.7-4.2 3.4-1.3 2.5-1.3 3.1.1 5 1.3 1.9 2.1 2.2 5.2 1.7 4-.7 8.2-1.4 9.4-1.5 1.6-.2 4.7-4.2 4.7-6.2 0-4.1-4.4-5.8-10-3.8zm-111 7.3c-2.9.9-3.6 1.6-3.8 4.3-.2 2.4.2 3.4 1.8 4.3 5.5 2.9 11.8-4.2 7.3-8.2-1.5-1.3-2.4-1.4-5.3-.4zm-523.2 1c-5.6 2-8.5 4.2-11.6 8.8-2.4 3.7-2.7 5.2-3 14-.3 6.7.2 12.3 1.3 17.6 3.6 16.3 15.2 35.1 27.3 44.2 7.4 5.5 10.3 6.7 19.4 7.8 12.6 1.6 19.4-.7 23-7.9 2.3-4.4 2.3-9.9-.2-20.1-1.1-4.6-2-10.3-2-12.8 0-6.9-1.5-10.8-7.5-19.9-5.9-8.9-6.4-10.1-4-10.1.8 0 1.5.4 1.5 1 0 1.3 3.7 1.3 4.5-.1.9-1.3-2.2-7.9-3.7-7.9-.7 0-2.2 1-3.5 2.2l-2.3 2.1-8.2-8.5c-6.9-7-9.2-8.7-13.7-10.1-6.3-2-12.2-2.1-17.3-.3zm137.6 2.7c-1 1.7 1.3 3.6 2.7 2.2 1.2-1.2.4-3.3-1.1-3.3-.5 0-1.2.5-1.6 1.1zm251 6.1c-.4.6-1.8.8-3.3.5-1.8-.4-3.6.2-5.9 2-2.8 2.1-3.5 2.3-4.9 1.1-1.3-1-1.5-1-.9 0 .8 1.4-1.8 6.1-4.1 7.5-.7.4-1.3 1.9-1.3 3.2 0 1.3-.5 2.7-1 3-1.1.7-.6 12.7.5 14.5 1.3 2.1-.7 4.6-6.1 8-7.2 4.6-11 7.7-10.3 8.4.3.4 2.3-.8 4.5-2.5 9.4-7.6 19.3-8.2 17.8-1-.5 2.5-.4 2.5 2.4-.9 2.7-3.1 3.7-3.5 7.9-3.6 2.6 0 5.9-.5 7.3-.9 1.4-.5 3-.9 3.7-.9 2.5-.2 10.1-7.7 12.7-12.6 2.6-4.9 2.6-5.3 1.4-10.7-.7-3-1.9-5.8-2.5-6-.7-.3-1.3-1.3-1.3-2.4 0-1-.9-2.3-2.1-3-1.5-.8-1.8-1.4-1-2.2 1.8-1.8 1.3-2.9-.9-1.7-1.4.7-3.7.8-7 .2-3.2-.6-5.3-.6-5.6 0zm26.5 14.3c0 .6-.2 3-.5 5.5-.2 2.4-.2 5.1.2 6 1.1 3.1 3.2-1.8 2.7-6.3-.5-3.8-2.2-7.6-2.4-5.2zm116.8 5c-3 2.9.8 8 3.9 5.4 2-1.6 1.7-4.7-.5-5.9-1.5-.7-2.3-.6-3.4.5zm-52.7 7.4c-3.9 1.2-9.3 4.1-11.7 6.3-1.2 1.1-2.6 1.7-3.2 1.3-.6-.3-2.5.7-4.2 2.4-2.5 2.5-2.8 3.4-1.9 5 1.3 2.6 1.3 3.1-.3 3.1-.8 0-1.9 1.1-2.5 2.5-1.1 2.4-1 2.5.8 1.5s1.9-.8 1.3 2.2c-.8 4.4-5.6 9.9-7.4 8.7-5.2-3.3-13 1.8-12.1 8 .7 4.9 4.2 6.5 9.7 4.4 1.7-.6 5-1.4 7.5-1.8 2.4-.3 4.9-1 5.6-1.6.8-.7 2.3-.2 4.9 1.6 2.1 1.4 5.1 2.5 6.8 2.5 4.1 0 9.7-6 12-13 3.5-10.4 4.7-12.6 7.7-13.7 5.4-2 8.6-10.4 6-15.4-2.3-4.2-11.7-6.2-19-4zm214.4 4.8c-1.7 1.7-1.7 1.8.5 2.1 2.7.4 4.7-1.1 3.7-2.7s-2.2-1.4-4.2.6zm-341.9 3.4c-1 1.5.1 2.3 2 1.5.9-.3 1.3-1 1-1.6-.8-1.3-2.2-1.3-3 .1zm159 1.9c-3.6 1.4-9.3 8.7-10.9 13.9-2.2 7.6-.5 12.1 4.6 12.1 4 0 7.4-3.7 8.3-9.1.4-2.4 1.4-5.6 2.1-7.1 3.1-6 .7-11.6-4.1-9.8zm-425.3 6.9c.4 1.3 1.8 1.6 1.9.4 0-.4-.5-.9-1.1-1.2-.7-.2-1.1.2-.8.8zm505.3 2.2c-1 1.5.3 2.5 1.6 1.2.7-.7.7-1.3.1-1.7-.6-.3-1.4-.1-1.7.5zm83.5 1c0 .5.5.7 1 .4.6-.3 1-.8 1-1.1 0-.2-.4-.4-1-.4-.5 0-1 .5-1 1.1zm-547.8 4.7l-2.3 1.8 2.4 1.3c3.5 1.9 6.2 1.1 6.2-1.9 0-3.2-3.1-3.7-6.3-1.2zm264.3 1.2c-.8 3.5.3 6 1.6 3.9 1.2-1.9 1.1-6.9 0-6.9-.5 0-1.2 1.3-1.6 3zm208 .2c-3 3.6-2.8 7.1.7 10.1 2.4 2 7.1 1.5 9.9-1 1.5-1.2 1.7-1.1 2.2.8.3 1.1 1 1.8 1.6 1.4 1.4-.8 1.4-4.2.1-5-.5-.3-1-1.9-1-3.4 0-3.7-2.8-6.1-7.2-6.1-2.8 0-4.2.7-6.3 3.2zm57.7-.2c-2.3 1-3.9 3.6-2.8 4.7 1 1.1 7.6-2.6 7.6-4.2 0-1.7-1.4-1.8-4.8-.5zm-138.1 2.6c-3.5 2.9-3.9 4.4-1.3 4.4 2.7 0 7.1-5.3 5.3-6.4-.5-.4-2.3.6-4 2zm17.9 3.1c-4.9 1.8-6.5 6.7-3.2 9.6 2.8 2.5 6.7 2.1 9.1-.9 2.6-3.3 2.6-4.9.1-7.4-2-2-3.3-2.3-6-1.3zm81.3 6.3c-4.2 1.7-5.6 7.5-2.5 10.3 2.5 2.3 5.4 2.1 8.6-.4 5.9-4.6.9-12.7-6.1-9.9zM500 442.4c-.6.6-1 2.7-1 4.8 0 7.4 7.1 10.4 12.4 5.2 5.1-5.2 2-10.9-6.1-10.9-2.4 0-4.8.4-5.3.9zm332.4.6c-4.6 2-5.9 3.5-6.7 7.5-1.1 5.8 5.4 11.7 11 9.9 4.1-1.3 6.1-2.7 7.7-5.6 4.6-7.8-3.4-15.7-12-11.8zM450 445c0 .5.5 1 1 1 .6 0 1-.5 1-1 0-.6-.4-1-1-1-.5 0-1 .4-1 1zm296.6.6c-2.3 2.2-2 3.7.4 2.4 1.1-.6 2-1.7 2-2.5 0-1.9-.5-1.9-2.4.1zm-131.3 7.1c-.7.3-1.3 1.3-1.3 2.4 0 2.3-.8 2.4-3.2.2-1-.9-1.8-1.1-1.8-.5 0 .6.5 1.4 1 1.7 1.7 1 0 2.6-2 2-2.2-.7-3.5 1.3-4.3 6.8-.5 3.2-.1 4.3 2.5 7.3 2.9 3.3 3.5 3.5 7.1 3 5.4-.9 9.3-3.9 10.7-8.2 1.4-4.1.5-10.8-1.2-9.8-.8.5-.9.1-.4-1.1.5-1.5.4-1.6-.9-.5-1.9 1.5-4.9.5-4.1-1.5.6-1.6-.3-2.4-2.1-1.8zm101.4 1.3c-4.4.8-9.4 5.1-8.2 7 1.9 3 14.5-2.3 14.5-6.1 0-2-.4-2.1-6.3-.9zm-27.4.7c-2.8.5-7.3 5.8-7.3 8.4 0 1.1 1.2 3.1 2.6 4.6 2.1 2.1 3.2 2.4 6.1 2 6.5-1.1 10.1-6.2 7.6-11-1.1-2.2-5.6-5.3-6.6-4.6-.1.1-1.2.4-2.4.6zm-531.1 1.5c-3.4 4.4-1.5 9.1 3.7 9.1 3.7 0 5.1-1.5 5.1-5.5 0-4.1-6.3-6.6-8.8-3.6zm337 4.9c.2.6.8 1 1.3 1s1.1-.4 1.3-1c.2-.6-.4-1.1-1.3-1.1s-1.5.5-1.3 1.1zm41.4 2c-2.7 3.2-2.9 6.9-.6 9.3 1.5 1.5 8.8-1.2 10.7-4 1.5-2.4 1.5-2.7-.4-5.2-2.9-4-6.4-4-9.7-.1zM590 462c-1.1 1.1-2 2.4-2 3 0 1.5 2.7 1.2 4.4-.6 1.8-1.7 2.1-4.4.6-4.4-.5 0-1.9.9-3 2zm-10.5 3c-.3.5.1 1 .9 1 .9 0 1.6-.5 1.6-1 0-.6-.4-1-.9-1-.6 0-1.3.4-1.6 1zm-390.1 2.1c-.8 1.4 1.1 3.3 2.5 2.5.6-.4 1.1-1.4 1.1-2.2 0-1.6-2.6-1.9-3.6-.3zm366 .3c-1 .8-1.6 1.7-1.3 2 .3.3 1.4-.1 2.5-.8 1-.8 1.6-1.7 1.3-2-.3-.3-1.4.1-2.5.8zM504 472c0 .5.5 1 1.1 1 .5 0 .7-.5.4-1-.3-.6-.8-1-1.1-1-.2 0-.4.4-.4 1zm-319.2 1.6c-6 3.2-7.4 11.4-3.4 20 2.7 5.8 5.7 8.4 9.9 8.4 5.6 0 12.3-5.4 15.1-12.2 2.2-5.1 2-7.6-.6-11.5-4-5.7-14.7-8.2-21-4.7zm481.1.3c-2.1 1.7-2.2 2-.7 2.6 2.8 1.1 5.3.1 5.6-2.3.4-2.8-1.7-2.9-4.9-.3zm-177.9.2c0 .5.5.7 1 .4.6-.3 1-.8 1-1.1 0-.2-.4-.4-1-.4-.5 0-1 .5-1 1.1zM112 476c0 .5.5 1 1 1 .6 0 1-.5 1-1 0-.6-.4-1-1-1-.5 0-1 .4-1 1zm400.6.9c-.4.6-.1 2.1.6 3.3l1.3 2.3.3-2.4c.4-2.6-1.2-4.9-2.2-3.2zm179.1 1.8c-1.2 1.1-.8 2.3.8 2.3.8 0 1.5-.7 1.5-1.5 0-1.6-1.2-2-2.3-.8zm-566.2 3.8c-.5.2-2.2.6-3.7.9-6 1.3-12.8 10.2-12.8 16.6 0 4.5 3.5 10.7 7.1 12.6 4 2 14 2 18.1 0 4.4-2.2 4.5-2.1 4.6 2.7.2 6.6 1.6 9.4 6.3 11.8 3.8 1.9 4.6 2 8.7.8 2.5-.7 5.9-2.7 7.8-4.6 3-3 3.4-4 3.4-8.8 0-2.9.5-5.7 1-6 1.6-1 4-7.4 4-10.5 0-6.1-9.6-12.3-15.4-10-1.7.6-2.5.4-3.4-1.1-1.6-2.5-3.9-2.4-5.3.3-.9 1.7-.9 2.4.4 3.2 1.3 1 1.2 1.5-.7 3.9l-2.2 2.7.4-3.3c.3-2.9-.1-3.7-3.4-6.2-5.3-4-11.5-6.1-14.9-5zm463.5 1.9c-.6.8-1 2.5-.8 3.8.2 1.8 1 2.4 3.5 2.6 2.7.3 3.5-.1 4.4-2.2.9-2 .9-2.9-.1-4.1-1.6-1.9-5.4-1.9-7-.1zm100.5-.4c-.3.5-.1 1 .4 1 .6 0 1.1-.5 1.1-1 0-.6-.2-1-.4-1-.3 0-.8.4-1.1 1zm-129 4c-2.4 2.5-2.6 3.1-1.4 4.6.9 1.2 2.4 1.5 5.1 1.1 4.4-.6 6.8-2.2 6.8-4.6 0-4.8-6.3-5.5-10.5-1.1zm42.1.6c-2.8 2.9-3.2 5.3-1.5 8.5 2.8 5.3 11.7 3.7 13.8-2.3 1.5-4.1 1.4-4.5-.9-6.8-2.9-2.9-8.1-2.6-11.4.6zM769 490c0 .5.9 1 2 1s2-.5 2-1c0-.6-.9-1-2-1s-2 .4-2 1zm-84 1.5c-.9 1.1-2.2 1.4-3.9 1-2-.4-3.5.2-6.1 2.4l-3.5 2.9 4.3-.5c6.4-.8 5.2 2.7-1.4 4.1-3.5.8-8 4.9-7 6.5.5.7 1.5.7 3.2.1 3.4-1.3 3.3-1.4 4.4 1.5l1 2.5h29.5l.3-3.9c.3-5.1-1.2-6-4.4-2.6-2.9 3.1-3.9 2.7-4.7-1.9-1.2-7.5-4.9-10-11.1-7.6-3.5 1.3-3.4-.7.2-3.7 1.5-1.2 2.2-2.2 1.6-2.3-.6 0-1.7.7-2.4 1.5zm75 2.8c-2.2 1.1-4.4 1.5-6 1.1-7.7-2-13 .1-15.6 6.1-1.2 3.1-1.2 3.9 0 7l1.5 3.5h6.8c3.8 0 7.4-.5 8-1.1.8-.8 1.3-.8 1.7 0 .8 1.2 11.6 1.5 15.4.5 1.2-.4 2.2-1.4 2.2-2.3 0-.9.6-2.4 1.3-3.3.8-.9 1.1-3.2.9-5.3-.8-6.9-8.8-10-16.2-6.2zm-209.5 2.6c-.8 2.5.1 4.1 2.1 4.1 1.8 0 1.8-3.4 0-4.9-1.1-1-1.6-.8-2.1.8zm-4.4 1.7c-2.4 3.1-2.7 4.6-.7 3.8 1.6-.6 4.2-5.2 3.4-6-.3-.3-1.5.7-2.7 2.2zm35.9 7.8c0 .8.4 1.7.9 2 1.1.7 3.3-1.8 2.4-2.7-1.2-1.2-3.3-.7-3.3.7zm15 .2c0 .8.5 1.2 1 .9.6-.4.8-1.1.5-1.6-.9-1.4-1.5-1.1-1.5.7zm-23 1.5c0 .5.5.7 1 .4.6-.3 1-.8 1-1.1 0-.2-.4-.4-1-.4-.5 0-1 .5-1 1.1zm-34.5 6c-.4.6-.5 1.3-.2 1.6.8.7 4.7-.7 4.7-1.8 0-1.3-3.7-1.1-4.5.2zm64.4 2.8c-3.4 3.4-3.7 6.3-.9 9.1 4.4 4.4 14.2.4 13.6-5.5-.7-6.6-7.7-8.6-12.7-3.6z"/><path d="M134.5 518c-.3.5-.1 1 .4 1 .6 0 1.1-.5 1.1-1 0-.6-.2-1-.4-1-.3 0-.8.4-1.1 1zm395.7 1c-.7 1.1-.8 2-.3 2 .9 0 2.4-3 1.8-3.6-.1-.2-.8.6-1.5 1.6zm145.3 4c-.8 2.5.1 4.1 2 3.3 1.9-.7 2-5.3.1-5.3-.8 0-1.7.9-2.1 2zm-35.5 1.5c-1 1.2-1 1.9-.2 2.7 1.6 1.6 4.2.2 4.2-2.2 0-2.4-2.2-2.6-4-.5zm-84.5.5c-.3.6.1 1.3 1 1.6 1.9.8 3 0 2-1.5-.8-1.4-2.2-1.4-3-.1zm-442.8 2.3c-2.2 1.6-2 6.5.4 8 .9.5 2.8.7 4.2.3 3-.7 4.6-4.9 3-7.5-1.3-2.1-5.3-2.5-7.6-.8zM563 527c0 .5.5 1 1 1 .6 0 1-.5 1-1 0-.6-.4-1-1-1-.5 0-1 .4-1 1zm-389 2.6c-6.5 2.2-9.2 4.1-11.7 8.3-1.6 2.5-3 5.9-3.3 7.6-.5 3.3-1.2 3.4-9.7 2.1-3.5-.5-5-.1-9 2.2-5.5 3.2-8.3 7.8-8.3 13.5 0 5.9 2.3 9.3 7.5 11 5.6 1.9 9.1 1.1 15-3.7l4.2-3.5 1.1 2.4c.6 1.3 1.4 4 1.8 6.2.8 4.6 5.3 11.3 9.8 14.8 3.7 2.8 13.6 6.5 17.5 6.5 8.9 0 28.6-13 31.1-20.4.8-2.7.8-4.9-.5-10.1-1.9-8.5-2-8.2 1.1-8.9 3.4-.9 2.5-3.2-1.2-2.9-2.7.2-3.1-.2-4.6-4.5-3.5-9.6-10.7-17.4-18.7-20.1-3.3-1.1-19.1-1.4-22.1-.5zm427.8.5c-2.2 1.3-2.3 2.5-.2 3.3 1.9.7 4.4-1 4.4-3 0-1.6-1.8-1.8-4.2-.3zm34.7 1.9c-.3.5-.1 1 .4 1 .6 0 1.1-.5 1.1-1 0-.6-.2-1-.4-1-.3 0-.8.4-1.1 1zm-85.5 1.9c-1.5 2.9-1.3 3.1 2.4 3.1 1.8 0 3.9.7 4.6 1.5.7.8 1.6 1.5 2.1 1.5s.9-.7.9-1.5-.9-1.5-2-1.5-2.7-1.1-3.6-2.5c-2-3-3-3.1-4.4-.6zm40.5-.3c-6.3 2.2-10.4 8.3-4.7 6.9 3.7-.9 10.2-5.4 10.2-7.1 0-1.7-.4-1.7-5.5.2z"/><path d="M144.9 540.6c-1 1.2-.9 1.8.3 3.1 1.9 1.8 3.8 1 3.8-1.7 0-2.4-2.5-3.3-4.1-1.4zM252 540c0 1.2 4.5 2.4 5.9 1.5 2.2-1.3 1-2.5-2.4-2.5-1.9 0-3.5.4-3.5 1zm315.7.6c-.4.4-.7 1.6-.7 2.6 0 1.4.6 1.9 2.3 1.6 1.4-.2 2.2-1 2.2-2.3 0-2-2.5-3.2-3.8-1.9zm21.3.4c-1.1.7-1.2 1.2-.3 2.1 1.3 1.3 3.3.4 3.3-1.7 0-1.6-.9-1.8-3-.4zm-436.6 1.5c-.8 1.9.3 3.5 2.6 3.5 1.9 0 3.4-2.5 2.4-4.1-.8-1.4-4.4-1-5 .6zm454.8.7c-1.7 1.7-1.5 5.5.4 6.2 1.5.6 6.4-1.7 6.4-3 0-.3-.5-1.4-1-2.5-1.2-2.1-4-2.5-5.8-.7zm72.8-.2c0 .5.4 1 .9 1 .6 0 1.3-.5 1.6-1 .3-.6-.1-1-.9-1-.9 0-1.6.4-1.6 1zm-52.6 7.5c-.6 1.5.2 3.5 1.4 3.5.4 0 1.2-1.1 1.9-2.5 1-2.2.9-2.5-.8-2.5-1.1 0-2.2.7-2.5 1.5zm156.3-.4c-.9.6-2.1.8-2.6.5-.5-.3-1.4.1-2.1.9-.7.8-1.9 1.5-2.6 1.5-.8 0-2.4 1-3.5 2.1-1.8 1.8-2.5 2-4 1-3-1.8-3.6-1.2-.9.9 2.2 1.7 2.3 1.9.7 2.6-1.1.4-2.5 0-3.7-1.1-1.1-1-2.3-1.5-2.6-1.2-.4.3.9 1.5 2.7 2.6 2.5 1.6 2.9 2.2 1.7 2.6-.9.4-1.4 1.4-1.1 2.3.2.9-.5 2.7-1.6 3.9-1.2 1.3-1.7 2.5-1.1 2.8 1.8 1.1 1.1 3.7-1.2 4.3-2 .5-2 .6-.3 1.2 1.5.5 1.9 1.7 1.9 5.9.1 5.7 1.4 7.3 5.6 6.5 1.4-.3 3.9.2 5.5 1 1.7.9 4 1.6 5.2 1.6 1.2 0 3.3.4 4.7.9 1.8.8 2.8.6 3.7-.5.9-1.1 2.2-1.4 4.1-1 2 .4 3 .1 3.4-.9.3-.8 2.1-1.9 4-2.5 2.4-.8 3.4-1.8 3.4-3.2 0-1.1.8-2.2 2-2.5 1.4-.4 2.5-2.2 3.7-6.2 1-3.1 1.7-6.3 1.6-7.1-1-7.5-1-8.5.6-9.7 1.3-1.1 1.1-1.2-1.6-.7-2.6.5-3.3.3-3.3-.9 0-.8-.7-1.7-1.5-2.1-.8-.3-1.5-1.3-1.5-2.2 0-1-.3-1.4-.7-1.1-.3.4-1.7 0-2.9-.8-2.8-1.8-13.2-2.7-15.7-1.4zm-188.3 8.4c-1.5 1.1-1.7 1.7-.8 3.2 1.5 2.5 4.8 2.3 5.2-.3.4-3.1-2-4.7-4.4-2.9zm12.3 3.2c-1.2 1.1-.8 2.3.8 2.3.8 0 1.5-.7 1.5-1.5 0-1.6-1.2-2-2.3-.8zm60.9 1.9c-1.9 1.8-2.1 6.5-.4 8.2 1.7 1.7 7.4 1.5 9.2-.4 1.9-1.8 2.1-6.5.4-8.2-1.7-1.7-7.4-1.5-9.2.4zm191 1.3c-1.1 1.2-1.6 2.4-1.2 2.8.9.9 3.9-2.2 3.4-3.7-.2-.7-1-.4-2.2.9zm-244.1 1.2c-1 1.5.3 2.5 1.6 1.2.7-.7.7-1.3.1-1.7-.6-.3-1.4-.1-1.7.5zM263 567.5c-2 2.4-.6 2.8 1.5.5 1-1.1 1.3-2 .8-2-.6 0-1.6.7-2.3 1.5zm440.7-.9c-.8.8.1 2.4 1.4 2.4.5 0 .9-.7.9-1.5 0-1.5-1.2-2-2.3-.9zM601 574c0 .5.5 1 1 1 .6 0 1-.5 1-1 0-.6-.4-1-1-1-.5 0-1 .4-1 1zm-321 3c0 .5.7 1 1.5 1s1.5-.5 1.5-1c0-.6-.7-1-1.5-1s-1.5.4-1.5 1zm383.2.4c-3.1 1.7-6.2 6.1-6.2 8.8 0 2.8 1.4 4.8 5 7.2 3.4 2.2 6.5 2 10.1-.7 5.2-3.7 6.6-10.3 3-14-2-2.1-9-2.9-11.9-1.3zm-87.5 8.2c-1 1-.9 5.6.2 7.2.5.8 1.7 1.2 2.7 1 2.9-.5 2.7-8.2-.1-8.6-1.2-.2-2.4 0-2.8.4zm-490.4 4.1c-2 .7-1.5 2.3.7 2.3 1.1 0 2-.4 2-.9 0-1.3-1.2-1.9-2.7-1.4zm235 4.8c-.3.9-.3 1.8 0 2.2 1.1 1 5.7-.7 5.7-2.2 0-2-4.9-2-5.7 0zM595 597c-1.6 3.1-.5 5 2.8 5 6 0 6.8-6.1.9-6.8-1.8-.2-2.9.3-3.7 1.8zm-19.5 1.6c-.9.9-1.5 2.8-1.3 4.3.2 2.1.9 2.7 3.4 2.9 5.2.5 8.2-3.9 4.8-7.2-2-2.1-4.8-2-6.9 0zm32.5 1.9c-.7.9-1.1 1.8-.8 2 .3.3 1.1-.1 1.8-1s1.1-1.8.8-2c-.3-.3-1.1.1-1.8 1zm-424.9 4.4c-2.9 2.9-2.8 6.9.3 7.7 4.3 1 7 .1 8-2.9 2-5.5-4.1-9-8.3-4.8zM726 606c-.8.5-2.8 1-4.5 1-4.2 0-5 .7-7.9 7.4-3.7 8.4-4.1 12.4-1.6 16.4 5.5 8.8 17.7 5.5 21.3-5.9 2.7-8.3 2.3-12.9-1.6-16.7-3.7-3.6-3.6-3.5-5.7-2.2zm-418.9 2.4c-.6.7-.8 2.1-.5 3 .6 1.4 1.6 1.6 6.2 1.1 5.9-.6 7.2-1.1 7.2-2.6 0-1.3-4.7-1.1-5.6.3-.5.7-1 .4-1.5-1-.9-2.5-4.1-2.9-5.8-.8zm-168.4 3.8c1.8 1.8 3.6 2.9 3.9 2.5 1-1-3.6-5.7-5.5-5.7-1.1 0-.6 1 1.6 3.2zM611 611c0 .5.5 1 1 1 .6 0 1-.5 1-1 0-.6-.4-1-1-1-.5 0-1 .4-1 1zm71.6-.1c-.8 1.2 2.5 1.9 4.8 1.1 1.8-.6 1.8-.7.2-1.3-2.4-1-4.4-.9-5 .2zm-78.1 1c-.3.5-.1 1.2.4 1.5 1.2.8 4.1-.3 4.1-1.5s-3.7-1.2-4.5 0zm139 .2c-1 1.5.3 2.5 1.6 1.2.7-.7.7-1.3.1-1.7-.6-.3-1.4-.1-1.7.5zM193 616c-1.4 1-2.3 2.1-2 2.3.3.3 1.6-.3 2.9-1.4 3.1-2.5 2.3-3.3-.9-.9zm718.8 1c-3.2 3.2-3.3 5-.1 3 2.5-1.6 5.7-6 4.3-6-.6 0-2.5 1.4-4.2 3zm-231.4 1.1c-1 1.8 1.3 3.2 4 2.5 3.7-.9 3.4-3.6-.3-3.6-1.7 0-3.3.5-3.7 1.1zm71.1-.2c-.3.5-.2 1.2.3 1.5 1.2.7 5.2-.4 5.2-1.5 0-1.2-4.7-1.2-5.5 0zm50.2 2.9c-2.8 3-3.6 5.5-1.4 4.6 1.4-.5 5.1-6.3 4.5-7-.3-.2-1.7.9-3.1 2.4zm-561.7.7c-3.7 2-5.6 5.9-4.4 9.3 2.3 6.7 15.7 7.2 20 .7 2.4-3.6.6-7-4.9-9.5-5-2.3-7.3-2.4-10.7-.5zm441 3.2c-4.5 1.8-5.4 8.3-1.5 10.1 3.8 1.8 5.9 1.5 8.3-1.1 2.7-2.9 2.8-5.1.2-7.7-2-2-4.1-2.4-7-1.3zm88.7 6.9c-2.1 2.8-1.8 3.8.7 2.8.9-.3 1.6-1.7 1.6-3 0-2.9-.1-2.9-2.3.2zm-509.1 6c-1.1 1.1-1.4 2-.8 2.6 1.6 1.6 4.7.5 4.7-1.6 0-2.6-1.9-3.1-3.9-1zm-68.1 2.4c.3.5 1.4 1 2.3 1 1.5 0 1.5-.2.2-1-2-1.3-3.3-1.3-2.5 0zm547.5.7c-2.4.9-5.1 3.6-6.7 6.7-1.2 2.3-1.2 3.3-.2 5.7 2.3 5.6 8.1 6.5 13 2.1 2.6-2.4 3.2-3.6 3.2-7.2 0-6.1-4-9.2-9.3-7.3zm-37.5 3.3c.3.5 1.9 1 3.6 1 1.6 0 2.9-.5 2.9-1 0-.6-1.6-1-3.6-1-2.1 0-3.3.4-2.9 1zm79.3-.3c-3.7 1-1.1 3.3 3.7 3.3 2.9 0 4.3-1.9 2.4-3.1-1.5-.9-3.2-1-6.1-.2zm13.7 1.3c-.3.5.1 1 .9 1s1.8-.5 2.1-1c.3-.6-.1-1-.9-1s-1.8.4-2.1 1zm-544 2.1c-1 1.5.3 2.5 1.6 1.2.7-.7.7-1.3.1-1.7-.6-.3-1.4-.1-1.7.5zm442.1 3.6c-.4.9-.1 2 .6 2.4 1.6 1 4.3-1.5 3.4-3-1.1-1.6-3.3-1.3-4 .6zM236 654.3c0 1.9 1 2.7 2.6 2 2.1-.8 1.7-3.3-.6-3.3-1.1 0-2 .6-2 1.3zm473 3.2c-1 1.2-1 1.8-.1 2.9 1.7 2.1 5.7 2.7 12.1 1.8 6.9-.9 7.3-2.9 1-4.8-6-1.8-11.5-1.8-13 .1zM219 659c0 .5.7 1 1.6 1 .8 0 1.2-.5.9-1-.3-.6-1-1-1.6-1-.5 0-.9.4-.9 1zm8 1c0 .5.5 1 1 1 .6 0 1-.5 1-1 0-.6-.4-1-1-1-.5 0-1 .4-1 1zm14.5 0c.3.5.8 1 1.1 1 .2 0 .4-.5.4-1 0-.6-.5-1-1.1-1-.5 0-.7.4-.4 1zm12.5 2.3c-2.9 1.5-3.8 5.2-1.5 6 2 .8 6.4-.9 7.1-2.8.6-1.4-1.1-4.5-2.5-4.5-.3 0-1.7.6-3.1 1.3zm9 2.7c0 1.3.7 2 1.8 2s2.7-.9 3.7-2c1.8-2 1.7-2-1.8-2-3 0-3.7.4-3.7 2zm451.6.9c-1.2 1.9.4 3.1 4.4 3.1 3.7 0 6-1.3 4.3-2.3-2-1.3-8.1-1.8-8.7-.8zm-30.9.7c-1 1.1.3 2.4 2.4 2.4 1 0 1.9-.7 1.9-1.5 0-1.5-3.1-2.1-4.3-.9zm-399 1.1c-.4.3-.7 1.8-.7 3.2 0 2.8 1.4 1.9 2.5-1.7.6-2.1-.4-3-1.8-1.5zm424.3.8c0 .8.9 1.5 2 1.5s2-.7 2-1.5-.9-1.5-2-1.5-2 .7-2 1.5zm-493.7.2c-2 .7-1.5 2.3.7 2.3 1.1 0 2-.4 2-.9 0-1.3-1.2-1.9-2.7-1.4zm73.7.8c0 .8.5 1.5 1 1.5.6 0 1-.7 1-1.5s-.4-1.5-1-1.5c-.5 0-1 .7-1 1.5zm-82.6.6c-.3.6-.1 1.6.4 2.1 1.3 1.3 4.5-.8 3.6-2.3-.7-1.2-3.1-1.1-4 .2zm478.5 4c-1.1.6-1.1 1.1-.2 2 1.2 1.2 4.3.6 4.3-1 0-1.4-2.5-2-4.1-1zm168.7 3c-1.5 1.2-4.9 5.4-7.6 9.5-6.3 9.3-7.5 9.9-13.9 7.8-4.1-1.3-5.6-1.4-8.6-.4-4.4 1.5-5.9 4.1-5.1 9.4.4 2.8-.2 6.8-1.9 13.1-3.5 12.7-5.8 30.5-5.1 39.1 1.6 18.1 8.7 33.4 21.6 46.7 4.7 4.8 9.3 8.7 10.3 8.7 2.2 0 6.7-4.3 6.7-6.4 0-2.5-4.8-7.3-10.4-10.5-12.2-6.8-17.6-14.2-18.4-25-.6-8.3 1.1-12.1 6.5-14.8 4.9-2.3 7.1-7 11.1-23.5 3.4-14 6.4-21 12.1-27.8 9.5-11.3 14.9-23.1 12.2-26.4-1.9-2.2-6.3-2-9.5.5zm-609.9-.4c-1.4 1.3-.6 3.3 1.3 3.3 1.3 0 2-.7 2-2 0-1.9-2-2.7-3.3-1.3zm-12.2 8.3c-.3.5.1 1 .9 1 .9 0 1.6-.5 1.6-1 0-.6-.4-1-.9-1-.6 0-1.3.4-1.6 1zm458.9 1.5c-.4.9-.2 2.1.4 2.7 1.6 1.6 4.7.5 4.7-1.7 0-2.6-4.2-3.4-5.1-1zm29 14c-.9 2.3.3 4.5 2.5 4.5 1 0 2.1-.7 2.5-1.5.8-2.3-.4-4.5-2.5-4.5-1.1 0-2.2.7-2.5 1.5zm-583.9 3.3c-2.2.4-4.5 2.9-4.5 4.9 0 .7 1.2 1.8 2.7 2.4 2.4.9 3.1.7 5-1.6 1.3-1.4 2.3-3 2.3-3.5 0-1.4-3.2-2.7-5.5-2.2zm590.7 4.8c-3.2 2.5-3.5 4.4-.7 4.4 1.7 0 4.9-4.4 4.3-5.9-.1-.6-1.8.1-3.6 1.5zm33.3.4c-.3.5-.1 1 .4 1 .6 0 1.1-.5 1.1-1 0-.6-.2-1-.4-1-.3 0-.8.4-1.1 1zm9 5.1c-3.1 1.9-5.5 4.6-5.5 6.1 0 1.9 2.9.5 6.3-3 5.3-5.4 4.9-6.8-.8-3.1zm9.9 6c-1 1.6 1 3.1 5.5 3.9 5.5 1 6.1-.5 1.2-3-4.6-2.3-5.7-2.4-6.7-.9zm-502.8 2.4c-2 2-1 4.5 1.9 4.5 2.7 0 4-2.6 2.4-4.6-1.5-1.8-2.4-1.8-4.3.1zm-35.4 7.1c-4.5 3.2-.8 8.9 4.2 6.6 3.2-1.4 3.6-5.6.7-7.2-2.5-1.3-2.2-1.3-4.9.6zm42.2.5c-.8 1.4 1.1 3.3 2.5 2.5 1.6-1 1.3-3.6-.3-3.6-.8 0-1.8.5-2.2 1.1zm-95.9.9c.3.5.8 1 1.1 1 .2 0 .4-.5.4-1 0-.6-.5-1-1.1-1-.5 0-.7.4-.4 1zm20.1 1.5c-.7 1.8 1.6 3 4 2.1 1.3-.5 1.4-.9.4-2.1-1.6-1.9-3.6-1.9-4.4 0zm-122.5 6.7c-3.2 3.3-3.5 5.7-1.4 8.7 3 3.9 7.5 4 11.3.2 1.7-1.6 3-3.9 3-5 0-5.6-8.9-8.3-12.9-3.9zm147.4 1.3c-5.3 5.2-1.4 14 6.3 14 5 0 8.2-2.7 8.2-6.7s-1.5-6.5-5-8.3c-4.1-2.1-6.7-1.9-9.5 1z"/><path d="M849.5 749.4c-2.9 2.1-.3 4.6 4.6 4.6 4.6 0 4.9-1.1 1.3-3.9-3.2-2.5-3.4-2.5-5.9-.7zm-675.3 3.8c-1.8 1.8-1.4 4.6.7 5.3 3.8 1.2 7.3-2.3 5-5.1-1.4-1.7-4.1-1.8-5.7-.2zm12.3 4.4c-1.4 1.4-1.4 1.9-.2 3.1 1.9 1.9 4.9.6 4.5-2-.4-2.7-2.2-3.2-4.3-1.1zm14.9 6.9c-1.4 2.1-1.5 3.1-.6 5 2.3 5 11.2 2.3 11.2-3.3 0-4.5-7.9-5.8-10.6-1.7zm16 1c-.3.8-.3 1.9 0 2.4 1 1.6 3.6.1 3.6-2 0-2.2-2.8-2.6-3.6-.4zm627.3 8.2c-1.2 1.1-.8 2.3.8 2.3.8 0 1.5-.7 1.5-1.5 0-1.6-1.2-2-2.3-.8zm-612.2 2c-1.2 1.1-1.5 2.6-1.2 4.9.4 2.4 0 3.7-1.3 4.9-1.1 1-2.4 3.3-3 5.1-1.9 5.6.6 10.4 6.8 13l3.4 1.4-2.1 2.6c-1.2 1.5-2.1 3.6-2.1 4.8 0 1.1-.7 3-1.5 4-.8 1.1-1.5 3-1.5 4.2 0 3.2 4.4 8.1 8.5 9.4 2 .6 3.3 1.6 3 2.1-.4.5.1.9.9.9.9 0 1.6-.4 1.6-.8 0-.5 1.8-1.6 4-2.6 3.1-1.4 4-2.3 4.2-4.4.2-4.8-.2-6.6-2.3-8.8-1.1-1.2-1.9-2.8-1.8-3.5.5-2.5-1.1-5.6-3.6-6.9l-2.5-1.4 3.4-3.5c1.9-2 4.1-5.3 5-7.3 1.5-3.7 1.5-3.8 6-3.2 3.1.5 5.1.2 6.1-.6 2.1-1.7 6.3.4 6.7 3.3.2 1.1 1.5 2.9 3 4 2.3 1.7 3.1 1.8 5.7.8 3.8-1.6 5.5-6 3.5-9-.9-1.2-2-2.1-2.5-2.1-.6 0-2.4-1.4-4.1-3-2.9-2.9-7.1-4-8.3-2.1-.3.6-2 .4-4.1-.5-3.5-1.5-3.8-1.4-7.6 1.1-2.2 1.4-4.6 2.5-5.5 2.3-.8-.2-2.1-2.1-2.9-4.3-.7-2.2-2.1-4.5-3.1-5.2-2.4-1.9-8.8-1.6-10.8.4zm-30.1 37.8c-.9 2.3.3 4.5 2.4 4.5 2.5 0 4.6-2.5 3.8-4.5-.7-1.9-5.5-2-6.2 0z"/><path d="M256.3 819.6c-.8 2.1 1.3 4.2 2.8 2.7 1.3-1.3.5-4.3-1.1-4.3-.6 0-1.3.7-1.7 1.6zm-48.1 6.6c-1.7 1.7-1.5 5.5.4 6.2 4.8 1.9 8.4-.8 6.6-4.9-1.3-2.7-4.9-3.4-7-1.3zm48.8-.2c0 .5.5 1 1 1 .6 0 1-.5 1-1 0-.6-.4-1-1-1-.5 0-1 .4-1 1zm-142.8 1.2c-1.6 1.6-1.5 3.3.1 4.7 1.9 1.5 5-.9 4.5-3.5-.4-2.3-2.9-2.9-4.6-1.2zM158 877c0 .5.4 1 .9 1 .6 0 1.3-.5 1.6-1 .3-.6-.1-1-.9-1-.9 0-1.6.4-1.6 1zm-35.5 7c-.3.5-.2 1 .4 1 .5 0 1.3-.5 1.6-1 .3-.6.2-1-.4-1-.5 0-1.3.4-1.6 1zm145.2 2.7c-1.2 1.1-.8 2.3.8 2.3.8 0 1.5-.7 1.5-1.5 0-1.6-1.2-2-2.3-.8zm-6.7 16.4c-.8 1.5-.7 2.1.4 2.5 1.9.7 3.6-.3 3.6-2.1 0-2.2-2.9-2.6-4-.4zm711 1.9c0 1.5.5 2 1.8 1.8.9-.2 1.7-1 1.7-1.8s-.8-1.6-1.7-1.8c-1.3-.2-1.8.3-1.8 1.8zm-705.9 7.4c-2.6 3.1 1.4 7.1 4.5 4.5 2.1-1.7 1.4-5.3-1.2-5.7-1.1-.2-2.6.4-3.3 1.2zm699.4 12c-1.1.8-1.6 1.9-1.2 3 .9 2.2 4.1 1.7 4.5-.8.6-2.7-1.1-3.8-3.3-2.2zm28.6 3.2c-1.1 1.4-1.8 3.1-1.5 3.9.9 2.2 12.3 11.7 13.4 11 2.7-1.6.4-10.4-3.8-14.8-3.2-3.4-5.5-3.4-8.1-.1zM435 957.2c-1.9.5-5.6 2.5-8.1 4.3-3.2 2.3-5 3-5.7 2.3-.6-.6-1.5-.7-2.1-.4-1.4.9-1.4 4.3 0 4.8s-1.4 6.4-3.3 7c-1 .4-1 .8-.2 1.9.6.8 1.5 3.6 1.9 6.4.5 3.8 1.5 5.7 4.4 8.6 10.6 10.7 31.4 5.3 37.7-9.7 1.8-4.3 1.8-12.8 0-16.2-4.3-8.3-14.3-12-24.6-9zm492.5 10.2c-2.5 2.5-2.5 5.5.2 7.8 3.1 2.6 7.4-4.2 5.2-8.4-1.3-2.4-2.5-2.3-5.4.6zm-521.1 4.7c-1 1.7 1.3 3.6 2.7 2.2 1.2-1.2.4-3.3-1.1-3.3-.5 0-1.2.5-1.6 1.1zm-9.4 15.4c-.7.8-1.8 1.5-2.6 1.5-2.2 0-4.4 3-4.4 5.9 0 5.6 5.4 6.5 8.6 1.5.9-1.3 2.3-2.4 3-2.4 2.3 0 4-4.6 2.4-6.5-1.6-1.9-5.4-1.9-7 0zm594 5.3c-6.5 3.2-9.1 13.2-4.9 18.6 2.6 3.3 5.9 3.3 9.7.1 6.4-5.4 8.2-14.8 3.6-18.4-3.2-2.5-3.9-2.6-8.4-.3zM221 994c0 .5.4 1 .9 1 .6 0 1.3-.5 1.6-1 .3-.6-.1-1-.9-1-.9 0-1.6.4-1.6 1zm180.5 4c.3.5.8 1 1.1 1 .2 0 .4-.5.4-1 0-.6-.5-1-1.1-1-.5 0-.7.4-.4 1zm79.4 1.1c-2.6 2.6-2.1 5.9 1.2 7.8 2.4 1.3 2.9 1.3 5.3-.2 2.8-1.9 3.6-6.3 1.4-8.5-1.8-1.8-5.6-1.4-7.9.9zM390 1003c0 .5.7 1 1.6 1 .8 0 1.2-.5.9-1-.3-.6-1-1-1.6-1-.5 0-.9.4-.9 1zm65.7 9.6c-5.2 2.7-6.7 5.2-6.7 11.5 0 4.6 3.8 9.3 8.2 10.4 7.5 1.9 16.8-5.1 16.8-12.6 0-3.3-.6-4.7-3.4-7.5-1.9-1.9-4.3-3.4-5.4-3.4-1.1 0-2.6-.2-3.4-.5-.7-.2-3.5.7-6.1 2.1zm-46.5 14.4c-6.7 6.3-1.9 16.3 7 14.6 4-.7 7.8-5.4 7.8-9.5 0-6-10.1-9.5-14.8-5.1zm24.7-.1c-2 1.6-2.2 2.3-1.4 4.7.8 2.2 1.8 3 4 3.2 4.7.6 7.3-4.8 3.9-8.2-2-2.1-3.7-2-6.5.3zm-40.9.6c-1.6 1.9-.5 3.5 2.5 3.5 2.6 0 3.9-2.2 2.2-3.9-1.5-1.5-3.2-1.4-4.7.4zm363.8 3.6c-5.5 4.1-2.7 10.6 4.9 11.5 5.1.6 6.8-.7 6.8-5.5 0-7.3-5.9-10.3-11.7-6zm24.7.2c-1.8 1.4-1.8 1.5.1 8.9.4 1.7-.6 3.6-4 7.6-2.5 3-4.6 6.1-4.6 6.9 0 2.3 10.3 15.6 14.4 18.8 6 4.6 11.6 5.7 25.6 5 11.8-.6 12.8-.5 16.9 1.7 8.1 4.2 9.3 7.5 7.9 21.3-.2 2.5.1 3.1 2 3.3 2.7.4 5.1-1.3 6.3-4.5 1-2.8-1.8-14.4-6-24.4-6.9-16.4-18.3-31-29.5-37.8-11.5-6.9-24.7-10-29.1-6.8zm-468.5 1.2c-.7.8-1 2.2-.6 3 .8 2.2 4.6.1 4.6-2.5 0-2.4-2.2-2.6-4-.5zm45.7-.9c-1.4 1.4-.7 3.5 1.1 3.2.9-.2 1.7-1 1.7-1.7 0-1.6-1.8-2.5-2.8-1.5zm182.3 8.9c-1.4 1.7-.5 3.5 1.9 3.5 2.2 0 4.5-2.5 3.6-4-.9-1.5-4.1-1.2-5.5.5zm-253.5 5.5c-.3.5.1 1 .9 1 .9 0 1.6-.5 1.6-1 0-.6-.4-1-.9-1-.6 0-1.3.4-1.6 1zm359 0c-.8 1.2 2 2.4 3.5 1.5.5-.3 1-1 1-1.6 0-1.2-3.7-1.2-4.5.1zm-5.2 4.9c-7.7 3.6-9.7 12-4.1 17.3 2.9 2.7 3.8 3 8.1 2.5 6.9-.6 11.2-4.9 11.2-11.2 0-8.3-7.2-12.3-15.2-8.6zm-62.9 7.7c-2.2.8-5.6 3-7.4 4.9-2.9 3-3.4 4.3-3.8 9.3-.8 10.9 5.6 18.7 15.4 18.7 4.5 0 6-.6 12.4-5 6.8-4.7 7.7-5 13.4-5 7.3 0 13.9 2.8 23.6 10.1 9.6 7.3 12.1 11.5 13 21.5.6 7.2 1.1 8.6 3.4 10.6 2.9 2.4 4.7 2.2 8.4-1 2.8-2.6 2.8-6.8.1-9.3-1.2-1-6.9-9.1-12.7-17.8-5.9-8.9-13.3-18.7-16.6-22-13.4-13.4-35.1-20-49.2-15zm178.1 2.9c-1.7 1.6-2.5 3.5-2.5 5.7.1 10.1 16.1 22.7 22 17.3 4-3.6 1.3-12.1-6.6-20.5-5.5-5.8-9-6.5-12.9-2.5zm-431 1c-1.4 1.3-2.5 3.1-2.5 4 0 2.9 4.6 6.5 8.5 6.5 7.8 0 10.2-8 3.4-11.5-4-2.1-6.6-1.9-9.4 1zm197.8-.4c-4.2 1.2-5.9 4.2-3.7 6.3 2.9 3 10.2 1.6 12.3-2.2 2-3.7-2.7-5.9-8.6-4.1zm-62.3 8.4c-3 3.2-1.8 5.8 2.7 6.3 5.4.5 11.2-6.5 6.7-8.2-3.4-1.3-7.1-.5-9.4 1.9zm281.7 11.9c-.4.9-.2 1.8.3 2.1 1.3.8 4.1-.6 3.7-1.9-.6-1.7-3.4-1.9-4-.2zm-19.2 1.6c-.3.5-.1 1 .4 1 .6 0 1.1-.5 1.1-1 0-.6-.2-1-.4-1-.3 0-.8.4-1.1 1zm-44.8.6c-1.4 1.4-.7 3.5 1.1 3.2.9-.2 1.7-1 1.7-1.7 0-1.6-1.8-2.5-2.8-1.5zm-357.4 2.1c-2.3.9-1.5 3.5 1 3.1 1.2-.2 2.2-.9 2.2-1.7 0-1.6-1.4-2.2-3.2-1.4zm67.1 2.7c-2.4 1.8-1.1 4.8 1.8 4.4 1.4-.2 2.4-1.1 2.6-2.4.4-2.6-2-3.7-4.4-2zm172.9 15.2c-.3.8-.1 2 .5 2.6 1.6 1.6 4.2.2 4.2-2.2 0-2.4-3.8-2.8-4.7-.4zM431 1120.7c-5.3 1.9-6.9 8.9-2.8 11.7 3.6 2.5 7.6 2 11-1.4 2.4-2.5 2.9-3.6 2.3-5.8-1-4.5-5.4-6.4-10.5-4.5zm415.8 1.4c-2.9 1.6-2.3 7.3.8 9.8 3.5 2.8 6 2.6 8-.4 1.7-2.6 1.3-6.7-.8-9.2-1.2-1.5-5.6-1.6-8-.2zm-333.2 2.6c-1.2 1.2-.6 3.3.9 3.3.8 0 1.5-.6 1.5-1.4 0-1.7-1.4-2.8-2.4-1.9zm277.9 15.5c-2.7 2.1-5.5 7.3-5.5 10.3 0 2.9 4.6 6.5 8.3 6.5 4.9 0 9.7-5.8 9.7-11.7 0-3.4-.8-4.6-3.7-6.2-3.2-1.6-5.7-1.4-8.8 1.1zm-123.7 1.9c-4.2 2.4-.1 10.9 5.2 10.9 3.2 0 5-2.3 5-6.4 0-4.7-5.6-7.2-10.2-4.5zm-182.6 12.4c-5 2.6-16 13.9-16.3 16.8-.5 4.5 4.2 11.2 8.9 12.8 4.1 1.3 15.6.7 21.6-1.3 9.3-3 14.5-13.5 11.1-22.4-2.1-5.5-5.6-7.5-14-8.1-5.1-.4-6.8 0-11.3 2.2zm415 10.7c-1.6 1.6-1.5 6.3.2 7.7 1 .8 2 .6 4-1 3.6-2.8 3.3-7.3-.4-7.7-1.4-.2-3.1.3-3.8 1zm-43.5 4.5c-1.3 1.2-.7 4.3.7 4.3 1.6 0 4.6-2.6 4.6-4.1 0-1-4.3-1.2-5.3-.2zm30.3 26.7c0 .8.4 1.7.8 2 1.3.8 3.5-1.1 2.8-2.3-1-1.6-3.6-1.4-3.6.3zm10.6 9.5c-.4.7-.5 1.5-.2 1.8.9.9 1.9-.4 1.4-1.8-.4-1.1-.6-1.1-1.2 0zm-116.7 36.9c-2.9 2.4-2 5.1 1.5 4.5 3.1-.6 5-2.8 4.2-4.8-.7-2-2.9-1.9-5.7.3zm10.5 7.6c-7.9 3.5-14.4 12.3-14.4 19.3 0 7.4 5.6 11 15.7 10 10-1 15.3-6.7 15.3-16.2 0-10.5-8.1-17-16.6-13.1z"/></svg>