<svg version="1.0" xmlns="http://www.w3.org/2000/svg" width="426.667" height="426.667" viewBox="0 0 1272 1280"><path d="M1051.9 2c-4.8 2.5-7.1 5.5-27 35.2-16.2 24.1-16.8 25.2-17.4 31.3-1.1 10.3 2.1 14.5 11.4 14.5 9.2 0 18.3-5.3 32.4-18.9 21-20.2 26.7-30.9 23.3-44C1071.8 9 1064.2-.1 1057.9 0c-1.3.1-4 1-6 2zM924.5 78.9c-20.3 12.5-61.7 87.3-108 195.5-5.4 12.6-10.8 24-12 25.4l-2.2 2.5-1.5-3.9c-1.7-4.1-2.6-8.6-5.3-25.7-2.1-13.4-5.5-19.7-10.9-19.7-5.2 0-13.9 13.9-19.6 31.5-3.4 10.4-7.3 18.5-9.1 18.5-.6 0-2-2.1-3.2-4.8-1.8-3.9-2.2-6.6-2.2-15.2 0-6.2.6-12.4 1.4-15.1 2.7-8.8 0-12.1-11.8-14.3-9-1.7-15.6-5.7-14.7-8.9 1.9-6.7 3.8-43.8 3.3-65.2-.7-32.5-3.8-46.3-11.4-50.8-2.8-1.6-3.5-1.7-6.6-.4-12.9 5.4-23.8 48.2-27.6 108.3-.8 13.4-1.8 16.1-7.3 19.4-3 1.8-3.2 1.8-5.7.1-4.3-3-10.9-6.1-13.1-6.1-1.2 0-3.2 1.1-4.5 2.5-2.1 2-2.5 3.4-2.5 8.7 0 3.5.7 10.3 1.5 15.3.8 4.9 1.5 11.6 1.5 14.8 0 5.3-.3 6.2-3 8.7l-3 2.8v13.4c0 14.1-.7 20.8-2.1 20.8-1.5 0-7.5-9-13.4-20.2-3.1-6-6.8-11.6-8.1-12.4-2.2-1.5-2.7-1.5-7.1.7-3.5 1.7-5.5 3.6-7.2 6.7l-2.3 4.4-3.5-3.4c-5.9-5.7-10.1-13-12.9-22.3-6.1-20.6-8.5-21.8-22.5-11.5-7.8 5.9-12.2 7.2-13.8 4.3-.5-1.1-1.6-6-2.4-10.9-1.4-8.4-2.3-10.4-14-32.4-15.2-28.6-18.8-35.1-23.4-41.5-11.9-16.6-33.8-39.9-44.7-47.6-19.2-13.6-32-7.6-30.3 14 1.9 23.7 18.5 55.3 41 78.1 10.7 10.8 12.7 13.5 12.7 16.8 0 2.7-3.8 4.6-11.4 5.7-11.8 1.8-14 9.9-6.7 24.8 2.1 4.5 7.9 13.8 12.7 20.7 15.6 22.3 18.8 27 18.3 27.3-.2.1-2.3 1.5-4.6 3-5.1 3.2-7.7 7.7-6.8 11.7.4 1.6 3.2 5.3 6.5 8.6 6.2 6 7.9 9.8 6 13.3-1.4 2.7-4.8 3.5-9.7 2.2-6.6-1.8-12.1-6.2-16.9-13.7-7.5-11.3-13.4-16.4-19.4-16.6-3.7-.1-6.1 2-8.5 7.2-1.2 2.7-2.5 4-3.7 4-1.2 0-7.9-6-16.6-14.8-20.5-20.6-32-28.9-41.6-29.9-3.8-.5-4.5-.2-6.4 2.2-4.7 5.9-1.6 17.5 10.9 41.3 6.3 12.2 7.1 14.2 6.6 17.9-.5 4.7-3 9.3-5.1 9.3-.7 0-8.3-8.4-16.9-18.8-18.1-21.8-22.1-25.8-30.1-30.6-7.7-4.6-14.4-7.1-28.9-10.7-6.6-1.6-13.7-3.9-15.8-5-2.2-1.1-12.4-10.4-22.7-20.7-43.7-43.9-77.4-68.5-95.6-69.9-5.9-.5-6.5-.4-9.5 2.3-4.4 3.9-5 8.8-2.1 17.4 7.9 23.7 41.8 62.5 86 98.5 4.7 3.8 18.9 17.1 31.5 29.5 12.7 12.5 27.8 26.4 33.7 30.9 7.3 5.5 10.8 8.9 10.8 10.2 0 1.1-2.1 4.2-4.7 7-8.2 8.7-5.4 14.4 9.1 18.9 8.8 2.8 12.6 6.3 12.6 11.8 0 2.1-.7 4.7-1.5 5.8-4.7 6.2.5 11.4 23.5 23.7 9.1 4.9 18.8 10.5 21.5 12.5 4.5 3.3 4.8 3.7 2.7 4-4.1.6-21.8-2.7-30.9-5.7-4.8-1.6-23.8-8.1-42.1-14.5-65.5-22.9-116.5-38.1-131.4-39.3-8.7-.7-10.8.2-10.8 4.6 0 4.6 7.9 10.8 30.1 23.7 15.6 8.9 77 40.7 100.7 52 8.9 4.2 16.1 8.1 16 8.6-.2.5-3.3 3.3-6.8 6.1-3.7 3-7.3 6.9-8.4 9.1l-1.9 4 2.6 7.5c3.4 9.6 3.5 13.5.3 15.6-5.9 3.9-20.2 2.7-47.5-4-63.8-15.7-125.3-14.9-159.7 2-18.8 9.2-27.1 21.7-22.4 34 3.7 9.8 17.7 17.5 38.2 21.1 8 1.4 13.1 1.5 35.8.8 14.6-.5 35.5-.8 46.5-.8 19.9 0 20.1 0 37.8 4.2 20.9 5 29.2 6.2 40.7 6 13.2-.3 18.4 3.8 18.4 14.7 0 7.1-2.5 11.2-8.2 13.6-15.9 6.6-27.5 15.7-32 25.1-2.8 6.1-2.8 9 .1 12.4 1.8 2 3.5 2.8 7.3 3.1 5 .5 7.7-.2 31.6-8.6 9.7-3.4 28.6-5.5 39.1-4.4 5.5.6 5.7.7 4.1 2.4-3 3.3-17.7 9.7-36.2 15.8-29.2 9.7-40.8 16.2-40 22.7.5 4.3 3.8 5.6 12.8 5 7.9-.5 15.7-2.8 23-6.7 4.3-2.3 5.3-2.4 21.4-2.1 18.7.3 21.9 1 16.6 3.7-6 3.1-15.6 6.4-36.7 12.4-52.5 15.1-79.5 26.7-90.5 38.9-4.6 5.1-5.6 9.2-3.1 13.5 8.8 15.4 61.7 10.8 98.8-8.6 5.5-2.9 18.6-11.2 29-18.4 29.3-20.2 52.3-32.5 63.8-34.1 3.7-.5 3.7-.4 2.7 2.2-2.6 7-9.8 17-22.4 31.1-10.4 11.6-11.6 13.4-11.6 17.1 0 7.9 6.3 9.9 29.5 9.1l17-.6-3.5 1.8c-1.9 1.1-8.5 3.3-14.5 5.1-30.2 8.6-41.8 13.5-48 20-1.6 1.8-8.3 6.8-14.7 11.1-13.2 8.9-15.8 11.3-15.8 14.6 0 4.1 6.5 5.4 16.8 3.4 4-.8 4.2-.7 3.6 1.3-1 3-4.8 8.8-7 10.7-1.1.8-5.1 3.4-9.1 5.7-24.3 14.2-52.4 45.4-54.9 60.9-.6 3.6-.3 4.5 2.1 6.8 2.2 2.3 3.2 2.6 6.3 2.1 5.6-.9 14.5-5.8 26.7-14.7 13.7-10 16.4-12.5 18.2-16.9 2.1-4.8 6.1-10 7.9-10 2 0 1.9.4-2.6 8.5-2.2 4-4 8.6-4 10.2 0 3.9 2.8 6.3 7.2 6.3 5.4 0 12.8-6.1 33.8-28 18.1-18.9 18.5-19.2 19.1-16.3 1.5 7.3 5.1 7.3 11.9.1 8.1-8.6 6.5-3.3-8.5 27.6-5.8 12-11.7 25.6-13 30.3-7.4 25.4-1.7 47.2 10.9 41.9 4.6-1.9 9.8-9.1 16.1-22.1 5.8-12.2 11.5-20.2 20.1-28.5l5.6-5.5-.5 4.6c-.4 2.5-2.7 10.1-5.2 16.8-2.5 6.8-5 15.5-5.5 19.5-.6 3.9-2.2 15.6-3.7 26.1-3.6 25.2-3.9 50.1-.7 55.5 1.1 1.9 3.2 4.1 4.7 4.8 13.2 6.4 38.6-38.6 54.2-95.8 3.9-14.7 5.1-18 6.4-18 1.4 0 4.9 9.1 6.2 16.4 1.5 8.7 4.5 12.5 10.7 13.3 5.8.8 12.5-1.9 15.1-6 1-1.8 2.4-5.9 3.1-9.2.6-3.3 3.1-13.9 5.5-23.5s4.6-19.5 5-22c1.1-7.1 2.7-13 3.5-13 2.1 0 7 17.5 9.7 35 2.6 16.8 2.5 60.9-.1 77-1.8 11.3-1.8 11.6.1 21l2 9.5-2.3 10.8c-9.5 43.9-5.8 74.2 9.6 78.8 17 5.1 33-25.7 33-63.4v-9.8l3 3.4c6.5 7.5 12.7 6.9 16.8-1.5 2.3-4.6 4-12.8 6.1-30.2 1.8-15 6.8-22 11.7-16.2 2.7 3.1 3.9 9.7 3 17.4-1.8 16.2-1.8 19.8-.2 26.1 2 7.9 2 11.9-.1 25.5-1.4 9.4-1.5 12.8-.5 23.1 2.3 24.1 9.3 36.5 20.7 36.5 8.1 0 18.5-10.6 23.4-24 6-16.4 5.2-32.9-2.4-48.8-4.5-9.6-4.5-10.6.1-9.9 3.7.6 7 2.1 15.7 7.1 3.3 1.9 5.5 2.6 7.2 2.2 4.6-1.2 4.9-3.5 2-19.3-3.4-18.6-3.4-34.9.2-38.4 2.8-2.9 5.7-2.1 11.6 3.1 7.7 6.8 9.7 12.2 10.7 29.6.6 8.2 1.9 19.2 3 24.4 1.9 9.2 2.8 19 5 55.5 1.2 19.8 2.2 24.6 8.6 41.5 13.6 36.4 29.2 57.6 44.7 61.1 7.3 1.6 12.6 0 18.7-5.7 10.1-9.4 15.2-24.3 15.3-44.4 0-21-4.7-35.6-17.2-52.9-11.1-15.3-21.2-37.9-26.2-58.6-1-4.4-1.9-9.5-1.9-11.3v-3.2l7.8-.1c4.2 0 9.3-.5 11.2-1.2 5-1.7 5-5.1.2-17.3-8.4-21.1-15-45.9-12.8-48.1 2.5-2.5 17.1 11.4 34.2 32.7 10.2 12.6 15.2 17 22.6 19.6 11.6 4.1 19.4-.9 19-12-.3-6.6-3.2-13.8-12.8-31.7-13.2-24.7-22.1-44.4-21.2-47.1.2-.6 3.6 2.5 7.6 6.8 14.9 16.4 33.1 40.8 45 60.3 8.5 13.9 11.6 17.7 16.7 20.1 4.6 2.2 4.7 2.2 15.2-2.1 4-1.6 5.1-.8 10.3 8 4.3 7.4 20.6 26 29.6 33.7 12.1 10.4 21.6 15.2 27.6 14 14.9-3 9.4-28.3-11.4-52.4-3-3.4-3.8-5.1-3.8-8.3 0-4.4.2-4.5 8-2.4 7.4 2 12.3 1.9 15.1-.3 5.1-4.2 1.3-12.7-12.4-27.7-4.3-4.7-7.6-8.5-7.3-8.5.3 0 5 1.7 10.3 3.9 13.8 5.5 28.3 10 34.5 10.7 4.5.5 5.7.3 8.1-1.6 6.9-5.4 1.7-12.3-33.8-44.5-28.4-25.8-54.5-52.9-54.5-56.7 0-1.4 4.8-.2 24.1 6.3 9.6 3.2 18.7 5.9 20.2 5.9 2.3 0 5.7-3.1 5.7-5.2 0-.4-2.5-3.6-5.5-7.2-5-5.8-7.5-10.1-7.5-12.7 0-2 6-.7 13.6 2.9 9.3 4.6 17.8 9.9 33.3 21.1 6.3 4.5 14.5 10 18.3 12.3 19.9 11.8 59.5 23.8 78.7 23.8 9.8 0 14.4-1.3 17.5-5.1 6.1-7.2 1.7-18.7-12.4-32.9-20.9-21.1-53.1-40.4-91.7-55.1-20.6-7.8-31.3-15.2-31.3-21.7 0-3.9 3.3-4.6 17.5-3.6 7.1.4 18 .8 24.1.9 9.6 0 11.5-.3 13.3-1.9 8.1-7.3-6.3-18.3-38.8-29.6-20.6-7.2-27.1-11.4-22.6-14.7 3.7-2.6 9.2-3.5 26.5-4.2 19.2-.7 24.1-2 26.9-7.2 1.3-2.3 1.2-3-.5-6.4-2.7-5.6-11.1-10.9-30.5-19.2-19.3-8.2-29.2-14-26.6-15.4 3-1.7 17.1-2.2 31.7-.9 17.7 1.4 19.7 1.8 43 8.7 56.8 16.7 116.5 28.5 165 32.8 42.6 3.8 65-.1 65-11.4 0-17.5-68.7-47.5-204.5-89.1-49.6-15.2-69.6-22.2-68.1-23.7.3-.3 7.6 0 16.3.7 18.2 1.4 25.5.6 30.9-3.5 2.6-2 3.4-3.3 3.4-5.8 0-9.3-10.8-13.7-33.5-13.7-13 0-20.5-1-26.7-3.7-4.3-1.8-5.3-3.6-3.1-5.5 1.2-1 6.4-1.3 19.7-1.5 10-.1 20.3-.7 23.1-1.3 15.6-3.5 18.7-12.9 7.6-23.3-6.2-5.8-10.9-8.2-19.2-9.6-12.6-2.1-24.8-.6-43.5 5.4-13.2 4.2-17.1 4.5-18 1.1-1.1-4.5 0-8.8 2.7-10.9 3.9-2.9 9.5-3.6 27.9-3.7 26.3-.1 42.8-2.6 67.5-10.1 20.3-6.3 26.7-12.4 20-19.1-2.7-2.7-6.4-4.3-19.6-8.2-9.5-2.8-14.1-5.7-12.3-7.6 2-2 11.3-3.9 25.3-5 75.4-6.2 118-18.4 128.7-36.6 3.9-6.6 3-11.5-2.9-17-8.3-7.5-24.1-10.5-44.5-8.5-12.6 1.2-34.3 6.1-39.7 8.9-1.6.8-10.4 6.4-19.4 12.5-19.3 12.9-28.8 17.7-34.8 17.7-5.1 0-5.5-.6-7.7-11.5-2.8-13.8-7-19.5-14-19.5-1.4 0-10.1 3.4-19.3 7.6-17 7.7-33.3 13.8-34.3 12.7-.3-.3 6.1-6.9 14.2-14.7 8.1-7.7 15.4-15.6 16.3-17.4.9-1.9 1.5-5.1 1.3-7.4-.4-5.8-4-8.3-11.6-8.2-4.9 0-7.5.9-18.2 6.2-6.8 3.4-13.3 6.2-14.3 6.2-3 0 3.1-7.6 16.8-20.8 14.8-14.4 22.2-20 34.7-26.3 23.2-11.6 53-30.3 69.9-43.6 34.2-27.2 46.4-53.3 28.6-61.3-16.1-7.4-48.6 7.5-81.7 37.4-6.2 5.6-13.7 10.6-15.8 10.6-2.3 0-8.2-7.1-9.3-11.2-.5-2.1-2-5-3.3-6.5-2.3-2.6-2.4-2.7-9-1.7-4.2.6-6.6.7-6.6.1s4-5.2 8.9-10.2c6.7-6.9 10-11.3 12.9-17.2 5.1-10.1 11.7-17.9 23.4-27.8 5.1-4.3 15.8-14.3 23.8-22 12.1-11.8 17.3-16 30.6-24.7 20.1-13.4 24.5-17.1 33.9-28.8 18.2-22.7 27-40.3 25.1-50.2-.3-1.9-2-4.7-3.6-6.3-8.2-7.9-28.7-1.6-54.1 16.5-13.9 9.9-25.4 21.2-39.2 38.5-15.5 19.3-24 28.9-30 33.7-2.7 2.1-5.2 3.8-5.5 3.8-.4 0-.7-3.8-.7-8.5 0-7.9-.2-8.6-2.8-11.2-2.3-2.3-3.6-2.8-7.5-2.7-12.3.1-30.8 17.1-50.7 46.4-12.2 17.9-15.5 20.7-18.9 15.8-2.3-3.2-1.9-5.7 1.5-10.8 2.7-3.9 3-5.1 2.4-9-1.2-8.4-5.4-11.5-11.7-8.9-7.3 3-21.2 20.2-42.1 51.9-6.3 9.6-12.8 19.2-14.5 21.3-5.6 7-16.7 14.7-21.2 14.7-1.7 0-2-.6-2-4.1 0-5.2 4.6-18.9 10.3-31.1 2.5-5.1 9-19 14.7-30.8 48.8-102.7 71.4-172.8 58-180-2.7-1.5-5.1-1.2-8.5.9z"/><path d="M264.4 143.9c-4.8 2.9-7.6 8.3-8.2 15.6-.4 5.6-.1 7.1 2.5 12.7 1.7 3.5 4.9 8.4 7.3 11.1 6.4 7.2 34.6 29.8 41.9 33.4 11.5 6 22.1 3.7 22.1-4.7 0-1.8-3.1-9.2-7.6-18.3-11.9-23.7-19.1-34-29.6-42.3-11.3-8.9-21.7-11.6-28.4-7.5zm-250.6 125C5.9 271.5 1 278.5.2 288.7c-.9 11.3 5.4 20.1 19.3 27.1 18.8 9.3 67.2 23.3 89.2 25.7 5.3.6 7 .4 10.7-1.5 6.9-3.3 6.9-5.4.4-11.5-10.4-9.7-31-26.9-42.3-35.5-21.1-15.9-38.4-23.9-53-24.6-4.4-.2-9.2 0-10.7.5zm221.4 702.6c-11.6 6.2-25.6 16-32.2 22.5-6.2 6-13.3 18.8-14.5 25.9-1.4 8.3 3.9 11.8 12.2 8.1 14.6-6.4 29.3-23 43.7-48.9 7.3-13.2 4.9-15.2-9.2-7.6zm188.7 113.2c-10.2 5.1-29.8 27.5-38.1 43.6-5.5 10.6-4.4 21.4 3.1 31.3 9.2 12.2 22.6 12.6 27.4.7.8-2.1 2.5-8.3 3.6-13.8 3.4-15.5 8.8-33.7 14.3-48.3 2.7-7.3 4.7-14 4.4-14.8-.9-2.4-8.5-1.7-14.7 1.3zm-109.7 107c-1.1 1-4.8 6.3-8.2 11.8-8 13-15.4 23.1-25.8 35.8-9.7 11.6-11.2 14.6-11.2 21.7 0 6.7 2.9 12.3 8.2 15.7 3.5 2.4 5.2 2.8 11.2 2.8 5.9 0 7.9-.5 11.8-2.7 9.5-5.7 14.2-14.5 22.7-42.8 7.8-26.1 8.2-35 1.9-41.8-2.6-2.7-7.7-2.9-10.6-.5z"/></svg>