<svg version="1.0" xmlns="http://www.w3.org/2000/svg" width="373.333" height="373.333" viewBox="0 0 1280 1280"><path d="M773.2 208.7c-6.7 5.1-8.8 8-9.4 12.8-.6 4.9 2.3 11.7 6.2 14.5 5.9 4.2 16.2 3.8 21.1-1 2.7-2.5 2.8-2.9 1.4-4.3-1.1-1.1-1.2-1.8-.4-2.3.8-.5.6-1-.5-1.6-1.3-.7-1.5-1.3-.6-2.3.9-1.1.4-3-2.4-8.7-4.5-9.3-4.6-9.5-7.7-10.3-2-.5-3.7.2-7.7 3.2zm-83 19.3c-1 1.1-2.8 3.9-4.1 6.2l-2.3 4.3 5.1-5.3c2.9-2.9 4.9-5.7 4.6-6.2-.8-1.4-1.2-1.3-3.3 1zm29.8 0c0 .5.5 1 1 1 .6 0 1-.5 1-1 0-.6-.4-1-1-1-.5 0-1 .4-1 1zm25.7 8c1.9 11.5-.4 40.8-5.3 68.5-2.6 14.7-3.6 17.6-8 24.2-2.4 3.4-5.5 8.5-6.9 11.2-1.4 2.8-2.8 5.1-3.2 5.1-1.7 0 1.4-18.3 3.8-22.5 1-1.9 1-7.7-.1-7-.5.3-1 1.3-1 2 0 1.3-2 6.6-4.1 10.7-.5 1-.9 2.6-.9 3.6 0 1.7-3.9 5.9-5.1 5.5-.4-.1-2.1.2-3.8.7l-3.1.9.6-13.7c.5-9.8 1.2-14.9 2.5-18 1-2.3 2.2-4.2 2.6-4.2.5 0 .9-1.9.9-4.3.1-3.7 0-3.9-.8-1.7-.6 1.4-1.6 3.6-2.4 5-.8 1.4-3.1 5.8-5.1 9.7-4.4 8.6-6.2 9.3-6.2 2.5 0-5.8 2.7-19.2 4.3-21.1.8-1.1.8-1.3-.3-1-.8.3-1.9 1.9-2.5 3.7-.6 1.7-1.5 3.1-2.1 3-1.3-.3-.8-2.4 1.6-7.2 1.1-2.1 1.8-4 1.6-4.2-.2-.3-2.1 2.7-4.1 6.5-2 3.9-4.1 7.3-4.6 7.6-1.5.9-2.3-6.5-1.2-10.3.6-1.9.7-4.2.3-5.1-.5-.9-.5-4.5 0-8.1.4-3.6.6-7.3.3-8.2-.5-1.5.9-5.6 3.5-10.8.4-.8 2-2.1 3.5-2.9 2-.9 2.5-1.6 1.7-2.4-1.9-1.9-5.5 1.1-8.5 7.3-1.6 3.3-3.1 6-3.5 6-.4 0-1.4-.9-2.4-2-.9-1.1-2.3-2-3-2-.9 0-1.2-.9-.9-3 .3-2 0-3-.8-3-1 0-1-.3 0-1.5s1-1.9.2-2.7c-.7-.7-1.2-2.3-1.2-3.6 0-3.2-1.6-1.9-2.4 2-.3 1.7-1.2 3.9-1.9 4.7-.8.9-2.2 6-3.1 11.3-1.3 7-2.2 9.8-3.2 9.8-.8 0-1.7.6-2 1.4-.5 1.2-.9 1.1-2.5-.5-1-1-2.6-1.9-3.4-1.9-.8 0-1.5-.2-1.5-.5 0-1.4 4.4-9.1 11.8-20.8 4.5-7 8-12.7 7.8-12.7-.3 0-5.3 7.2-11.2 16.1-5.9 8.9-11.3 16.3-12 16.6-.7.2-2.4 2.2-3.8 4.4-1.5 2.1-3.1 3.9-3.7 3.9-1.4 0-.1-4.2 1.7-5.6 1.6-1.2 1.9-3.4.5-3.4-.5 0-1.6 1.5-2.4 3.3-.9 1.8-2.7 4.9-4.1 7-1.4 2.1-2.6 4-2.6 4.2 0 .2-3.3 6-7.2 12.9-4 6.8-8.7 15.1-10.5 18.3l-3.1 5.8-1.2-3c-1.4-3.7-9.2-16.9-10.2-17.3-.5-.2-.8-1-.8-1.8s-.7-1.4-1.5-1.4-1.5-.5-1.5-1c0-.6-.8-1-1.9-1-1 0-2.9-.8-4.2-1.8-4-3.1-6-3.4-8-1.3-2.5 2.7-3.4 15.1-1.9 27.1.6 5.2 1.3 11.4 1.5 13.7.2 2.4.6 4.7 1 5.3 1.9 3.1 6 23.2 4.7 22.7-.4-.1-2.8 2.1-5.4 4.8l-4.6 4.9-1.7-3.6c-1.3-2.6-2.8-3.9-5.6-4.8-5.8-2-8.6-.4-9.4 5.4-.4 2.5-.4 5.4 0 6.3.4 1 1.3 4.3 2.1 7.3 1.7 7 1.5 7.4-14.1 26.9-11.1 14-12.2 15.1-15.3 15.1-6 0-12.6 5-14.7 11.1-1.3 4-2.8 3.8-3.6-.3-.5-2.4-.7-2.7-.8-1-.1 2.1-.2 2.2-1.7.8-.8-.9-2.3-1.6-3.2-1.6-.8 0-2.7-1-4-2.3l-2.4-2.2 1.5 3c.8 1.6 2.1 4.2 2.8 5.8.7 1.5 2.8 3.6 4.6 4.7 2.2 1.3 3.3 2.6 3.1 3.7-.2 1-3.2 4-6.7 6.9-3.6 2.8-7.2 6.7-8 8.5-.9 1.8-2.8 4-4.3 4.8-2.6 1.5-2.7 1.4-8.6-4.7-4.8-5-6.7-6.3-10-6.8-2.3-.4-4.7-1.3-5.3-2-1.9-2.3-4-1.7-3.4.9.5 1.9-.2 2.8-3.5 5-2.3 1.5-4.6 2.7-5.1 2.7s-1.6 1.1-2.4 2.4c-1.7 2.6-1.1 5 1.9 7.6 2.8 2.3 1.8 3.7-3.1 4.4-12.9 1.7-16.3 2.3-16.9 2.9-1.5 1.5.6 1.6 8.5.7 8.1-1.1 8.3-1 10.5 1.3l2.2 2.4-3.3 2.1c-1.8 1.2-3.2 2.8-3 3.5.4 2-16.1 3.3-22.7 1.7-5.2-1.2-7.4-1.1-21.1.9-6.7 1-19.1.8-21.7-.3-2.2-1-7.1 3.7-6.6 6.2.5 2.4 8.1 2.9 11.5.7 2-1.3 3.7-1.5 9.1-.9 3.7.4 6.9.7 7.2.6.3 0 3-1 6.1-2.1 3.5-1.3 8.4-2 13.5-2.1 4.3-.1 11.6-.6 16.2-1.2 4.6-.5 8.6-.8 8.9-.5.3.3-.5 3.1-1.6 6.2-2.4 6.3-2.1 7.5 1.7 7.5 2 0 2.3.3 1.4 1.2-1 1-1.7 1-3.2 0-1.2-.7-2-.8-2-.2 0 .5-1.9 1-4.2 1.1-2.4.1-5.4.4-6.8.8-1.4.4-4.2.2-6.3-.3-3.1-.8-4-.8-4.7.4-1.6 2.5-.1 5.3 5.6 10.8 4.1 3.9 5.9 6.5 7 10.2 1.4 4.6 1.7 4.9 3.5 3.9 2.2-1.2 3.5-3.6 2.4-4.7-.3-.4-1.1.1-1.6 1.1-1.5 2.6-2.9 2-2.9-1.3 0-2.7.3-3 3.4-3 1.8 0 5.2-.6 7.4-1.4 9-3.2 18.8-3.2 16.1 0-.9 1.2-.9 1.3.2.9 1-.4 1.5.2 1.6 1.5.1 1.4-.6 2.2-2.5 2.6-1.5.4-3.3 1.1-3.9 1.6-.7.6-2 .8-2.8.4-.8-.3-1.5-.1-1.5.4 0 .6.7 1 1.6 1 1.4 0 1.4.3.4 1.5-.7.9-1.1 1.8-.8 2 .3.3 1.1-.6 1.8-2 1.3-2.5 6.6-4.7 8.4-3.7 1 .6-12.1 13.2-13.7 13.2-1.6 0-6.7 4.1-7.8 6.3-.8 1.6-.1 1.2 2.5-1.2 1.9-1.9 3.8-3.2 4.1-3 .2.3-1.8 3.9-4.4 8.1-2.7 4.2-5.5 9.2-6.2 11.2-1.1 3-1.8 3.6-4.4 3.7l-3 .1 2.6.9 2.6 1-2.2 7.6c-1.7 5.7-2.8 7.9-4.4 8.4-1.1.5-2.1 1.5-2.1 2.4 0 .8-.8 1.5-1.8 1.5-7.3 0-28.1 3.3-33.6 5.4-5.2 2-7.2 2.3-9.8 1.5-4.4-1.2-7.7-1.1-11.3.6-2.9 1.3-2.9 1.4-.7 2 1.2.4 2.2 1.1 2.2 1.5 0 1.1-13.2 4-18.2 4-2.5 0-7.1.9-10.4 2-3.2 1.1-8.4 2.2-11.4 2.5-6.6.5-7.9.7-10.7 2.3-1.2.7-5.2 1.3-8.8 1.3-3.6.1-6.8.5-7.1 1-.3.5 4.1.6 10.2.2 7.9-.4 10.5-.3 10 .5-.4.6 2.4 0 6.1-1.4 5.7-2.2 7.8-2.5 13.3-2 4.7.4 7.1.2 8.5-.8 1.1-.7 4.3-1.9 7.2-2.6 4.4-1.1 5.4-1.1 6.9.1 1.1.9 1.5.9 1 .1-1-1.6.2-1.5 1.9.2 1.2 1.2 2 1.2 5.6 0 5-1.8 11.9-5.2 11.9-6 0-1-11.3.5-12.4 1.6-.6.6-3.3 1-6.1.9l-5-.1 5.5-1.5c3-.9 11.4-3.3 18.6-5.4 7.2-2.2 14.8-4.1 17-4.4 14.3-1.7 23.9-2.4 24.5-1.8.4.5 1.2 3.2 1.8 6.2 1.1 5.4 1.1 5.5-2 8.7-1.8 1.9-3.7 3-4.8 2.7-2-.5-5 2.5-3.5 3.5 1.5 1.1 3.5 7.5 2.6 8.4-.5.5-2.6 1-4.8 1.2-2.2.1-4.9.8-6.1 1.4-1.2.7-3.2 1.3-4.5 1.3-1.3.1.2.6 3.2 1.1 4.5.7 6 .6 8.3-.8 1.9-1.1 4.1-1.4 6.3-1.1 1.9.3 3.4.2 3.4-.3s1.7-1.2 3.8-1.5c2-.4 5-.9 6.6-1.2 1.9-.3 2.6-.2 2.2.6-1 1.6 0 1.4 3.2-.6l2.7-1.7-2 2.2c-2.7 3.3-15.6 9.3-17.1 8.1-.7-.6-1.5-.4-2.3.5-.7.8-1.9 1.2-2.7.9-1.5-.5-7 2.5-6.1 3.4.3.2 1.6-.3 3-1.2 3.1-2 4.9-.1 2.1 2.1-1.8 1.4-1.8 1.4.4.4 3.6-1.8 2.8 1.6-.9 3.5-1.7.9-2.9 1.9-2.6 2.2.3.2 1.4 0 2.5-.6s3-.7 4.8-.2l2.9.8-2.8 1.2c-3.7 1.5-4.2 1.4-2.7-.4.7-.8.8-1.5.3-1.5s-3.4 2.6-6.5 5.7c-8.4 8.7-9.6 12.3-4.2 12.3 1.7 0 3.9-1.6 7.1-5 3.7-4.1 5.2-5 7.9-5 2.4 0 3.2-.4 2.8-1.4-.3-.8.5-1.5 2.3-1.9 1.5-.4 3.8-.9 5.1-1.3 2.1-.6 2.3-.4 2 2.2-.2 2.1-.9 3-2.5 3.2-1.3.2-2.3-.1-2.3-.7s-.6-1.1-1.4-1.1c-1.6 0-3 4.5-2 6.2.4.7.3.8-.4.4-.6-.4-1.8.4-2.7 1.7-.9 1.4-4.2 3.9-7.5 5.6-3.2 1.7-8.5 5.2-11.8 7.6-3.3 2.5-6.4 4.5-6.9 4.5s-2.8 1.6-5 3.5c-2.3 1.9-4.5 3.5-4.9 3.5-.9 0-11.4 7.1-11.4 7.7 0 .2.6.1 1.3-.3.6-.5-.1.7-1.6 2.5s-3.4 4.5-4.2 6c-1.2 2.5-1.2 2.7.8 2.9 1.2 0 3.8-1.1 5.7-2.7 1.9-1.5 4.5-3.3 5.7-4 1.3-.6 2.9-2.4 3.7-3.9 1.4-2.6 11.8-11.1 19.4-15.8 1.9-1.1 3.2-2.4 3-2.7-.3-.7 9-7.7 10.3-7.7 1.3 0 .3 3.4-1.2 3.8-.8.3-2.9 1.1-4.8 1.8-5.4 2.3-3 2.6 2.7.4s8.7-2.6 7.7-1c-1.2 2 .9.9 5.1-2.6 2.4-1.9 4.9-3.2 5.5-2.8.6.3 2.8-1.1 5-3.2 2.1-2.1 3.9-3.3 3.9-2.7 0 .7-.5 1.5-1 1.8-.6.4-.8 1-.5 1.6.3.5 2-.7 3.7-2.6 1.6-1.9 3.7-3.5 4.7-3.4 1.2 0 1.1.3-.6 1.6-1.3.8-2.3 2.4-2.3 3.5 0 1.4-.5 1.8-1.5 1.4-.8-.3-1.5-.1-1.5.4 0 .6-1 1-2.2 1-1.8 0-2 .2-.9.9.8.5 2.1.6 3 .3.8-.3.3.7-1.2 2.3-1.5 1.7-2.7 3.6-2.7 4.3 0 .9-.6 1.2-1.5.8-.9-.3-1.5 0-1.5.9 0 1.8-1.6 2-2.4.2-.3-.7-.5-.6-.3.3.2 1.5-6.8 9.2-7.7 8.3-.6-.7-8.1 3.3-9.6 5.2-.8 1 .3.6 2.4-.9 5-3.3 6.2-3.3 7.5.4 1.3 3.9 2.3 3.8 4.9-.8 2.3-4.1 12.6-11.6 11.5-8.4-.3.9.5.3 1.8-1.5 5.7-7.5 16.4-20.3 17.1-20.3.5 0 .8.5.8 1 0 1.4-3.7 8.7-6.1 12.2-2.1 2.9-2.4 4.3-.9 3.3.6-.3 1-.1 1 .5s-.8.9-1.8.6c-1.2-.4-3.4 1-7.2 4.9-3 3-5.9 5.5-6.5 5.5-.6 0-2.2 1.4-3.5 3.2l-2.3 3.2 4.4-3.5c2.4-1.8 6.5-5.3 9.1-7.6 2.9-2.7 5.3-4.1 6.2-3.7 1.1.4 2-.5 3.2-3.3 1.7-4 9.9-12.1 11.1-10.9.4.4-1 4-3 8.2-2 4.1-3.7 8-3.7 8.8 0 .8-1.9 4.2-4.3 7.7-5.9 8.8-9.7 15.5-9.7 17.2 0 1.9 2 2.6 4.7 1.6 2-.7 9.3-9.3 9.3-11 0-.5 1.8-2 4-3.4 2.3-1.5 5.2-4.6 7-7.7 1.6-2.9 3-4.5 3-3.6 0 1 .4 1.8.9 1.8s.7-.9.4-2c-.5-2 .9-5.6 4.7-11.5 1-1.7 1.9-3.8 1.9-4.8.1-1 .6-2.8 1.3-4 1.1-2.1 1.1-2.1 1.9-.2.6 1.4.7.6.5-2.3-.2-2.3.1-4.5.5-4.8.5-.3.9.4.9 1.5 0 2.1 1.5 2.9 2.2 1.2.2-.5 1.4-1.1 2.8-1.3 1.4-.1 3-1 3.7-1.8.9-1 1.2-1.1 1.3-.3 0 1.5-4.2 5.9-5.2 5.6-.5-.2-.8.4-.8 1.2 0 .9.6 1.2 1.5.9.8-.4 1.5-.1 1.5.6 0 .6-.9 1.4-2 1.7-2.1.6-2.8 2.3-.9 2.3.5 0 .7.4.4 1-.3.5-.1 1 .4 1 .6 0 1.1-.8 1.1-1.7 0-1.5.2-1.4 1.9.3 1 1 1.6 2.3 1.3 2.9-.3.5.3.3 1.3-.5 2-1.6 2-1.8-.2 3.7-.4 1.1-.3 1.4.5.9.8-.5 1.2.3 1.2 2.3 0 3.8 1.2 4 3.4.6 1.9-2.8 1.1-3.4-1.1-.8-1.3 1.6-1.4 1.3-.8-2.7.5-4.1 1.4-5.4 3.1-5 1.1.3 4.4-5.4 4.4-7.5 0-1.1.9-2.6 2-3.3 1.1-.7 2-2.1 2-3.2 0-2.8 1.5-2.5 2.9.6 1.3 2.8 1.1 3.3-3.7 8.6-1.8 2-2.3 3.3-1.8 5.2.5 1.9.1 3.1-1.5 4.7-1.1 1.1-1.8 2.3-1.4 2.7.3.3 1.7-.7 3-2.3 1.3-1.7 2.4-2.5 2.5-1.9 0 .6-.7 1.7-1.5 2.4s-1.5 2.5-1.5 4.1c0 1.6-1.2 4.7-2.6 6.9-1.4 2.1-2.4 4.4-2.2 5.1.4 1.2 4.8-5.3 4.8-7.1 0-.5 1.4-1.8 3-3 2.8-2 3-2 3-.3-.1 1-.7 2.9-1.5 4.3-1.8 3.2-1.8 4-.1 4 .7 0 1.9-1.5 2.7-3.3.7-1.7 1.8-3.5 2.3-3.9.7-.5.7-.8-.1-.8-1.9 0-1.6-1.5 1.2-4.8 1.3-1.6 2.2-3.1 1.9-3.4-.2-.3.3-1.1 1.2-1.9 1.5-1.2 1.6-1.1.9 1.1-.7 2.3-.7 2.4 1 1s1.8-1.3 1.1.5c-.5 1.1-.9 3.4-1 5.1-.1 2.2-1.2 4.2-3.4 6.2-1.8 1.6-3.2 3.4-3.2 3.9 0 .4.9-.3 1.9-1.6 1.3-1.8 2-2 2.3-1 .3.8 1.4-.7 2.6-3.5 2.5-5.6 2.6-6 1-5-.8.5-.9.2-.5-1 .4-1 .7-2 .7-2.2 0-.2.5-.4 1.1-.4 2.4 0 3.6 2.9 4.3 9.9.7 8-.3 10-5 10.1-3 0-4.2 1.9-7 10.2-1.2 4-2.3 6.7-2.4 6 0-1.9-1.7-.6-3.4 2.8-.8 1.7-1 2.8-.5 2.5 1.4-.9 1.1.5-1.6 8.5s-3 10-1.5 10c.6 0 1-.8 1-1.9 0-2.4 4.9-17.2 6.3-18.9 1.9-2.4 2.4.7 1 6.1-2.3 9-.9 10.7 1.6 1.9.7-2.5 1.7-4.2 2.4-3.9 1.4.4 2.9 14.9 2 19.2-.8 3.4-.6 19.4.3 27 1.3 11.7 6.6 40.1 7.6 41 .7.7.9.6.5-.1-.4-.6-1.1-4.4-1.7-8.5-.6-4.1-1.3-8.5-1.6-9.9-2.7-15.6-3.4-23.2-2.2-24.8.7-.8.7-1.2-.1-1.2-.6 0-1.1-1.1-1.1-2.5s.4-2.5.9-2.5.7.9.4 2c-.3 1.1-.1 2 .5 2 1.3 0 2.3-6.9 1.2-8.9-.5-1-.5-6.9 0-14.2 1.2-17.8 2-21.2 4.7-20.2 1.2.5 1.4.1.9-1.5-.4-1.3.1-3.7 1.3-6.1 1-2.3 1.5-3.9 1-3.5-.5.3-.9-.2-.9-1.1 0-1.1.5-1.5 1.5-1.1 1.1.4 1.5-.2 1.5-2.3 0-1.5.5-4.2 1.1-6 1.6-4.6.3-5-1.6-.6-2 4.9-2.7 4.1-1.3-1.5 1.4-5.8 2.4-7 5.9-7 2.6 0 2.9.4 3 3.2 0 3.2.1 3.2 1.1 1 .9-1.9 1.7-2.2 3.7-1.7 1.4.4 2.8.8 3 1.1.4.4-.5 4.1-3.9 15.4-2.9 9.7-7 32.1-7 38.3 0 3-.6 7-1.4 8.8-1.6 4-3 13-1.8 11.1 1.3-2 8.2-33.4 11.7-53.7 1.9-10.8 6.2-20.3 6.6-14.7.1.9.3 2.8.6 4.2 1.2 8.1 1.4 14.2.3 15.4-.7 1-.8 1.6 0 2.1 1.6 1 1.2 4.4-1.4 9.9-3.6 7.7-3.6 11.6 0 15.8 2.5 2.8 3.7 3.4 7.8 3.7 2.7.1 5.8.6 6.9 1 1.2.5 3.5.5 5.2.1 4.1-.9 7.3.4 8.5 3.5 1.4 3.7 1.2 9.2-.2 9.8-.9.3-.7.9.6 1.9 1.7 1.4 1.8 2 .8 5.9-.6 2.4-1.6 7.5-2.2 11.4-.6 3.8-1.8 9-2.6 11.5-2 6.4-3.3 14-2.4 14.5.4.3 1-1 1.2-2.8.3-1.7 2-8.6 3.7-15.2 3.9-14.2 3.9-14.4 4-17.3.1-1.2.5-2.2 1-2.2 1.5 0 7.1 6 7.1 7.6 0 .8.7 1.4 1.5 1.4s2.4 1.9 3.6 4.3c2.5 4.9 4.8 7.7 6.3 7.7.6 0 .3-.5-.7-1.1-.9-.6-3.3-4.3-5.3-8.2-1.9-4-4.8-8.6-6.3-10.2-4.4-4.7-4.8-6-3.8-12.6 1.1-6.9.8-6.7 12.3-5.5 5.6.6 11.4 3.2 11.4 5.1 0 2.1 6.5 11.7 7.3 10.9.4-.4-.7-2.2-2.3-4.1-3.7-4.2-4.1-7-.7-5.2 7 3.7 11.6 10 11.7 16 0 5-2.6 6-5.6 2.2-1.2-1.5-2.5-2.5-2.9-2.1-.7.7 1.7 9.3 3.6 13 .5 1 .9 2.3.9 2.9 0 .6 1.1 3.7 2.5 6.8 3.7 8.2 8.5 10.6 8.5 4.2 0-4 2.3-5.7 5.1-3.8 3 2.2 9.5 11.1 11.8 16.3 1.1 2.4 2.3 4.4 2.6 4.4.3 0 .2-.8-.3-1.8-.5-.9-1.7-3.5-2.7-5.7-1-2.2-2.8-5.3-3.8-6.9-1.1-1.6-3.5-7.3-5.4-12.8-3.5-10.5-3.3-13.8.6-13.8 1.1 0 2.2-.7 2.5-1.6.9-2.4-1.1-5.2-5-7.2-2.8-1.3-4.1-2.9-5.7-7.2l-2.2-5.5-4.8-.3c-2.7-.2-5.4.2-6.2.8-2 1.6-6.3-.5-8.5-4.2-1-1.8-3.3-3.9-4.9-4.6-1.7-.7-3.3-2.2-3.6-3.2-.3-1-1.7-3.5-3.1-5.6-1.4-2-3-6.3-3.6-9.6-.6-3.7-2-7.1-3.8-9.3-3.8-4.8-5.6-9.3-4.2-10.7.8-.8 1.5-.6 2.7.6.9.9 2 1.6 2.3 1.6.4 0 1.2 1 1.7 2.2 1.4 3 3.9 3.8 3 .8-1.1-3.5 2.4-2.1 4.5 1.7 2.5 4.8 4 6.3 6.1 6.3 1.1 0 1.9.4 1.9 1 0 .5-.5 1-1 1-.6 0 .4 1.8 2.1 4 3.4 4.2 8.2 7.2 10.2 6.4 1.6-.6 3.7 1.1 8.3 6.6 3.4 4.2 13.4 15.2 25.1 27.9l5.3 5.6-2.5 2.1c-2.5 2.3-2.5 6.4.1 6.4.7 0 1.7.6 2.1 1.4.4.7 3 2.3 5.6 3.4 3 1.3 4.6 2.6 4.2 3.3-1 1.6 4.5 6.9 7.2 6.9 1.6 0 2.1-.4 1.6-1.6-.3-.9-.9-1.1-1.2-.6-.7 1.2-5.1-.3-5.1-1.8 0-.5.7-1 1.5-1s1.5-.5 1.5-1c0-.6-.6-1-1.4-1-.8 0-1.8-.4-2.1-1-1.4-2.3 3.6-.7 8.5 2.6 2.8 1.9 5.8 3.3 6.5 3 .8-.3 2.3-2.3 3.4-4.4 1.8-3.6 2.4-4 7-4.6 4.8-.6 7.1-2.4 7.1-5.5 0-1.8-6.1-8.1-7.9-8.1-1 0-3.8-1.6-6.4-3.6-4.1-3.2-7.8-3.9-6.1-1.2 1.4 2.3-1.4.1-4.8-3.7-4.9-5.6-8.8-12.7-8.8-16.1 0-7.9-2.9-11.9-9-12.6-2-.2-2.9-1.3-4.5-5.8-2.7-7.3-3.8-9.1-8.9-14.9-5.1-5.8-7.4-11.4-5.6-13.6 1.8-2.1 6.3-1.8 9.4.6 1.5 1.2 3 1.8 3.4 1.5.3-.4 0-1.1-.8-1.6s-1.1-1.2-.7-1.6c.4-.4 1.3-.2 1.9.4.7.7 1.6 1.2 2.2 1.2.5 0 .2-.6-.8-1.3-1.3-1-1.5-1.8-.8-3.7.9-2.4.9-2.4 3.6 1.7 1.6 2.3 2.5 4.6 2.2 5.1-.3.6.3.8 1.4.5 1.1-.3 2-.7 2-.9 0-.2-2.5-3.1-5.5-6.4-5.7-6.2-5.6-6-5.9-16.3-.1-1.5.5-2.2 1.7-2.2.9 0 1.7.4 1.7.8-.1.4.8 1.9 2 3.4 1.1 1.4 1.8 2.8 1.5 3.1-.3.3-1.2-.3-2-1.4-1.4-1.8-1.4-1.7-.4.8.7 1.6 1.6 2.8 2.1 2.8 1.7 0 1.8-2.7.4-6.2-1.3-3.1-1.3-3.8-.1-4.8 2.4-2 4.9 4.9 5.4 14.7.1.6 1.2 2.4 2.5 4 1.3 1.5 2.7 3.9 3.1 5.3.4 1.4 1.9 3.9 3.2 5.6 1.4 1.9 2.8 5.6 3.3 8.9 1 6.2 2.2 8.3 5.6 9.5 2.3.9 3.4 4.5 3.4 11.4 0 2.2.4 4.7.9 5.5 1.3 2 .1-10.5-1.4-15-.7-2.2-.8-4.5-.3-5.9.8-2.2.9-2.2 4.9 1.4 4 3.7 5.5 4.5 15.9 8.6 8.2 3.3 9 3.4 3.8.6-2.6-1.4-4.9-3-5.3-3.6-.3-.5-1.6-1-2.7-1-2.2 0-8-3.1-11.5-6.3-1.2-1.1-3-4.2-3.9-6.9-1.1-3.4-2.8-5.8-5.6-8.1-6.7-5.3-8.7-7.8-9.4-11.4-.4-2-1.8-5.5-3.1-7.9-1.4-2.4-2.1-4.4-1.5-4.4 1.2 0 3.6 2.9 5.6 6.8.9 1.8 2.7 3.7 3.9 4.1 2.5 1 13.7 12.7 13.7 14.4 0 .7 1.9 3.2 4.2 5.7 2.6 2.9 3.1 3.2 1.4 1-1.5-1.9-3.3-4.9-4-6.5-.8-1.7-2.8-4.7-4.5-6.9-1.7-2.1-3.1-4.2-3.1-4.6 0-1.2-10.8-12-12-12-.6 0-1-.6-.8-1.3.3-.7 2.8-1.4 5.8-1.7 4.8-.4 5.7-.9 7.6-3.8 1.9-2.8 2.1-3.6 1.1-6.4-.9-2.4-2.5-3.7-7.2-5.9-3.3-1.5-7.1-3.8-8.4-5.2-2.8-3.1-4-10.7-1.6-10.7 1.9 0 1.9-1-.1-3.8-1.4-2.1-7.2-5.8-8.5-5.5-.3.1-.4-.9-.1-2.2.3-1.9 1.1-2.5 3.1-2.5 1.8 0 3.8-1.2 6.3-4 4.3-4.6 5.3-4.5 9.7 1 2.1 2.7 3.1 5 3.1 7.4 0 2.7 1.1 4.8 5 9.5 2.8 3.4 6.2 6.8 7.6 7.8 1.7 1.1 2.1 1.8 1.3 2.3-.8.5-.4 1 1 1.5 3.2 1 13.8 10.1 14.6 12.5.4 1.1 2.3 2.9 4.3 4 7 3.8 28 18.5 37.2 26.1 1.4 1.1 7.1 5.7 12.8 10.1 5.6 4.4 10.2 8.4 10.2 8.9 0 3-9.1-.5-15.7-6-7.4-6.1-17.8-12-19-10.7-.7.7 8.1 7.9 11.3 9.2 1.8.8 4.8 2.7 6.6 4.2 1.8 1.5 5.9 4.3 9.1 6.2 3.3 1.9 10.4 7.7 16 12.7 5.6 5.1 10.4 9.3 10.8 9.3 1.2 0 13 7.2 17.7 10.7 2.3 1.8 5.9 3.5 8 3.9 2 .4 7.5 2.2 12.1 4.1 5.7 2.2 10.8 3.5 15.5 3.9 8.5.6 16-.6 16.4-2.6.2-1.3-1.8-1.5-12.5-1.6-11.9-.1-13.2-.3-18.1-2.8-3-1.5-6.8-4.3-8.5-6.3-1.8-2-4.6-4.2-6.4-4.9-3.6-1.6-5.4-4.2-6.2-9.4-.5-3-1.3-3.9-6.1-6.2-3-1.5-7.7-3-10.4-3.3-7.2-.9-10.5-2.6-16.6-8.9-3-3.2-7.4-7.1-9.8-8.7-2.3-1.7-5-3.8-6-4.8-4.2-4.4-22.5-18.2-27-20.5-4.5-2.3-10.8-7.2-16-12.4-2.4-2.4-5.1-4.6-6.2-5-2.3-.9-27.6-24.6-29.8-28-.9-1.3-1.5-3.9-1.4-5.7.2-1.8-.3-3.9-1.1-4.7-1.9-1.9-4.7-6.1-4.7-7 0-1.3 6.5-.9 7.8.4.7.7 1.2.8 1.2.3 0-.4.9 0 2.1 1.1 1.5 1.4 2.2 1.5 2.8.6.4-.7 1.5-1 2.3-.7 1.8.7 2.8-2 1.7-4.5-.3-.8-1.1-3-1.7-4.8-1-3.2-1-3.2 2.2-3.2 2 0 4.9 1.2 7.7 3.1 2.4 1.7 3.3 2.1 1.9.9l-2.5-2.3 5.5.6c10.1 1.1 11.6 1.4 16 3.4 2.5 1.1 5.4 3 6.5 4.2 1.6 1.9 1.7 2.4.5 3.1-1.2.8-1 1 .8 1 1.2 0 2.2-.4 2.2-.8 0-1.4-8.4-8.9-11.5-10.3-1.6-.8-3.1-2.3-3.3-3.4-.8-4-1.8-4.3-12.7-3.7l-10.5.5v-3.9c.1-4.2 2.2-8 3.9-6.9 1.8 1.1 1.2-.7-.6-2-1.7-1.3-1.7-1.4 0-3.3 2.1-2.3.7-3.9-2-2.3-2.9 1.6-5.3-.5-5.3-4.5 0-3.5 0-3.5 3.8-2.8 2 .4 5.2 1.3 7.1 2 4.3 1.8 5.1 1.8 2.6 0-1.1-.7-4.6-1.9-7.7-2.6-5.5-1.2-5.7-1.4-5.2-3.9.4-1.4 3.8-8.6 7.6-15.9 3.8-7.4 6.8-13.6 6.5-13.8-.5-.5-12.7 21.3-12.7 22.7 0 .5-.9.9-2 .9-4.9 0-3.5-6.1 5.9-25 3.2-6.3 6.1-12.8 6.5-14.3.3-1.6 1.1-2.5 1.7-2.1.6.3.9 0 .8-.7-.1-.8.3-2.8 1.1-4.4.7-1.7 2.1-4.9 3.1-7.2s2.2-6.1 2.5-8.5c.7-4.7 3-9.8 4.3-9.8.4 0 .8-.6.8-1.3.3-9.4 1.6-14.5 5.1-19.6 3.4-5 3.7-6.2 4.1-13.3.2-4.8-.2-9-.9-10.8-1.1-2.7-1-3.3 1.2-6.2 1.3-1.8 4.5-8.9 7.2-15.8 2.6-6.8 6.3-14.6 8.2-17.2 1.8-2.6 3.4-5.4 3.4-6 0-.7-.7-.2-1.6 1-3.4 4.9-4.4 1.6-1.8-6.1 1.5-4.3 3.4-6.3 3.4-3.5 0 .6.3.9.6.6.6-.7 2.1-11.4 2.9-21.1.3-3.2 1.1-6.5 1.9-7.2.8-.8 1.2-2.4.9-3.5-.4-1.3.2-2.9 1.6-4.4 1.2-1.2 1.8-2.6 1.4-2.9-.3-.4-.1-.7.7-.7.9 0 1-.3.1-1.4-.9-1-.8-1.5.4-2 .9-.3 1.5-1.8 1.5-3.8 0-1.8 1.2-6.7 2.5-10.8 2.7-8.1 2.9-9 1.7-9-.4 0-1.3 2.3-1.9 5.1-1.2 5-2.8 7.9-4.2 7.9-.8 0-3.4-9.4-3.5-12.5-.1-1.1.3-2.3.8-2.6.4-.4.3-.9-.3-1.3s-1.3.5-1.7 2.1c-.3 1.5-1.2 4.8-1.9 7.3-.8 2.5-1.7 6.2-2.1 8.3-.3 2-1 4-1.5 4.3-.5.3-.7.9-.5 1.3 1.4 2.2-16.2 45.8-22.1 54.5-1.5 2.2-3.6 5.7-4.7 7.6-1 1.9-3 5.3-4.5 7.5-3.9 6.1-4.9 7.7-7.1 11.7-1.1 2.1-2.2 3.8-2.4 3.8-.8 0-.3-5.6.6-6.7.5-.7.8-1.6.5-2-1-1.8 1.6-15.8 5.2-27.8 1.2-3.9 2.3-8.4 2.5-10 .9-6.9 2.8-16.1 3.6-17 .4-.6 1.3-5.7 2-11.5 1.5-12.4 1.8-14.5 2-14.5.1 0 .3-1.9.4-4.1.2-2.3.6-4.6 1-5.2.3-.6.3-1.3-.2-1.6-1.1-.6-1.4-6.6-.4-6.6.8 0 1.2-10.3 1.4-30.6.1-7.7.2-8.2 2.9-10 3.4-2.3 7.7-10.1 7.2-13.1-.4-1.8-1.3-2.3-5.1-2.8-7.7-1-8.9-2.4-9.1-10.7-.1-3.1.2-3.6 1.6-3.1 1.3.5 1.5.2 1-1.1-.4-1-.7-2.4-.7-3.2 0-.8-.4-1.4-.9-1.4-.8 0-1.9 3.8-2.7 9.4-.2 1.6-.9 3.5-1.5 4.2-.6.8-.8 2.1-.5 3 .4.9.3 3.2 0 5.1-1.3 6.8-2.8 1.6-3-9.8-.1-6.1-.6-11.4-1.1-11.8-.6-.3-1.1-3.2-1.2-6.4-.1-3.6-.9-7.2-2.1-9.5-1.1-2-2-4.6-2-5.7 0-1.1-.5-2.7-1-3.5-.7-1-.8-.1-.3 3zM693 310.3c0 1-3.3 6.8-3.6 6.4-1-.9 1-6.7 2.2-6.7.8 0 1.4.2 1.4.3zm.5 11.8c-.4 1.2-1.6 1.9-3.1 1.9H688l2.2-4.1c2-4 2.2-4.1 3-1.9.5 1.3.6 3.1.3 4.1zm-1.2 6.4c-.2 3.1-4.2 21.6-4.9 22.6-1.2 2-2.2-.3-1.4-3.2.5-1.6.6-3.7.3-4.5-.3-.8 0-5.1.7-9.5 1.1-7.3 1.5-8 3.4-7.7 1.4.2 2 1 1.9 2.3zM710 342c0 .5-.5 1-1.1 1-.5 0-.7-.5-.4-1 .3-.6.8-1 1.1-1 .2 0 .4.4.4 1zm-113.8 29.2c-.7.7-1.2.8-1.2.2 0-1.4 1.2-2.6 1.9-1.9.2.3-.1 1.1-.7 1.7zm-3.2 4.7c0 .5-.7 1.4-1.5 2.1-1.6 1.4-1.8 1-.9-1.4.6-1.7 2.4-2.2 2.4-.7zm149.9 9.5c-.8 4.9-1.5 6.6-2.4 6.2-.8-.3-1.6 0-1.9.7-1 2 .2-2.6 1.9-7.3.9-2.5 1.8-5.1 2.1-5.9 1.2-3.5 1.4.3.3 6.3zm-3.9 15.1c0 .8-.4 1.5-1 1.5-.5 0-1-.7-1-1.5s.5-1.5 1-1.5c.6 0 1 .7 1 1.5zm-164 37.4c-.6 1.2-1.6 1.9-2.1 1.5-.6-.4-.4-1.3.7-2.5 2.1-2.4 2.9-1.8 1.4 1zm-5.4 6.7c-.3.9-.6 2.4-.6 3.5 0 1-.4 1.9-1 1.9-1.1 0-1.4-5.3-.3-6.3 1.2-1.3 2.5-.7 1.9.9zm-75.3 17.6c1.5 1.1 2.7 2.2 2.7 2.6 0 .4 1.4 2.2 3.1 4.1l3 3.5-3.6 1.4c-1.9.8-3.5 2.1-3.5 2.9 0 1.3-1.2 1.5-6.5 1.1-3.5-.2-6.7-.7-7-1-.3-.3.3-2.3 1.4-4.4 1.3-2.4 2.1-5.7 2.1-8.7 0-4.7 0-4.7 2.8-4.1 1.5.4 3.9 1.6 5.5 2.6zm-13.2 1.3c0 1.3-4.1 1.9-4.1.7 0-1.1 2-2.2 3.3-1.8.5.1.8.6.8 1.1zm-3.3 12.3c.3.9-.2 1.3-1.4 1-.9-.1-1.9-.9-2.2-1.6-.3-.9.2-1.3 1.4-1 .9.1 1.9.9 2.2 1.6zM736 500.7c-.7 2.1-1.6 4.2-2.1 4.7-1.2 1.3.2-6.6 1.4-8.2 1.7-2.1 2-.6.7 3.5zM472 510c0 .5-.5 1-1.1 1-.5 0-.7-.5-.4-1 .3-.6.8-1 1.1-1 .2 0 .4.4.4 1zm21 15.4c0 .2-.7.9-1.5 1.6-1.2 1-1.5 1-1.5-.4 0-.9.7-1.6 1.5-1.6s1.5.2 1.5.4zm-5 1.6c0 .5-.4 1-.9 1-.6 0-1.3-.5-1.6-1-.3-.6.1-1 .9-1 .9 0 1.6.4 1.6 1zm-.1 4.1c-.9 1.7-1.3 1.9-2 .8-1.4-2.2-1.1-2.9 1.1-2.9 1.8 0 1.9.3.9 2.1zm28.4 16.5c.8.8-3.3 8.4-4.6 8.4-.6 0-2 .9-3.2 2-2.5 2.3-5.5 1.8-5.5-1 0-1.7 4.9-6.2 9.5-8.8 2.3-1.3 2.9-1.4 3.8-.6zm8.8.5c2.4 1.2 1.6 2.9-1.4 3-1.7.1-1.8.2-.4.6.9.2 1.7.8 1.7 1.2 0 1-9.9 10.6-10.4 10-.6-.6 6.7-15.8 7.7-15.9.5 0 1.7.5 2.8 1.1zm3.9 6.9c-1.2 4.1-1.9 5-3.9 5-.9 0-3.1 1.3-4.9 2.8-2.8 2.5-3 3-1.9 5.2.7 1.4 2.3 2.6 3.5 2.8 3.9.6 2.3 1.7-2.5 1.8-2.7 0-4.7.5-4.5 1 .1.5.8.9 1.5 1 3 .3 3 .6-.2 1.9-3.7 1.6-10.1 2-10.1.6 0-.5.7-1.4 1.5-2.1 1.1-.9 1.5-.9 1.5-.1 0 .7.5.9 1.1.6.6-.4.8-1.4.5-2.2-.3-.8-.2-1.2.3-.9.4.3 1.7-1.3 2.7-3.6 1.7-3.7 13.8-16.8 15.5-16.8.4 0 .4 1.3-.1 3zm-53.4 1.4c.7.8 1.9 1.6 2.6 1.9.8.3-.6 2.2-3.7 5-4.6 4.3-7.3 5.5-8.7 4.1-.8-.7 2.1-6.4 3.2-6.4.5 0 .7-.6.4-1.4-.3-.8.5-2.1 1.8-3 2.7-1.9 2.6-1.9 4.4-.2zm23.7-.4c1.4 0 5.1 6.3 6.1 10.2 1 4.3-2.5 6-12.9 6.2-5.3 0-8.4-.3-8.1-.9.2-.6.8-.9 1.3-.8.6.1 1-1 .9-2.5-.2-4.1-2.7-3.3-5 1.5-1.7 3.6-2.4 4.1-5 4-4.7-.3-4.5-3.1.3-7.7 4.5-4.3 17.8-11.3 19.9-10.5.8.3 1.9.5 2.5.5zm-1.5 19.7c-2.1.9-3.8 2.2-3.8 2.9 0 .8-.6 1.4-1.4 1.4-.7 0-2.7.7-4.2 1.5-1.6.8-3.6 1.5-4.4 1.5-.8 0-2.2.5-3 1.1-1.1.8-.8.9 1.5.4l3-.7-2.3 2.5c-1.3 1.4-3.9 2.8-5.8 3.1-1.9.4-3.4 1.1-3.4 1.6 0 .4.9.6 2 .3s2 0 2 .6-.3 1.1-.7 1.1c-.5 0-3.8.9-7.5 1.9-5.4 1.5-6.8 1.6-6.8.5 0-.7.4-1.6 1-1.9.5-.3 2.3-3.5 4-7.1 1.8-3.6 3.9-6.8 4.8-7 .9-.3 3.5-1.4 5.7-2.4 5.8-2.8 6.2-2.8 15-2.8h8l-3.7 1.5zm-21.6.9c-2.4 1.7-3.9 1.4-2.7-.5.3-.6 1.6-1.1 2.8-1.1h2.1l-2.2 1.6zm45.6.6c-.3.7-1.8 1.4-3.4 1.6-2.8.2-2.8.2-1-1.3 2.4-1.8 4.9-2 4.4-.3zm-4.2 5.7c-1 1.1-2.4 1.7-3.2 1.4-.8-.3-2.1 0-2.9.7-1 .8-1.5.9-1.5.2s-1-.5-2.7.4c-3.5 1.8-6.3 1.8-6.3 0 0-2.5 2.5-3.5 8.9-3.5 3.4 0 6.5-.2 6.9-.5 1.5-1.6 2.3-.3.8 1.3zm-12.6 5.5c0 .3-1.3 2-3 3.8-2.7 2.9-3 3-3 1.1 0-3.7 1.1-5.3 3.6-5.3 1.3 0 2.4.2 2.4.4zm-31.6 9.6c-1.1 1.1-3.4 2.4-5.2 2.9-2.6.8-3.2.7-3.2-.6 0-1.4-.3-1.4-2 .2-2.2 2-3.4 1.6-2.4-.8.6-1.6 6.4-3.4 11.9-3.6l2.9-.1-2 2zm-4.6 6.7c-1.3 1.6-4.8 1.7-4.8.2 0-.6-.7-.9-1.5-.6-.8.4-1.7.2-2-.2-.2-.5 1.8-.8 4.5-.8 3.9.1 4.7.3 3.8 1.4zm14.2-.9c0 .5-1.8 1.6-4.1 2.5-3.4 1.3-3.9 1.4-2.9.2.7-.8 1.9-1.5 2.6-1.5.8 0 1.4-.5 1.4-1 0-.6.7-1 1.5-1s1.5.4 1.5.8zm1.4 3.1c-1.1 1-8 2.4-7 1.4.9-.9 7-3 7.5-2.6.3.2 0 .7-.5 1.2zm-22.1 9.1c2.9 1 5.4.3 8.9-2.7 1.5-1.3 1.6-1.3 1.1.6-.3 1.2-1.1 2.1-1.9 2.1-.7 0-1.6 1.1-2 2.5-.4 1.8-1.8 2.8-5.2 3.9-8.8 2.7-12.9 2.8-15.6.5-1.5-1.3-2.2-2.8-1.9-4 .7-2.5 5.2-6.1 6.6-5.2.6.3.7.1.3-.5-.3-.6.2-1.5 1.1-2.1 1.4-.8 2.2-.5 3.8 1.4 1.1 1.4 3.3 2.9 4.8 3.5zm22.7-4c0 .5-.9 1.4-1.9 2-2.5 1.3-3.8-.5-1.4-1.9 2.3-1.3 3.3-1.4 3.3-.1zm-7 3c-.8.5-1.7.7-1.9.4-.3-.3.1-.9.9-1.4.8-.5 1.7-.7 1.9-.4.3.3-.1.9-.9 1.4zm13.5 6c-.3.5-1.2 1-1.8 1-.7 0-.6-.4.3-1 1.9-1.2 2.3-1.2 1.5 0zm214 5.4c-2 3-4.5 4.1-4.5 1.9 0-1.3-.3-1.3-1.5-.3-.9.7-1.8 1-2.2.6-.3-.3-.1-.6.7-.6.9 0 1-.3.1-1.4-1.4-1.7-.5-2.1 5.2-2.5l3.8-.2-1.6 2.5zm-8.2 9.1c-.4 1.1-1.1.6-2.4-2-2.6-4.7-2.3-5.6.6-2.2 1.4 1.5 2.2 3.4 1.8 4.2zM478 631.9c1.5 2.9 1.4 3-3.6 5.1-5.7 2.5-8.2 2.7-6.4.5.7-.8 1.7-1.2 2.3-.8.6.3.7.1.3-.5-.8-1.3 3.2-6.2 5-6.2.8 0 1.8.9 2.4 1.9zm214.4 1.4c-.3.9-1 1.7-1.5 1.7-1.1 0-1.2-3.4-.2-4.3 1.1-1.2 2.4.8 1.7 2.6zM461 633c-.8.5-1 1-.5 1 1.4.1-9.7 6.9-11.2 7-2.1 0-1.5-1.7 1.4-3.9 1.5-1.2 3.4-1.9 4.4-1.6 1.2.4 2.2-.1 2.9-1.5.6-1.1 1.8-2 2.8-2 1.5 0 1.5.2.2 1zm7.1.4c1.6-1 1 .9-1.7 4.7-3.1 4.5-8.1 7-9.5 4.8-.7-1.1-.9-1-.9.4 0 1.3-.6 1.7-2.2 1.5-3.5-.5-3.2-2.5.6-3.8 1.9-.6 5.4-2.8 7.8-5 2.4-2.1 4.5-3.4 4.6-2.9.2.5.8.7 1.3.3zm21.4 5.6c-1.6 1.6-3.4 3-3.9 3-.6 0-.4-.6.5-1.3.9-.7 1.4-1.8 1.1-2.6-.3-1 0-1.2 1.1-.8.9.3 1.9.2 2.2-.3.4-.6.9-1 1.2-1 .4 0-.6 1.3-2.2 3zm-9.1-.1c.3.5-1 1.1-2.9 1.3-1.9.2-3.5.1-3.5-.3 0-1.6 5.5-2.5 6.4-1zm-16.3 5.5c-1.4 1.7-4.9 2.7-5.6 1.6-.3-.5.7-1.3 2.2-1.8 3.9-1.5 4.7-1.4 3.4.2zm10.6-.8c-.3.3-1.2.4-1.9.1-.8-.3-.5-.6.6-.6 1.1-.1 1.7.2 1.3.5zm8.3.9c0 .9-.8 1.8-1.7 2.1-1 .3-2.6 1-3.5 1.5-3.3 1.7-3.2.9.2-2.1 4-3.3 5-3.6 5-1.5zm224-.5c0 .5-.4 1-1 1-.5 0-1-.5-1-1 0-.6.5-1 1-1 .6 0 1 .4 1 1zm-171.3 3.2c-.3.7-.5.2-.5-1.2s.2-1.9.5-1.3c.2.7.2 1.9 0 2.5zm4.4-1.7c1.1-.7 0 2.3-1.8 5-1.3 1.9-1.3 1.9-1.3 0 0-3 1.3-7.1 1.8-5.7.2.7.8 1 1.3.7zm-85.1 2.1c-5.6 1.9-9.3 4.1-11.5 7-1.7 2.2-3.4 3.4-5.1 3.4-3.3 0-3-1 1.6-5.5 2.5-2.4 5-3.9 7.1-4.2 1.8-.2 3.5-.5 3.7-.8.3-.3 1.7-.5 3.1-.4 1.4 0 1.9.3 1.1.5zm15 .1c0 .5-1.2 1.6-2.5 2.6-2.3 1.7-2.6 1.7-3.2.2-.3-1 0-2.1.8-2.6 1.7-1.1 4.9-1.2 4.9-.2zm31 2.8c-.7.9-1.5 1.3-1.8 1-.3-.2.1-1.1.8-2 .7-.9 1.5-1.3 1.8-1 .3.2-.1 1.1-.8 2zm32-.9c0 .8-.4 1.2-1 .9-.5-.3-1-1-1-1.6 0-.5.5-.9 1-.9.6 0 1 .7 1 1.6zm-58.4 2.3c-1.9 2.1-7.6 4.5-7.6 3.3 0-1.3 5.1-4.2 8.9-5.1.2-.1-.4.8-1.3 1.8zm14 4.6c-1.1.8-2.2 1.2-2.5.9-.6-.6 1.9-2.4 3.4-2.4.6.1.1.7-.9 1.5zm47.4 2.1c0 .8-.5 1.2-1 .9-.6-.4-.8-1.1-.5-1.6.9-1.4 1.5-1.1 1.5.7zm-98.8 1.6c-1.2 1.2-3.5.1-2.7-1.2.3-.5 1.3-.6 2.1-.3 1 .4 1.2.9.6 1.5zm92.3.6c-.8.8-2.5-1-1.9-2 .4-.6.9-.5 1.5.3.4.7.6 1.5.4 1.7zm19.1-.2c-.4 1.4-.3 2.3.2 2 .4-.2 1.4-.1 2.1.3.9.6.7 1-.8 1.4-1.1.3-2.2-.1-2.5-.8-.5-1.4.3-5.5 1.1-5.5.3 0 .2 1.2-.1 2.6zM462 660c0 .5-.5 1-1.1 1-.5 0-.7-.5-.4-1 .3-.6.8-1 1.1-1 .2 0 .4.4.4 1zm33.9 2.8c-1.5 2.4-5.9 5.5-5.9 4.2 0-.6.7-1.3 1.5-1.6.8-.4 1.2-1 .9-1.5-.2-.5 0-1.8.6-2.9.9-1.7 1.4-1.9 2.5-1 1 .9 1.1 1.6.4 2.8zm211-1.4c1.2 1.4.5 4.6-1 4.6-1.2 0-3.9-4.2-3.3-5.2.8-1.2 3-1 4.3.6zm-177.5 2.1c.3.8.1 1.5-.4 1.5-.6 0-1-.7-1-1.5s.2-1.5.4-1.5.6.7 1 1.5zm-24.5 10.6c-.5 1-.6 2.6-.3 3.6.4 1.3.3 1.4-.4.5-.7-1.1-1-1.1-1.5.2-.3.8-.1 1.6.5 1.8.7.3.4 1.2-.8 2.4-1 1-2.4 3.1-3.1 4.6-1.4 3.1-5.3 5.7-5.3 3.5 0-.7 1.1-2.4 2.5-3.7 1.4-1.3 2.5-2.7 2.5-3.2s-1.1-.1-2.5.8c-3.4 2.2-3.1 1 .9-3.9 1.8-2.3 4.1-5.7 5.1-7.6 1.2-2.5 1.9-3 2.5-2 .5.7.4 2.1-.1 3zm152.9 6c2.3 3.5 3 5.5 2.4 6.1-.7.7-1.6-.1-2.6-2.6-.8-2-2-3.6-2.7-3.6-.8 0-.7.6.3 1.7 2.1 2.5 2.8 6.1 1.3 6.7-1.3.4-4.2-2.3-8.3-7.8-2.7-3.5-1.5-5.6 3.2-5.6 2.6 0 3.6.8 6.4 5.1zm5.2 1.3c0 .8.3 2.3.7 3.3.6 1.6.5 1.6-1 .4-1.8-1.5-2.3-5.1-.7-5.1.6 0 1 .6 1 1.4zm-15 1.6c0 .4 1.2 2 2.6 3.5 1.8 1.9 2.2 3.1 1.5 3.8-.7.7-1.8.2-3.6-1.7-1.4-1.5-2.5-3.1-2.5-3.6 0-.4-.3-1.6-.6-2.4-.5-1.2-.2-1.5 1-1 .9.3 1.6 1 1.6 1.4zm-22.3 28.9c3.5 6.8 4.7 12.5 1.8 8.6-1.1-1.4-2.6-1.9-5.5-1.8-2.2.1-4-.2-4-.7 0-.5-1.1-2-2.4-3.4-2.5-2.4-2.5-2.4-.4-2.9 1.8-.5 1.9-.8.8-2.1-1.8-2.2.5-4.8 3.8-4.4 2 .2 3.3 1.7 5.9 6.7zm-16.7 3.6c1 2.6.4 5.5-1.1 5.5-.5 0-.9-1.8-.9-4 0-4.6.6-5.1 2-1.5zm-4.2 2.9c.3 3.2.1 3.7-1.5 3.4-1.9-.3-2.9-3.8-1.9-6.5 1-2.6 3.1-.8 3.4 3.1z"/><path d="M502.5 564.1c-.4.6-.5 1.2-.2 1.5.2.3.7-.2 1-1.1.7-1.7.1-2-.8-.4zM798 232.6c0 .5.7 1.9 1.5 3 .8 1 1.5 1.4 1.5.8 0-.5-.7-1.9-1.5-3-.8-1-1.5-1.4-1.5-.8zm41 10c0 .8.5 1.2 1 .9.6-.4.8-1.1.5-1.6-.9-1.4-1.5-1.1-1.5.7zM525 247c0 .5.5 1 1.1 1 .5 0 .7-.5.4-1-.3-.6-.8-1-1.1-1-.2 0-.4.4-.4 1zm273.4 2.5c-.1 1.4.2 2.5.6 2.5 1.1 0 2.1-3 1.4-4.1-1-1.6-1.9-.9-2 1.6zm-147.7 20.2c-.4.3-.7 1.1-.7 1.7 0 .6.5.5 1.2-.2.6-.6.9-1.4.7-1.7-.3-.3-.9-.2-1.2.2zm68.3 12.2c0 1.7-.2 2.3-1.7 6-.8 1.8-1.2 3.5-1 3.7.2.3 1.3-1.8 2.5-4.6s1.7-5.2 1.1-5.5c-.5-.4-.9-.1-.9.4zm-460 37.2c0 .5.5.7 1 .4.6-.3 1-.8 1-1.1 0-.2-.4-.4-1-.4-.5 0-1 .5-1 1.1zm158 4.9c0 .5.5 1 1 1 .6 0 1-.5 1-1 0-.6-.4-1-1-1-.5 0-1 .4-1 1zm376.3 2.5c0 2.2.2 3 .4 1.7.2-1.2.2-3 0-4-.3-.9-.5.1-.4 2.3zM455 346c0 .5.4 1 .9 1 .6 0 1.3-.5 1.6-1 .3-.6-.1-1-.9-1-.9 0-1.6.4-1.6 1zm43.5 21.7l-1.8 2.8 2.5-2.3c2.8-2.5 8.8-3 12.8-.9 4.6 2.4 6 2.7 6 1.3 0-2-5.4-3.6-12-3.6-5.2 0-5.9.3-7.5 2.7zm-264.2 15.9c-.1 2.3.4 3.4 1.3 3.4 1.8 0 1.9-5.6.1-6.3-.9-.3-1.3.6-1.4 2.9zm.4 5c-.4.4-.7 1.6-.7 2.6 0 1.8.1 1.8 1.6.3 1.1-1 1.3-2 .7-2.6-.5-.5-1.2-.6-1.6-.3zm263 6.4c.6 4.6 1.3 6.6 1.3 3.7 0-1 .5-1.7 1.2-1.7s.6-.6-.4-1.8c-.9-.9-1.8-2.4-2.1-3.2-.3-.8-.3.5 0 3zm-98.2 5c-.3.5-.1 1 .4 1 .6 0 1.1-.5 1.1-1 0-.6-.2-1-.4-1-.3 0-.8.4-1.1 1zm98.6 4.6c0 1.1.3 1.4.6.6.3-.7.2-1.6-.1-1.9-.3-.4-.6.2-.5 1.3zm.9 3c0 .6.7 1.9 1.6 3 1.4 1.8 1.4 1.8.3-.6-1.4-3.1-1.9-3.6-1.9-2.4zm5 9.4c.6 1.1 1.3 2 1.6 2 .2 0 0-.9-.6-2s-1.3-2-1.6-2c-.2 0 0 .9.6 2zm26 0c0 .5.5 1 1 1 .6 0 1-.5 1-1 0-.6-.4-1-1-1-.5 0-1 .4-1 1zm-103.2 3.7c.7.3 1.6.2 1.9-.1.4-.3-.2-.6-1.3-.5-1.1 0-1.4.3-.6.6zm85.2 15.8c0 1.2 3.2 6.7 3.6 6.2.7-.6-1.3-5.4-2.5-6.2-.6-.3-1.1-.3-1.1 0zm-5.4 11.2c-1.2 1.2-.6 3.3.9 3.3.8 0 1.5-.6 1.5-1.4 0-1.7-1.4-2.8-2.4-1.9zm14.4.3c0 .5.5 1 1.1 1 .5 0 .7-.5.4-1-.3-.6-.8-1-1.1-1-.2 0-.4.4-.4 1zm-20 4c0 .5.5 1 1 1 .6 0 1-.5 1-1 0-.6-.4-1-1-1-.5 0-1 .4-1 1zm341 64c0 .5.5 1 1.1 1 .5 0 .7-.5.4-1-.3-.6-.8-1-1.1-1-.2 0-.4.4-.4 1zm-530.2 20.7c.7.3 1.6.2 1.9-.1.4-.3-.2-.6-1.3-.5-1.1 0-1.4.3-.6.6zM856 538c0 .5.5 1 1.1 1 .5 0 .7-.5.4-1-.3-.6-.8-1-1.1-1-.2 0-.4.4-.4 1zm-416.9 1.2c-.1.9.6 2.4 1.5 3.2 2.1 2.2 3.1 2 1.2-.2-.9-.9-1.8-2.4-2.1-3.2-.4-1.2-.6-1.2-.6.2zm454.4 1.8c-2.7 1-4.8 3.6-4 5 .9 1.4 6.8 1.3 8.3-.2 2.8-2.8-.4-6.3-4.3-4.8zM441 548.4c0 .9.7 1.6 1.6 1.6 1.7 0 1.4-2.2-.4-2.8-.7-.2-1.2.3-1.2 1.2zm-55.5 3.6c-.8 1.3.5 1.3 2.5 0 1.3-.8 1.3-1-.2-1-.9 0-2 .4-2.3 1zm-150.8.9c-4.1.6-5.5 2.4-2.2 2.8 1.1.2 3.1-.6 4.5-1.7s2.3-1.9 2-1.8c-.3 0-2.2.4-4.3.7zM390 554c-2.3.7-2.3.8-.3.9 1.2.1 2.5-.4 2.8-.9.3-.6.5-1 .3-.9-.2.1-1.4.5-2.8.9zm426.2 5.8c-2.7.4-7.2 6.1-7.2 9.2 0 3.1 3.5 8.4 6.4 9.8 4.5 2 9.8-.7 12.2-6.5 2-4.6.2-8.8-4.4-11-4.6-2.1-4.3-2-7-1.5zm-422.7 4.7c-1.6.7-2.3 1.4-1.4 1.4.8.1 2.4-.6 3.5-1.4 2.4-1.8 1.8-1.8-2.1 0zm-13 25.5c.3.5.8 1 1.1 1 .2 0 .4-.5.4-1 0-.6-.5-1-1.1-1-.5 0-.7.4-.4 1zm375.1.5c-.3.8-.1 1.5.3 1.5.5 0 1.1-.7 1.5-1.5.3-.8.1-1.5-.3-1.5-.5 0-1.1.7-1.5 1.5zM424.5 602c-.3.5-.2 1 .4 1 .5 0 1.3-.5 1.6-1 .3-.6.2-1-.4-1-.5 0-1.3.4-1.6 1zm17.8 1.4c.9 2.2-7.4 5.8-13.9 6.1-6.7.3-8.9 1.9-5.1 3.6 1.9.9 3 .9 3.9.1.8-.6 3.5-1.8 6.2-2.7 3.7-1.3 5.1-1.4 5.6-.5.5.9.9.9 1.4.1.4-.6.1-1.1-.6-1.1-.7-.1.2-.7 2.1-1.5 2.3-1.1 3.1-2 2.7-3.1-.3-.9-.6-1.8-.6-2 0-.2-.5-.4-1.1-.4-.6 0-.9.6-.6 1.4zM414 608c0 1.2.8 1.2 3.5 0 1.8-.8 1.7-.9-.7-.9-1.6-.1-2.8.3-2.8.9zm412 6.5c0 .9.9 3.4 2 5.7 1 2.2 2.6 6.3 3.4 9.2 1.2 4 2.5 6 5.6 8.5 2.3 1.8 4.4 3 4.8 2.7 1.1-1.1-1.8-10-4.2-12.6-1.2-1.4-4-5.1-6.1-8.3-4.4-6.5-5.5-7.6-5.5-5.2zM400.5 617c.3.5.8 1 1.1 1 .2 0 .4-.5.4-1 0-.6-.5-1-1.1-1-.5 0-.7.4-.4 1zm-38 5c-.3.5-.1 1 .4 1 .6 0 1.1-.5 1.1-1 0-.6-.2-1-.4-1-.3 0-.8.4-1.1 1zm391.5-.6c0 .2.7.7 1.6 1 .8.3 1.2.2.9-.4-.6-1-2.5-1.4-2.5-.6zm5 2c0 .2.7.7 1.6 1 .8.3 1.2.2.9-.4-.6-1-2.5-1.4-2.5-.6zM234 627c-.9.6-1 1-.3 1 .6 0 1.5-.5 1.8-1 .8-1.2.4-1.2-1.5 0zm-3.5 1c-.3.5-.1 1 .4 1 .6 0 1.1-.5 1.1-1 0-.6-.2-1-.4-1-.3 0-.8.4-1.1 1zm104.5 2.5c-1.9.7-7.3 2.7-11.9 4.4-4.6 1.7-9 4-9.8 5.1-.8 1.1-3.1 2.9-5.1 4.1-2 1.1-2.8 1.7-1.7 1.3 1.1-.3 4-.8 6.5-1 3.4-.4 5.1-1.2 7.2-3.4 1.5-1.7 3.2-3 3.8-3 1.9 0 16-7.1 16-8 0-1.2-.7-1.2-5 .5zm45.1 7.1c-8.8 4.6-9.2 6.1-.6 2.1 4.5-2.1 5.3-2.2 8.2-1.1 2.8 1.2 3.4 1.1 5.6-.6 1.4-1.1 3.2-2 4.1-2 3.1 0 1.5-1.7-2.1-2.4-5.6-.9-6-.7-15.2 4zm-183.5 2.5c-6.7 2.5-8.2 4.3-2.2 2.5 2.7-.8 5.6-2.2 6.5-3.1 1.8-1.8 1.9-1.8-4.3.6zm153-.6c-1.1.8-3 1.5-4.3 1.5-2.4 0-4.3 2.6-4.3 5.9 0 1.6.6 2.1 2.8 2.1 2.3 0 3.4-1 6.4-5.5 3.5-5.4 3.3-6.9-.6-4zm55.3 9.1c-2.1 2.4-2.2 2.6-.3 1.6 2.5-1.3 5-4.2 3.7-4.2-.5 0-2 1.2-3.4 2.6zM416 650c-1.3.8-1.2 1 .3 1 .9 0 1.7-.5 1.7-1 0-1.2-.1-1.2-2 0zm300 .8c0 .5.7 1.5 1.5 2.2.8.7 1.5.8 1.5.2 0-.5-.7-1.5-1.5-2.2-.8-.7-1.5-.8-1.5-.2zm-288 1.7c-.7.8-1.8 1.4-2.4 1.4-.6-.1-1.9.1-3 .6-1.7.7-1.7.9.5 2.1 4 2.2 5.3 1.5 5.7-3 0-.5.6-1.3 1.4-1.7.8-.5.9-.9.2-.9-.6 0-1.7.7-2.4 1.5zm280.6 0c.4.8 1 1.5 1.5 1.5.4 0 .6-.7.3-1.5-.4-.8-1-1.5-1.5-1.5-.4 0-.6.7-.3 1.5zm-482.1.2c-1.1.3-2.8 1.4-3.8 2.4-1.8 1.9-1.8 2 1 1.3 1.5-.3 3.7-1.5 4.8-2.5 2-1.9 1.7-2.1-2-1.2zm173.1.8c-1.1.8-1.7 1.7-1.4 2 .2.3 1.3-.4 2.3-1.5 2.1-2.3 1.8-2.5-.9-.5zm322.9 0c1.1.9 2.9 2.3 4 3.2 3.5 3 11.7 8.5 12.1 8.1.2-.2-1.9-2.1-4.6-4.1-5.3-4-6.5-6.2-2.7-5.3 1.3.3.9 0-.8-.8-1.6-.7-4.6-1.6-6.5-1.9-3.3-.6-3.4-.6-1.5.8zm-375.3 3.8c-3.6 3.7-11.7 7-17.6 7.2-3.5.1-6.6 2.3-6.6 4.7 0 1.4 4.8 2 7 .8 1.1-.6 7.6-1.4 14.4-1.7 12.9-.6 15.1 0 12.5 3.5-.7.9.2.3 2-1.3l3.2-3-14.2-.5-14.2-.5 6.6-2.9c4.9-2.1 7.2-3.8 8.6-6.2 1.1-1.9 1.9-3.4 1.8-3.4-.2 0-1.7 1.5-3.5 3.3zm58.8-.8c0 .9-.7 1.8-1.5 2.1-2.3.9-1.8 2.2.8 1.7 1.5-.3 2.2-1.2 2.3-2.9.1-1.3-.2-2.4-.7-2.4-.5 0-.9.7-.9 1.5zm8 .5c0 .5.9.9 2 .7 3.1-.5 3.6-1.7.7-1.7-1.5 0-2.7.4-2.7 1zm-4 1c0 .5.7 1 1.6 1 .8 0 1.2-.5.9-1-.3-.6-1-1-1.6-1-.5 0-.9.4-.9 1z"/><path d="M356.3 659c-1.3.5-2.3 1.4-2.3 2 0 1.6 1.5 1.2 3.5-1s2-2.3-1.2-1zm368.7 0c0 .5.5 1 1 1 .6 0 1-.5 1-1 0-.6-.4-1-1-1-.5 0-1 .4-1 1zm-336.5 3.8c-1.6.8-3.6 2.3-4.2 3.3-.7.9-2.9 2.7-4.9 3.9-1.9 1.2-3.3 2.4-3 2.7.7.7 10.7-6 13.5-9.1 2.8-2.9 2.7-3-1.4-.8zm126.5 1.3c0 1.1.4 1.8 1 1.4.5-.3.7-1.2.3-2-.7-2.1-1.3-1.9-1.3.6zm-47.1 6.6l-2.4 2.8 2.8-2.4c2.5-2.3 3.2-3.1 2.4-3.1-.2 0-1.4 1.2-2.8 2.7zm45.6-.7c-.3 1.1-1 2-1.5 2-.4 0-1 .9-1.3 2-.8 3.1 1.1 2.4 2.8-1 1.5-3 3.5-3.3 3.5-.5 0 .8.4 1.6.9 1.9 1.1.7.2-3.4-1.2-5.2-1.4-1.7-2.5-1.5-3.2.8zm-49 .1c-.4.5-1.8 1.5-3.3 2-1.7.7-2.2 1.3-1.5 2 .7.7 2 .1 4.1-2 1.7-1.7 2.7-3.1 2.2-3.1s-1.2.5-1.5 1.1zm382.5.4c0 .9.5 1.5 1.1 1.3.6-.2 1.1-.8 1.1-1.3s-.5-1.1-1.1-1.3c-.6-.2-1.1.4-1.1 1.3zm-572 1.6c0 .5.5.7 1 .4.6-.3 1-.8 1-1.1 0-.2-.4-.4-1-.4-.5 0-1 .5-1 1.1zm-25 4c0 .5.5.7 1 .4.6-.3 1-.8 1-1.1 0-.2-.4-.4-1-.4-.5 0-1 .5-1 1.1zm114 2.5c-3 3.4-3.5 5.9-.8 3.6 1.5-1.2 5.2-7.2 4.5-7.2-.3 0-1.9 1.6-3.7 3.6zm7.1-.3c-.7 1.7-2.6 3.4-5.5 4.8-3.1 1.4-4.4 2.6-4.3 3.9.1 1.7.3 1.7 1.7.6.8-.7 2.2-1.1 3-.9 1.2.4 1.2.3.2-.5-1-.7-.2-1.6 3.2-3.8 5-3.1 5-3.2 3.6-5.4-.7-1.1-1.1-.9-1.9 1.3zm-54.1-.2c0 .5.5.7 1 .4.6-.3 1-.8 1-1.1 0-.2-.4-.4-1-.4-.5 0-1 .5-1 1.1zm202-.9c0 .4.5 1.8 1.1 3.2.7 1.4.8 3.3.4 4.3-.8 2-1.7 11.3-1.1 11.3.6 0 3.6-9.6 3.6-11.4 0-.9-.9-3-2-4.8-1.1-1.8-2-3-2-2.6zM416.5 679c-.3.5-.1 1 .4 1 .6 0 1.1-.5 1.1-1 0-.6-.2-1-.4-1-.3 0-.8.4-1.1 1zM258 681.1c0 .5.5.7 1 .4.6-.3 1-.8 1-1.1 0-.2-.4-.4-1-.4-.5 0-1 .5-1 1.1zm149.8 3.2c-3.1 2.3-9 6.3-13.2 8.9-4.2 2.6-7.6 5.2-7.6 5.9 0 .6 1.5 0 3.4-1.5 1.9-1.4 3.7-2.6 4-2.6.7 0 20.6-14 20.6-14.6 0-1-1.9 0-7.2 3.9zm33.6-2.1l-1.9 2.3 2.3-1.9c2.1-1.8 2.7-2.6 1.9-2.6-.2 0-1.2 1-2.3 2.2zm38.3 3.7c-2.1 2.2-3.3 4.1-2.8 4.3.6.1-.2 3-1.9 6.3-1.6 3.3-3.2 7.6-3.5 9.5-.5 2.9-.3 2.7 1.3-1.5 3-7.7 6.9-14.9 9.2-17 1.2-1.1 2.6-2.8 3.1-3.7 1.7-3.2-1.4-2-5.4 2.1zm32-2.3c-.4 1.1-3.2 4.6-6.3 7.7-3 3.2-5.2 5.7-4.8 5.7.3 0 .1.6-.6 1.4-.6.8-1.7 1.3-2.4 1-.7-.3-2.1.6-3.2 1.8l-1.9 2.3 2.3-1.9c1.2-1.1 2.5-1.6 3-1.2.4.4 0 1.3-.9 1.9-.8.7-2.4 2.5-3.4 4.2l-1.8 3 2.4-2.7c1.3-1.4 4.1-4.7 6.3-7.3 2.2-2.7 4.4-4.4 5.2-4.1.7.3 1.6.1 1.9-.4.3-.4-.1-1-.7-1.3-.9-.3.1-1.9 2.5-4.5 2.4-2.5 3.7-4.7 3.5-5.8-.4-1.8-.5-1.7-1.1.2zm239.3 1.2c0 1 10.9 7.6 11.6 7 .3-.3-8.8-6.7-10.8-7.6-.5-.2-.8.1-.8.6zm-50.9 2.4c-.1 1.6.4 2.8.9 2.8 1.2 0 1.2-.8 0-3.5-.8-1.8-.9-1.7-.9.7zM902 687c0 .5.5 1 1 1 .6 0 1-.5 1-1 0-.6-.4-1-1-1-.5 0-1 .4-1 1zm-400.4 3.1c-1.4 1.7-2.6 3.5-2.6 4.1 0 1.4.3 1.1 3.4-3.5 3.1-4.5 2.7-4.8-.8-.6zm10.4-.1c0 .5.5 1 1 1 .6 0 1-.5 1-1 0-.6-.4-1-1-1-.5 0-1 .4-1 1zm17.2 1c-2.3 2.1-2.9 4-1.3 4 1 0 4.5-5 3.9-5.6-.3-.2-1.4.5-2.6 1.6zm-176.7 2c-1.1.5-3.6.9-5.4.9-2.6.1-3.2.4-2.4 1.2.9.9 2.3.9 5.8-.1 2.5-.7 4.8-1.7 5.1-2.1.6-1.1-.4-1-3.1.1zm162.1.7c-.6 1.4-.5 1.5.5.6.7-.7 1-1.5.7-1.8-.3-.3-.9.2-1.2 1.2zm63 3.7c-.9 3-1.6 5.9-1.6 6.5 0 .6-.4 1.1-.9 1.1s-.7 1.8-.4 4c.4 2.9 0 4.8-1.5 7.5-1.4 2.3-2 4.5-1.6 6.3.8 3.8-1.3 11.2-3.1 11.2-.8 0-1.5.5-1.5 1.1 0 .7.9.9 2.3.5 1.2-.3 2.6-.6 3.1-.6.4 0 .6-1 .3-2.2-.3-1.2.2-4.7 1.2-7.7 1-3.1 2.1-7.9 2.5-10.8.4-2.8 1.5-7.6 2.5-10.6 1.1-3.1 1.7-6.5 1.4-7.6-.3-1.2-.1-2.1.6-2.1.6 0 1.1-.5 1.1-1 0-.6-.6-1-1.4-1-.9 0-2.1 2.1-3 5.4zm125.9-.9c.7 3.1 1.2 4.1 1.9 3.4.2-.2-.3-1.8-1.1-3.4l-1.4-3 .6 3zm-241.8 2.9c-.6 1.6.2 2.8 1.4 2 1.2-.7 1.1-3.4 0-3.4-.5 0-1.1.6-1.4 1.4zm67.3.3c0 .6-.3 2-.6 3-.7 1.7-.6 1.7 1.2.1 1.4-1.4 1.6-2.1.6-3-.8-.8-1.2-.9-1.2-.1zm-135 1.6c-2.5 1.1-4.2 2.8-3.6 3.5.2.2 2.1-.8 4.1-2.3 4-2.6 3.7-3.2-.5-1.2zm-11.6 1.1c-1 .8-1.6 1.7-1.3 2 .3.3 1.4-.3 2.4-1.4 2.1-2.3 1.7-2.6-1.1-.6zm-9.9.6c-.3.5-.1 1 .4 1 .6 0 1.1-.5 1.1-1 0-.6-.2-1-.4-1-.3 0-.8.4-1.1 1zm38 3.1c-6.6 4.5-9.7 7.9-7.1 7.9.9 0 3.3-1.6 5.5-3.5 2.1-1.9 4.2-3.5 4.7-3.5s1.4-1.1 2.1-2.5c.6-1.4 1-2.5 1-2.5-.1 0-2.9 1.9-6.2 4.1zm177.5-1.6c0 .8.5 1.5 1 1.5.6 0 1-.7 1-1.5s-.4-1.5-1-1.5c-.5 0-1 .7-1 1.5zm-274.7 2.9c-4 1.7-8 3.9-9 4.8-1 .9-2.8 1.9-4 2.2-1.3.4-2.3 1.1-2.3 1.6 0 1.1 2.5.1 13-5.2 8.6-4.3 11.3-4.9 8.5-1.8-2.2 2.4-.4 2.7 2 .4 1.7-1.7 1.7-4.5 0-5-.5-.2-4.2 1.2-8.2 3zm172.9-.4c-2.3 1.7-4.2 3.2-4.2 3.5 0 .7 6.7-3.5 8-5.1 1.9-2.2.7-1.7-3.8 1.6zm285.1-2.2c.4.6 2.2 2.1 3.9 3.4 1.7 1.2 2.8 1.7 2.5 1-.4-.6-2.2-2.1-3.9-3.4-1.7-1.2-2.8-1.7-2.5-1zm-319.4 2.8c-2.3 2.5-2.3 2.6-.2 1.5 2.3-1.2 3.8-2.9 3.1-3.7-.3-.2-1.5.8-2.9 2.2zm-18 1.1c-1.3 1.6-1.2 1.7.4.4 1.6-1.3 2.1-2.1 1.3-2.1-.2 0-1 .8-1.7 1.7zm86.7 1.4c-1.1 1.1-1.6 2.2-1.2 2.6.8.9 4-2.2 3.5-3.5-.2-.5-1.3-.1-2.3.9zm-79.1 2c-1.1 1.7.1 2.1 1.5.4.8-.9.8-1.5.2-1.5-.6 0-1.4.5-1.7 1.1zm5.4.6c-1.3 1.6-1.2 1.7.4.4.9-.7 1.7-1.5 1.7-1.7 0-.8-.8-.3-2.1 1.3zm31.4.8c-1.4 1-1.9 2.2-1.6 3.4.3 1.1-.6 3.8-2.1 6.3l-2.7 4.3.6-4 .5-4-1.6 4.4c-1.4 3.6-1.4 5-.5 8.2 1.1 3.8 2.8 5.3 2.8 2.6 0-.8 1-3.5 2.2-6 1.2-2.6 2.3-6.8 2.4-9.4.1-2.9.8-5.3 1.7-6 2.1-1.8.9-1.6-1.7.2zm-52.5 3.5c-2 2.9-3.5 4-5.5 4.1-1.8.1-2.1.3-1 .6 2.6.7 7.3-1.8 9.1-4.8 3.2-5.5 1.2-5.4-2.6.1zm212-3.5c-.6 1.1 1 6.1 1.7 5.3.2-.2.1-1.7-.3-3.3-.5-1.6-1.1-2.5-1.4-2zM388.7 716c-3.7 2.3-6.4 6-4.5 6 1.5 0 8.5-6.7 7.7-7.3-.2-.3-1.7.4-3.2 1.3zm397.6 0c2.7 2.2 3.7 2.5 3.7 1.2 0-.8-4.3-3.2-5.7-3.2-.3 0 .6.9 2 2zm-25.8 0c.3.5.8 1 1.1 1 .2 0 .4-.5.4-1 0-.6-.5-1-1.1-1-.5 0-.7.4-.4 1zm-388.2 6c-4.4 2.6-4.2 3.4.2 1.3 1.9-.9 3.5-2 3.5-2.5 0-1.1 0-1.1-3.7 1.2zm116.7 9.5c-1.3 1.4-1.9 2.5-1.4 2.5 1.1 0 4.7-4 4.1-4.6-.2-.2-1.4.7-2.7 2.1zm11 3.3c-.8 1.5-2.2 3.8-3.1 5.2-.8 1.4-2.3 4.5-3.1 7-.9 2.5-2.8 7.6-4.2 11.4-1.4 3.8-2.6 7.2-2.5 7.5.1 1.5 10.4-20.1 12.5-26.3 2.5-7.3 2.7-9.4.4-4.8zm153-1.5c0 .3.7 2.1 1.6 4.2.8 2.1 1.3 4.8 1 6.1-.7 2.7.7 3.9 2.3 2.1.8-1 .6-2.4-.9-5.5-1.1-2.3-2-4.5-2-5.1 0-.5-.4-1.3-1-1.6-.5-.3-1-.4-1-.2zm4 .7c0 1.5 3.1 3.3 4 2.4.5-.5-.1-1.4-1.6-2.1-1.3-.6-2.4-.8-2.4-.3zm-391.4 1.6c-.9.9-1.4 1.9-1.1 2.2.3.3 1.3-.2 2.2-1.1.9-.9 1.4-1.9 1.1-2.2-.3-.3-1.3.2-2.2 1.1zm277.4.4c0 .5.7 1 1.5 1s1.5-.5 1.5-1c0-.6-.7-1-1.5-1s-1.5.4-1.5 1zm166.5 7.1c-.4.6-.5 1.3-.2 1.6.7.7 2.7-.6 2.7-1.8 0-1.2-1.7-1.2-2.5.2zM327.3 745c-.3 1.1-.9 1.8-1.3 1.5-1.1-.7-10.1 5.5-17.2 12-3.7 3.3-7.1 5.5-8.4 5.5-2.9 0-5.3 3.7-3 4.6.9.4 4.4-1.9 9-5.8 11.8-9.9 19-15.3 20.2-15 .6.1 1.6-.9 2.2-2.3.8-1.7.8-2.5.1-2.5-.6 0-1.3.9-1.6 2zm254.9-.8c-1.6 1.6-1.5 2.8.3 2.8.8 0 1.5-.9 1.5-2 0-2.3-.2-2.4-1.8-.8zm-70.5 1.5c-.4.3-.7 1.1-.7 1.7 0 .6.5.5 1.2-.2.6-.6.9-1.4.7-1.7-.3-.3-.9-.2-1.2.2zm158.3-.3c0 .2.7.7 1.6 1 .8.3 1.2.2.9-.4-.6-1-2.5-1.4-2.5-.6zm-171 2.1c0 .8.5 1.5 1 1.5.6 0 1-.7 1-1.5s-.4-1.5-1-1.5c-.5 0-1 .7-1 1.5zm20 2.6c0 .5.5.7 1 .4.6-.3 1-.8 1-1.1 0-.2-.4-.4-1-.4-.5 0-1 .5-1 1.1zm119.6 1.5c-3.3 3.3-1 9.3 3.6 9.4 2.3 0 4.7-3.6 4.1-6.1-.5-1.8-3.9-4.9-5.5-4.9-.3 0-1.4.7-2.2 1.6zM532.2 753c-.6 1.1-1.2 2.8-1.2 3.7 0 1.2.5.8 1.5-1.1 1.8-3.4 1.6-5.6-.3-2.6zm137.8-.6c0 .8.5 1.8 1 2.1.6.3 1-.1 1-.9s-.4-1.8-1-2.1c-.5-.3-1 .1-1 .9zm-278 7.8c-4 4-8 8.5-9 10-2.5 4.2-17.9 21.5-20.6 23.3-2.5 1.6-3.2 3.5-1.3 3.5 1 0 2-1.1 10.5-10.8 3.6-4.1 17.2-13.9 18.7-13.4.4.1.6-.1.5-.6-.1-.4.3-1.7 1-2.8.6-1.2.8-2.4.5-2.8-.4-.3.7-2.1 2.4-3.9 3.2-3.4 6.7-9.7 5.3-9.7-.4 0-4 3.3-8 7.2zm152-4.7c0 .8.5 1.5 1 1.5.6 0 1-.7 1-1.5s-.4-1.5-1-1.5c-.5 0-1 .7-1 1.5zm206.8 3.7c1.2 1.2 2.5 1.8 2.9 1.4.4-.4-.1-1.4-1.1-2.2-3.1-2.2-4.3-1.7-1.8.8zm-395.8-.1c0 .5.5.7 1 .4.6-.3 1-.8 1-1.1 0-.2-.4-.4-1-.4-.5 0-1 .5-1 1.1zm7.5-.1c-.3.5-.1 1 .4 1 .6 0 1.1-.5 1.1-1 0-.6-.2-1-.4-1-.3 0-.8.4-1.1 1zm145.3 2.5c-2.2 3-2.5 6.3-.4 4.6 1.3-1.1 3.1-6 2.4-6.6-.2-.2-1.1.7-2 2zm97.9.2c-.4.3-.7 1.1-.7 1.7 0 .6.5.5 1.2-.2.6-.6.9-1.4.7-1.7-.3-.3-.9-.2-1.2.2zm-385.8 4.9c-2.3 2.5-2.3 2.6-.2 1.3 1.3-.7 2.5-1.9 2.7-2.6.8-1.9.2-1.6-2.5 1.3zm121.6 2.1c-2.6 2.1-7.1 5.9-10 8.4-2.9 2.5-6.6 5.4-8.4 6.5-3.6 2.1-4 3.4-1 3.4 1.1 0 4.1-1.7 6.5-3.8 6.3-5.2 18.6-17.4 18.1-17.8-.2-.2-2.5 1.3-5.2 3.3zm273.2-1.6c.7.7 1.5 1 1.8.7.3-.3-.2-.9-1.2-1.2-1.4-.6-1.5-.5-.6.5zm213.8 2.9c.3.5.8 1 1.1 1 .2 0 .4-.5.4-1 0-.6-.5-1-1.1-1-.5 0-.7.4-.4 1zm-257.8 4.3c-.8 2.2.4 3.7 2.9 3.7 1.3 0 2.4-.5 2.4-1 0-.6-.4-1-.9-1s-1.6-.7-2.4-1.5c-1.1-1.1-1.6-1.1-2-.2zm-89.1 3.3c-.9 2-1.5 3.9-1.2 4.1.3.3 1.2-1.2 2.1-3.2 2-4.9 1.4-5.6-.9-.9zm-167.1.9c-2.1 1.7-2.5 2.4-1.4 2.5.9 0 2.4-1.1 3.3-2.5 2-3.1 1.8-3.1-1.9 0zm159.8 3.5c.1 1.1.5 2 .9 2s.8-.9.8-2-.4-2-.9-2c-.6 0-.9.9-.8 2zm4.3 2.7c-.6 1.4-.5 1.5.5.6.7-.7 1-1.5.7-1.8-.3-.3-.9.2-1.2 1.2zm-195.4 1.5c-.8 1.1-.6 1.7.9 2.6 1 .7 1.9 1.8 1.9 2.5 0 1.9-9.9 11-15.5 14.2-4.9 2.8-6.5 4.2-6.5 5.7 0 1.9 2.8.3 11.8-6.9 8.7-6.9 15.2-12.8 15.2-14 0-.2-.9-.1-2 .2-1.6.5-2.3 0-3.4-2.5-1-2.5-1.5-2.8-2.4-1.8zm451.8-.4c0 1.7 3.8 5.7 4.6 4.9.4-.4-.4-1.9-1.9-3.3s-2.7-2.1-2.7-1.6zm-269.7 4.4c-3.2 3.6-10.3 15.1-9.7 15.7.9.9 5.5-5.1 9.2-11.9 3.6-6.5 3.7-7.2.5-3.8zm-270.3.5c-.8.3-3.1 2.3-5 4.6l-3.5 4 4.7-3.4c2.5-1.9 4.9-4 5.2-4.7.3-.6.4-1.1.3-1.1-.1.1-.9.4-1.7.6zm110.4.8c-1 .8-1.4 1.5-.8 1.5.6 0 1.7-.7 2.4-1.5 1.6-1.9.9-1.9-1.6 0zm169.4-.8c.7.3 1.6.2 1.9-.1.4-.3-.2-.6-1.3-.5-1.1 0-1.4.3-.6.6zm54.9 0c-1 .9-.9 2.3.2 2.3.5 0 1.1-.7 1.5-1.5.5-1.5-.5-2-1.7-.8zM550 792c0 .5.5 1 1 1 .6 0 1-.5 1-1 0-.6-.4-1-1-1-.5 0-1 .4-1 1zm-76 2.7c-2.4 5.2-6 14.6-5.6 15 .1.2 1.9-3.6 3.9-8.4 2-4.8 3.5-8.8 3.3-9-.1-.2-.9.9-1.6 2.4zm-276.5-.7c-.3.5-.1 1 .4 1 .6 0 1.1-.5 1.1-1 0-.6-.2-1-.4-1-.3 0-.8.4-1.1 1zm352.5 3c0 .5.5 1 1.1 1 .5 0 .7-.5.4-1-.3-.6-.8-1-1.1-1-.2 0-.4.4-.4 1zm-144.9 2.6c-1.2 2.7-1.1 2.8.4 1.2 1-.9 1.6-2.1 1.3-2.8-.2-.7-1 .1-1.7 1.6zm244.6.5c.7.7 1.5 1 1.8.7.3-.3-.2-.9-1.2-1.2-1.4-.6-1.5-.5-.6.5zm-102.7 4c0 .5.5.7 1 .4.6-.3 1-.8 1-1.1 0-.2-.4-.4-1-.4-.5 0-1 .5-1 1.1zM411.5 810c-.3.5-.1 1 .4 1 .6 0 1.1-.5 1.1-1 0-.6-.2-1-.4-1-.3 0-.8.4-1.1 1zm-6.5 1.5c-.7.9-1.1 1.8-.8 2 .3.3 1.1-.1 1.8-1s1.1-1.8.8-2c-.3-.3-1.1.1-1.8 1zm18.4-.3c-2.2 3.4-3.2 5.8-2.4 5.8 1 0 4.2-6.1 3.6-6.7-.2-.3-.8.2-1.2.9zm-88.6 6.1c-2.4 2.3-7.5 7.7-11.5 11.9-3.9 4.2-8.9 8.6-11 9.6-5.1 2.6-7 4.9-7.8 9.4-.6 3-.4 3.9.9 4.4 1.3.5 1.4.9.5 2-.7.8-.8 1.8-.4 2.2.4.4 1.2-.2 1.9-1.2.6-1 2.2-2.8 3.5-4 1.3-1.2 3.1-4 4.1-6.2 2.7-6.2 9.6-15 18.3-23.3 4.2-4.1 7.7-7.8 7.7-8.3 0-1.8-2.2-.6-6.2 3.5zm-48-.9c-1 .7-1.8 1.9-1.8 2.7.1 1 .4.9 1.4-.4.7-.9 1.8-1.7 2.4-1.7.6 0 1.4-.5 1.7-1 .9-1.4-1.7-1.2-3.7.4zm265.8 2.8c-.3 1.3-.5 3.6-.5 5.3l.1 3 1.3-3.5c1.6-4.1 1.8-7 .6-7-.5 0-1.1 1-1.5 2.2zm121.4-.3c0 1 .7 2.4 1.5 3.1.8.7 1.5 2.3 1.5 3.7 0 1.3.9 4.1 1.9 6.1 1.9 3.7 2.5 7.2 2.3 12.4-.2 3.2-2.5 3.7-6 1.2-2.1-1.5-2.2-1.4-2.1 1.3 0 2 .2 2.3.7 1.1.5-1.3 1.1-1.5 2.2-.8 2.4 1.6 5.6 1.1 7.5-1 1.9-2.1 1.8-2.6-1.5-11-1.2-3-2.8-7.8-3.5-10.7-.7-2.8-1.6-5.6-2-6.2-1-1.7-2.5-1.3-2.5.8zm17.1-1.4c0 .5.6 2.1 1.4 3.5.8 1.4 1.4 2 1.4 1.5 0-.6-.6-2.1-1.4-3.5-.8-1.4-1.4-2.1-1.4-1.5zm-85.1 2.9c-.5 1.5-1 3.2-1 3.7s-.4.9-1 .9c-.5 0-1 .8-1 1.8s-.7 2.7-1.5 3.8c-.8 1-1.5 2.8-1.5 3.9-.1 4.1-2.2 9.5-4.1 10.5-1.5.9-2.6.6-5.4-1.6-1.9-1.4-3.5-2.2-3.5-1.7 0 1.2 4.8 7.8 5.8 7.9 2.7.3 7 3.1 11.3 7.5 2.8 2.7 5.7 4.8 6.4 4.6 1-.5 1.8-4.4 3-15.7.1-1.4-.8-4.8-2-7.5-1.4-3.1-2.6-7.9-2.9-12.4-.3-4.1-.8-7.6-1.1-7.9-.2-.3-.9.7-1.5 2.2zm-215 1.1c-.7.9-1.1 1.8-.8 2 .3.3 1.1-.1 1.8-1s1.1-1.8.8-2c-.3-.3-1.1.1-1.8 1zm28.7 2.7c-6.1 7.8-12.5 21-11.5 24 .3.7 1.6-1 3-3.7 1.3-2.8 2.9-5.9 3.5-7 .5-1.1 1.6-3.4 2.4-5 .8-1.7 2-3 2.6-3 1.8 0 3.2-1.8 4.2-5.3 1.4-4.8-.3-4.7-4.2 0z"/><path d="M329.5 827c-.3.5-.1 1 .4 1 .6 0 1.1-.5 1.1-1 0-.6-.2-1-.4-1-.3 0-.8.4-1.1 1zm28.9 3.5c-3.6 3.4-4.2 5.1-1.3 4 1.3-.5 6.4-7.5 5.5-7.5-.3 0-2.1 1.6-4.2 3.5zm-46.9-.6c-.3.5-.1 1.2.5 1.6.5.3 1-.1 1-.9 0-1.8-.6-2.1-1.5-.7zm151.3 3.8c-2.8 3.3-3.1 4.8-.4 1.9 1.5-1.5 2.5-3 2.3-3.2-.2-.2-1.1.4-1.9 1.3zm23.8 0c-.6 1.4-.5 1.5.5.6.7-.7 1-1.5.7-1.8-.3-.3-.9.2-1.2 1.2zm-154.2 6.9c-3.3 3.7-9.7 10.5-14.4 15.1-9.7 9.6-8.1 9.6 2.8.1 10-8.9 20.9-21.8 18.3-21.8-.5 0-3.5 3-6.7 6.6zm365.2-3.3c.3 1 .9 1.5 1.2 1.2.3-.3 0-1.1-.7-1.8-1-.9-1.1-.8-.5.6zm-483.2 1.1c-1 .8-1.5 1.8-1.1 2.2.4.4 1.5 0 2.4-.9 2.2-2.1 1.2-3.1-1.3-1.3zm552 2.2c.4 1.5 2 4.1 3.6 5.8 1.6 1.6 3.4 4.4 4 6.2.6 1.8 1.7 3.5 2.5 3.8 2.7 1 2.4-1.1-.7-5.3-1.7-2.3-4-6.1-5.2-8.4-2.6-5-5.2-6.4-4.2-2.1zm-66.8.7c.3 1 .9 1.5 1.2 1.2.3-.3 0-1.1-.7-1.8-1-.9-1.1-.8-.5.6zM218 842c-.8.5-1.2 1.2-.9 1.5.4.3 1.2-.1 1.9-1 1.4-1.7 1.1-1.9-1-.5zm234 0c-.8.5-1.1 1.2-.7 1.6.4.4 1.3.2 1.9-.4 1.5-1.5.7-2.4-1.2-1.2zm398 2.5c1.3 1.4 2.6 2.5 2.8 2.5.3 0-.5-1.1-1.8-2.5s-2.6-2.5-2.8-2.5c-.3 0 .5 1.1 1.8 2.5zm-454.8 7.2c-1.7 1.9-3.2 4.1-3.2 4.9 0 1.7 2.4 1.8 3.7.1 1.1-1.3 3.5-7.9 3.1-8.3-.2-.1-1.8 1.3-3.6 3.3zm87.4 3.5c-3.7 8.2-5.3 15.2-3.7 16.3.8.4.8 1.2.1 2.6-.6 1-.8 1.9-.5 1.9.6 0 4.3-8.1 5.5-12.3.5-1.6.5-2.7-.1-2.7-1.1 0-.6-2.9 1.5-8.8 2.4-6.6.9-5-2.8 3zM690 849c0 .5.5 1 1.1 1 .5 0 .7-.5.4-1-.3-.6-.8-1-1.1-1-.2 0-.4.4-.4 1zm-482 3.2c-1.1 1.2-1.8 2.4-1.5 2.6.7.7 5.5-2.7 5.5-3.8 0-1.7-1.8-1.1-4 1.2zm468 3.3c0 .8.4 1.5 1 1.5.5 0 .7-.7.4-1.5-.4-.8-.8-1.5-1-1.5-.2 0-.4.7-.4 1.5zM204.5 858c-.3.5-.1 1 .4 1 .6 0 1.1-.5 1.1-1 0-.6-.2-1-.4-1-.3 0-.8.4-1.1 1zm486.5 1c0 .5.5 1 1.1 1 .5 0 .7-.5.4-1-.3-.6-.8-1-1.1-1-.2 0-.4.4-.4 1zm-307.5 7.7c-1.5 2.6-3.8 5.9-5.1 7.3-2.2 2.5-5.1 9.1-5.9 14-.4 1.8.1 1.4 1.5-1.4 1.1-2.2 2.7-4.7 3.5-5.6.8-.9 1.5-2.3 1.5-3.1 0-.8.4-1.9.9-2.5 1.5-1.4 7.2-12.6 6.7-13.1-.2-.2-1.6 1.8-3.1 4.4zm488.5-3.2c0 1.8 1.9 4 2.6 3.2.4-.4 0-1.5-.9-2.4-.9-1-1.7-1.3-1.7-.8zm-566.2 3.2c-2.5 3-4.8 7.2-4.8 8.5.1.7.9-.3 2-2.2 1-1.9 2.8-4.5 4-5.8 1.1-1.2 1.7-2.2 1.2-2.2s-1.6.8-2.4 1.7zm155.7 1c-.4 1-1.1 3.3-1.5 5.2-.7 2.8-.6 3.1.5 2 .7-.8 1.6-3.1 1.9-5.2.7-3.9.3-4.9-.9-2zm-264 3.3c-.3.5-.2 1 .4 1 .5 0 1.3-.5 1.6-1 .3-.6.2-1-.4-1-.5 0-1.3.4-1.6 1zm31.2 4.7c-.4.3-.7 1.1-.7 1.7 0 .6.5.5 1.2-.2.6-.6.9-1.4.7-1.7-.3-.3-.9-.2-1.2.2zm5 .9c-.4.4-.2 1.3.4 2 .6.8.8 2.2.5 3.1-.5 1.5-.3 1.4.9-.2.9-1.1 1.4-2.6 1.3-3.4-.3-1.6-2.1-2.5-3.1-1.5zm66.5 2c.4 1.6-1 3.7-5.3 8.3-3.3 3.4-5.9 6.8-5.9 7.5 0 1.7-13.4 14.4-16.5 15.6-2.8 1.1-5.8 6.2-4.9 8.5.4.9 1.8 2.1 3.2 2.6 2.3.9 2.4 1.3 2 6.1-.4 4.1-1.1 5.6-3.2 7.3-1.4 1.1-2.6 2.5-2.6 3 0 1.7 7.2-6 8.6-9.1 1-2.4 1.1-3.9.2-6.8-1.1-3.5-.9-4.3 2.2-10.3 1.9-3.5 6.1-9.2 9.5-12.6 3.3-3.4 7.7-8.8 9.8-11.9 2-3.1 4.3-5.8 5.1-6 .9-.2.8-.8-.7-2.3-2-2-2-2-1.5.1zm9.6-.5c-1 .5-1.8 1.6-1.8 2.3 0 .7-1.9 2.9-4.2 4.9-2.3 2-3.9 3.9-3.6 4.2.7.7 11.8-10.2 11.8-11.5 0-1.2-.1-1.2-2.2.1zm100 9.6c-1.4 2.1-2.8 5.1-3.2 6.8l-.6 3 2.2-2.7c2-2.6 5.1-9.9 4.4-10.5-.2-.2-1.4 1.4-2.8 3.4zm-52.3-1.7c-.3.5-.1 1 .4 1 .6 0 1.1-.5 1.1-1 0-.6-.2-1-.4-1-.3 0-.8.4-1.1 1zM215 887.5c-1 1.2-1 1.5.4 1.5.9 0 1.6-.7 1.6-1.5s-.2-1.5-.4-1.5-.9.7-1.6 1.5zm47.4 1.3c-.5.4-2.3 2.4-3.8 4.5-1.6 2-5.7 6-9.2 8.8-7 5.6-8.9 9.3-3.1 6.2 1.7-.9 3.5-1.6 3.9-1.5.4.1.5-.4.2-1.2-.6-1.5 9.2-12.6 11.1-12.6 1.8 0 3.5-2.4 2.7-3.7-.4-.7-1.2-.9-1.8-.5zm261.7 1.8c0 1.1.3 1.4.6.6.3-.7.2-1.6-.1-1.9-.3-.4-.6.2-.5 1.3zm-18.1 2.6c0 1.5-.2 3.5-.5 4.5s.2.3 1.2-1.5c1.3-2.5 1.4-3.5.5-4.4-.9-.9-1.2-.6-1.2 1.4zm-137.1 1.5c-1.3 1.6-1.2 1.7.4.4 1.6-1.3 2.1-2.1 1.3-2.1-.2 0-1 .8-1.7 1.7zm27.8-.1c-.4.4-.7 1.4-.7 2.3 0 1.1.3 1.2 1.1.4.6-.6 1-1.6.7-2.3-.2-.6-.7-.8-1.1-.4zm-32.2 2.4c-.3.5-.1 1 .4 1 .6 0 1.1-.5 1.1-1 0-.6-.2-1-.4-1-.3 0-.8.4-1.1 1zm-148.2 1.7c-1.3.2-2.3 1.1-2.3 1.9 0 2.2 5.4 1.4 5.8-.9.2-.9 0-1.6-.5-1.6-.4.1-1.8.4-3 .6zm167.2.2c-.6 1.1.9 2.3 1.9 1.4.9-.9.7-2.3-.3-2.3-.6 0-1.2.4-1.6.9zm-33.5 1.4c0 .7-.9 3-2.1 5.1-1.1 2.1-1.5 3.5-.9 3.1 1-.6 5-7.8 5-9 0-.3-.4-.5-1-.5-.5 0-1 .6-1 1.3zm-81.6 3.7c-4.1 6.4-9.6 12.1-11 11.6-.6-.2-1.1.1-1 .7 0 .7-.3 1.3-.8 1.4-.5.1-1.3.7-1.7 1.5-.7 1-.9.9-.9-.3 0-1.1-2.4.6-6.6 4.7-7.5 7.2-9.7 8.2-12 6-2.3-2.3-3-2-.9.4 1.8 2 1.8 2.1-.4 4.4-2.7 2.9-4.5 8.6-3.1 10 1.3 1.3 8-1.1 14-4.9 4.1-2.6 4.1-2.7 2.4-4.6-1.7-1.9-1.7-2.2-.2-4.7.9-1.5 2.5-3.1 3.7-3.7 1.2-.5 2.1-1.4 2.2-2 0-.5 4.3-4.8 9.5-9.4 5.2-4.7 9.7-9.5 10-10.7 1.2-4.6-.3-4.8-3.2-.4zm53.3 1.6c-2.6 3.5-1.7 3.8 1.1.3 1.3-1.6 2-2.9 1.5-2.9-.4 0-1.6 1.2-2.6 2.6zm115 1.1c-.4.3-.7 1.1-.7 1.7 0 .6.5.5 1.2-.2.6-.6.9-1.4.7-1.7-.3-.3-.9-.2-1.2.2zm-58.5 3.5c-1.4 1.4-1.6 2.8-.3 2.8.9 0 2.4-3 1.8-3.6-.2-.2-.9.2-1.5.8zm388.8.8c0 .5.5 1 1 1 .6 0 1-.5 1-1 0-.6-.4-1-1-1-.5 0-1 .4-1 1zm-401.3 2.7c-.4.3-.7 1.3-.7 2.2.1 1.3.3 1.3 1.1-.2 1.1-1.9.8-3.3-.4-2zm-67.2 1.3c-.3.5-.1 1 .4 1 .6 0 1.1-.5 1.1-1 0-.6-.2-1-.4-1-.3 0-.8.4-1.1 1zm-7.5 4.1c0 .5.5.7 1 .4.6-.3 1-.8 1-1.1 0-.2-.4-.4-1-.4-.5 0-1 .5-1 1.1zm-89.5 1.9c-.3.5-.1 1 .4 1 .6 0 1.1-.5 1.1-1 0-.6-.2-1-.4-1-.3 0-.8.4-1.1 1zm21 2c-.3.5-.1 1 .4 1 .6 0 1.1-.5 1.1-1 0-.6-.2-1-.4-1-.3 0-.8.4-1.1 1zm131.5 3.6c0 .8.5 1.2 1 .9.6-.4.8-1.1.5-1.6-.9-1.4-1.5-1.1-1.5.7zm56.6 4.1c-.6 1.4-.5 1.5.5.6.7-.7 1-1.5.7-1.8-.3-.3-.9.2-1.2 1.2zm-6.6 4.9c-1.9 2.5-4.4 5.6-5.5 6.9-1.1 1.2-3.1 4.2-4.4 6.6-3.9 7.1-13.9 20-20 25.8l-5.6 5.3 5.5-4.4c7.8-6.3 14.8-14.9 26.5-32.4 2.1-3.2 4.8-6.9 5.8-8.1 1.1-1.2 1.8-2.6 1.6-3.2-.2-.6-2 1-3.9 3.5zm415-3.7c0 .5.5 1.3 1 1.6.6.3 1 .2 1-.4 0-.5-.4-1.3-1-1.6-.5-.3-1-.2-1 .4zm-597.2 2.6c-2.4 2.8-3.5 5.5-3.7 9.2-.1 3.1 2 2.9 5.1-.5 3.4-3.7 4-5.7 2.3-8.8l-1.3-2.6-2.4 2.7zm98.3.5c-1.3 1.1-3 2-3.7 2-.8 0-2 1.1-2.6 2.5-1.5 3.3.6 5.6 5.3 5.8l3.4.2V933c0 .1-1.1 1-2.4 2zm96 .4c-.7.8-.8 1.7-.3 2 .6.3 1.3-.1 1.6-1 .9-2.3.2-2.8-1.3-1zm270.9 4.2c0 .8.5 1.2 1 .9.6-.3 1-1 1-1.6 0-.5-.4-.9-1-.9-.5 0-1 .7-1 1.6zm-415 8.9c-.7.9-.8 1.5-.2 1.5.5 0 1.2-.7 1.6-1.5.3-.8.4-1.5.2-1.5s-.9.7-1.6 1.5z"/><path d="M377.2 967.2c-.7.7-1.2 1.9-1.2 2.7 0 1.1.4 1 2-.4 2.1-1.9 2.6-3.5 1.2-3.5-.4 0-1.3.5-2 1.2zm352.8 22c0 2.5 6.5 9.5 10.7 11.7 3 1.5 11.3 3 11.3 2.1 0-1.2-12-11.9-15-13.5-1.4-.7-3.5-1.6-4.7-1.9-1.9-.6-2.3-.4-2.3 1.6zm-38.5.9c-1 1.5.3 2.5 1.6 1.2.7-.7.7-1.3.1-1.7-.6-.3-1.4-.1-1.7.5zm-300.5 3c0 .5.5.7 1 .4.6-.3 1-.8 1-1.1 0-.2-.4-.4-1-.4-.5 0-1 .5-1 1.1zm381 2.9c0 1.9.3 2.1 1.2 1.2.9-.9.9-1.5 0-2.4-.9-.9-1.2-.7-1.2 1.2z"/></svg>