<?xml version="1.0" encoding="UTF-8"?>
<svg version="1.1" viewBox="0 0 50 50" xmlns="http://www.w3.org/2000/svg">
 <g transform="matrix(.48242 0 0 .48242 10.742 15.596)">
  <rect transform="matrix(.7102 -.704 .704 .7102 0 0)" x="-26.378" y="2.1752" width="65.429" height="65.429" rx="6.9538" ry="5.4531" fill="#ffa501" stroke="#000" stroke-width="3.888"/>
  <path d="m19.111 45.164s-2.0379-0.34131-2.6102 0.32281c-0.67534 0.78369-1.7534 1.7625 0.07824 3.1026 1.8316 1.3401 6.9037-0.7036 6.9037-0.7036s3.1493-1.1662 3.642-2.2003 0.72185-1.6451-0.36024-2.5928c-1.082-0.9478-5.0399 1.1971-4.7215 0.99634z" color="#000000"/>
  <path d="m17.241 27.29 0.47591 0.57996-2.0315 3.762l-9.1037-2.2948-0.22407-0.96777 10.883-1.0795z" enable-background="new"/>
  <path d="m1.3266 8.4626 1.4596-0.65887 6.8634 10.895-1.9721 6.9463-1.6784-0.21962-4.6727-16.963z" enable-background="new" stroke="#000" stroke-width=".29042"/>
  <path d="m45.569 17.676c0.58404 0.73118 0.402 5.8424-0.29204 9.5051-0.55526 2.9305-4.639 6.9724-8.163 9.8265-3.524 2.854-5.5804 1.068-5.5804 1.068l-5.7555-5.3875c0.04078 0.12234 1.7632 0.28973 2.245-0.68463-2.3155-3.0791 4.3337-4.1276 6.4908-3.667 3.1489-0.56995-0.60456-4.7342 2.148-7.5897l8.9071-3.0709z" enable-background="new" fill="#0b1728"/>
  <path d="m36.75 3.0425c-2.8653 0.070104-4.8828 1.8173-4.7911 5.1212l-0.01663 2.4758c-0.49622 1.0833-0.91942 1.5399-0.91942 2.1714 0 0.60139 0.13972 0.72509 1.0055 0.94241 0 0-0.45374 4.0171 2.2969 3.8866 2.4575-1.401 3.7441-1.15 4.5208-1.7718 0.77671-0.62182 0.0352 0.92734 0.23042 1.7215 0.19522 0.79417 1.8005 1.1798 1.8005 1.1798l2.551-1.8167-1.9574-4.044c0.68306-0.30796 1.6617-0.95852 2.0744-2.2809 0.66643-2.1358 0.55694-4.4399-2.1088-6.3083-0.83302-0.58396-3.3841-1.3087-4.6866-1.2769z" enable-background="new" fill="#f6e6cc" stroke="#000" stroke-linecap="round" stroke-linejoin="round" stroke-width=".971"/>
  <path d="m38.197 8.7631-5.1422 0.15443-0.96132 0.046068 0.526 3.1971 0.28114-0.05408-0.1451-2.5976 5.1236-0.38908c1.1089-0.080118 0.91648 0.82933 0.99797 1.4608 0.09394 0.72838-1.0262 0.99928-0.46254 0.90824 0.56367-0.09114 1.1252-0.5418 0.8434-1.9073-0.14092-0.68271-0.618-0.83774-1.0611-0.81741z" enable-background="new" fill="#000c00"/>
  <path d="m3.0795 7.9619 4.9646 1.0236 4.5267 15.208-4.8186 1.1698-4.6727-17.402z" enable-background="new" fill="#fff" stroke="#000" stroke-linecap="round" stroke-linejoin="round" stroke-width=".87127"/>
  <path d="m17.98 26.887-4.3804-1.4624-6.8629 2.9282 8.9541 2.4389 2.2891-3.9047z" enable-background="new" fill="#4d4d4d" stroke="#000" stroke-width=".2728"/>
  <path d="m28.314 24.077c-1.768 0.56413-2.363 1.0486-3.5478 1.182-1.1848 0.13339-3.1326-0.15663-4.0746-0.4444-0.94204-0.28776-1.6303-0.58735-2.5471-0.90456-0.91688-0.31722-3.0714-0.36718-3.7642 1.9526 0 0 0.28674 0.63317 2.2742 0.63518-1.0073 0.69369 0.10799 1.71 1.2001 0.74912 0.21058-0.39168 0.83074-1.1077 2.2145-0.85705s6.8355 1.5815 7.3885 1.5642c5.1713-0.1621 10.187-0.15942 8.6466-4.1009-0.30456-3.4507-3.1998-2.1553-3.8543-1.4541-1.4966-0.07472-2.168 1.1138-3.936 1.6779z" enable-background="new" fill="#f6e6cc" stroke="#000" stroke-linecap="round" stroke-linejoin="round"/>
  <path d="m42.899 16.861s2.0396-1.2683 3.0617 1.0714c1.0221 2.3398-1.467 4.6796-3.9492 5.8494-2.4823 1.1699-6.3155 3.459-6.3155 3.459s-2.6374 1.1227-3.8056 0.83039c-1.1681-0.29253-1.1647-3.8001-1.3107-5.2624-0.14603-1.4623 3.164-1.9003 4.6244-2.339 1.4602-0.43875 6.0811-3.0216 5.6428-2.7292z" enable-background="new" fill="#162d50"/>
  <path d="m35.417 12.368c-0.06119 0.18638-0.30129 0.65216-1.2803 1.3623-0.54974 0.39879-1.204 0.45537-1.7728 0.39458v0.48692c0.85716 0.21642 1.6733-0.05208 2.1113-0.37606 0.61342-0.45477 0.88998-1.6293 0.94179-1.8678z" enable-background="new" fill="#001400"/>
  <path d="m32.257 10.265 1.5323 0.62102s-1.058-2.4479-1.5323-0.62102z" color="#000000"/>
  <path d="m27.901 31.851-8.872 2.1859c-2.3499 0.6048-2.4639 1.923 0.54198 5.9711 3.0057 4.0483 1.2984 4.8916 2.0639 5.4644 2.2543 1.6868 6.093-2.6331 6.093-2.6331l-2.8917-4.4165s8.6233 0.18688 9.4524-0.02103c0.82916-0.20751-4.0066-4.6819-4.6285-4.8897z" color="#000000" fill="#025#025"/>
  <rect transform="matrix(.99124 .13204 -.13188 .99127 0 0)" x="48.136" y="7.5116" width="3.26" height="13.145" ry="1.8663" color="#000000" stroke="#000" stroke-width=".34712"/>
  <path d="m33.549 30.078c-2.7053 0-4.879 2.186-4.879 4.8955v2.0889c0 2.7093 2.1738 4.8955 4.879 4.8955h10.575c2.7053 0 4.879-2.1862 4.879-4.8955v-2.0889c0-2.7093-2.1738-4.8955-4.879-4.8955h-10.575zm-0.66202 2.9064h12.071c1.7325 0 3.1287 1.3983 3.1287 3.1334v1.3351c0 0.55372-0.13992 1.0661-0.38998 1.5167-0.17893-0.6736-1.2404-1.1945-2.5393-1.1989l-12.506-0.03706c-1.2632 0-2.3153 0.4722-2.5484 1.1172-0.21017-0.42252-0.33554-0.89262-0.33554-1.3987v-1.3352c0-1.7351 1.3872-3.1333 3.1197-3.1333z" color="#000000"/>
  <path d="m31.536 3.0473s-0.60994 1.9073 0.52487 1.9845c1.0371 0.66447 2.0033 0.61953 2.0033 0.61953s0.94242-0.16312 1.6628-0.36964c-0.01262 0.62414 0.31053 1.5502 0.31053 1.5502s-0.16082 0.76214 0.52958 1.3518c-0.18914 0.5405 1.513 0.077114 1.513 0.077114s1.3617-0.42473 1.4374 0.92677c0.07566 1.3518 0.71087 3.4561 0.71087 3.4561-0.82798 2.1054 2.7904 3.8918 2.5722 1.2743 0 0 0.87778-2.2587 1.2183-3.8035 0.34044-1.5446 0.26478-4.5567-1.0592-5.6381-1.3239-1.0813-1.5839-3.5212-7.5795-2.8442-1.8914 0.57916-3.5037 2.6125-3.8441 1.4154z" color="#000000"/>
 </g>
</svg>
