<?xml version='1.0' encoding='iso-8859-1'?>
<svg version="1.1" xmlns="http://www.w3.org/2000/svg" viewBox="0 0 490 490" xmlns:xlink="http://www.w3.org/1999/xlink" enable-background="new 0 0 490 490">
  <path d="m230.658,172.139l40.437,89.019c2.036,4.48 6.139,7.677 10.981,8.555 4.843,0.878 9.807-0.675 13.286-4.156l161.748-161.858c3.476-3.479 5.026-8.44 4.149-13.28-0.878-4.839-4.072-8.94-8.548-10.977l-88.959-40.467c-8.241-3.747-29.455-13.389-46.528,0.649l-21.86-21.875c-11.439-11.445-26.696-17.749-42.961-17.749s-31.522,6.304-42.96,17.75c-21.154,21.17-23.41,54.199-6.767,77.898l-169.786,169.9c-5.853,5.857-5.853,15.349 1.42109e-14,21.206l166.848,166.96v6.286h-64.938c-8.284,0-15,6.716-15,15s6.716,15 15,15h159.875c8.284,0 15-6.716 15-15s-6.716-15-15-15h-64.937v-12.495c0-3.977-1.579-7.79-4.39-10.603l-160.642-160.751 158.537-158.643 8.074,8.079c-14.047,17.08-4.404,38.306-0.659,46.552zm105.14-108.904c0.755-0.754 2.759-2.759 15.534,3.049l69.268,31.509-131.148,131.237-31.479-69.298c-5.813-12.799-3.804-14.811-3.047-15.568l80.872-80.929zm-105.134,19.258c-11.995-12.003-11.995-31.534 0-43.537 5.771-5.775 13.492-8.956 21.74-8.956s15.968,3.18 21.739,8.956l21.754,21.768-43.493,43.523-21.74-21.754z"/>
</svg>
