<?xml version="1.0" standalone="no"?>
<!DOCTYPE svg PUBLIC "-//W3C//DTD SVG 20010904//EN"
 "http://www.w3.org/TR/2001/REC-SVG-20010904/DTD/svg10.dtd">
<svg version="1.0" xmlns="http://www.w3.org/2000/svg"
 width="30" height="22" viewBox="0 0 120 120"
 preserveAspectRatio="xMidYMid meet">
<metadata>
Created by potrace 1.16, written by Peter Selinger 2001-2019
</metadata>
<g transform="translate(-40.000000,160.000000) scale(0.100000,-0.100000)"
fill="#000000" stroke="none">
<path d="M811 1603 c-13 -9 -39 -49 -58 -90 -34 -73 -34 -73 -73 -73 l-40 0 0
60 0 60 -130 0 -130 0 0 -60 0 -60 -36 0 c-28 0 -44 -8 -70 -34 l-34 -34 0
-462 0 -462 34 -34 34 -34 692 0 692 0 34 34 34 34 0 462 0 462 -34 34 -34 34
-206 0 -205 0 -34 73 c-49 107 -50 107 -247 107 -138 0 -170 -3 -189 -17z
m329 -36 c16 -8 39 -40 63 -89 l38 -78 195 0 c222 0 254 -7 273 -60 15 -46 15
-814 0 -860 -22 -61 -12 -60 -707 -60 -444 0 -639 3 -662 11 -37 13 -60 57
-60 114 l0 35 275 0 c244 0 280 -2 308 -17 46 -26 228 -26 274 0 28 15 63 17
278 17 157 0 245 4 245 10 0 6 -82 10 -227 10 l-227 0 41 43 c73 75 88 116 88
237 0 121 -15 162 -88 238 l-41 42 97 0 c58 0 97 4 97 10 0 6 -45 10 -115 10
-92 0 -123 4 -148 18 -25 13 -56 17 -137 17 -81 0 -112 -4 -137 -17 -28 -16
-64 -18 -308 -18 l-275 0 0 65 c0 86 18 129 60 144 22 7 143 11 366 11 210 0
334 4 334 10 0 5 -56 11 -135 12 l-136 3 33 65 c20 38 43 70 58 77 15 8 69 13
140 13 71 0 125 -5 140 -13z m-34 -414 c66 -22 145 -101 167 -167 22 -63 22
-149 0 -212 -22 -66 -101 -145 -167 -167 -114 -39 -231 -14 -312 67 -115 116
-115 297 1 412 30 30 68 57 95 67 60 21 155 21 216 0z m-353 -35 c-23 -24 -54
-69 -69 -101 -24 -53 -26 -67 -22 -150 5 -106 25 -156 91 -224 l41 -43 -257 0
-257 0 0 280 0 280 257 0 257 0 -41 -42z"/>
<path d="M1360 1290 l0 -50 100 0 100 0 0 50 0 50 -100 0 -100 0 0 -50z"/>
<path d="M902 1084 c-87 -44 -126 -115 -120 -219 3 -60 8 -78 31 -108 53 -70
92 -91 172 -95 87 -5 134 15 189 79 41 48 50 84 44 168 -5 66 -31 109 -95 158
-31 24 -47 28 -112 31 -56 2 -85 -2 -109 -14z m186 -33 c67 -34 102 -93 102
-171 0 -111 -79 -190 -190 -190 -111 0 -190 79 -190 190 0 111 77 189 188 190
33 0 67 -7 90 -19z"/>
</g>
</svg>
