<svg width="420" height="120" viewBox="0 0 346.901 87.201" xmlns="http://www.w3.org/2000/svg"><g id="svgGroup" stroke-linecap="round" fill-rule="evenodd" font-size="9pt" stroke="orange" stroke-width="15" fill="black" style="stroke:#000;stroke-width:0.75mm;fill:orange"><path d="M 4.937 68.742 A 7.796 7.796 0 0 0 6.9 69.001 A 16.938 16.938 0 0 0 7.58 68.987 Q 9.03 68.929 10.269 68.618 A 9.077 9.077 0 0 0 13.4 67.201 A 9.43 9.43 0 0 0 14.04 66.699 Q 14.691 66.138 15.115 65.541 A 3.98 3.98 0 0 0 15.9 63.201 A 3.735 3.735 0 0 0 15.312 61.21 A 5.588 5.588 0 0 0 14.5 60.201 Q 12.5 58.301 11.85 55.651 Q 11.485 54.16 11.325 52.4 A 32.08 32.08 0 0 1 11.2 49.501 Q 11.2 45.501 11.65 40.651 Q 12.1 35.801 12.7 30.801 Q 13.8 22.401 14.1 15.801 Q 16.4 15.201 18.7 14.851 A 32.626 32.626 0 0 1 18.844 14.829 A 29.811 29.811 0 0 1 23.2 14.501 A 24.482 24.482 0 0 1 23.505 14.502 Q 29.297 14.575 33 17.401 A 9.243 9.243 0 0 1 36.22 21.752 A 10.98 10.98 0 0 1 36.8 25.401 A 13.456 13.456 0 0 1 36.787 26.006 A 10.157 10.157 0 0 1 33.35 33.401 A 11.659 11.659 0 0 1 28.384 36.028 A 15.934 15.934 0 0 1 24.4 36.501 A 19.426 19.426 0 0 1 24.312 36.5 Q 23.65 36.497 23.056 36.449 A 11.838 11.838 0 0 1 21.9 36.301 A 236.833 236.833 0 0 0 21.412 36.212 Q 20.905 36.121 20.531 36.057 A 60.538 60.538 0 0 0 20.2 36.001 Q 19.6 35.801 19 35.701 A 12.544 12.544 0 0 0 18.746 35.661 Q 18.483 35.622 18.293 35.608 A 2.668 2.668 0 0 0 18.1 35.601 A 2.157 2.157 0 0 0 17.952 35.606 Q 16.878 35.679 16.55 36.851 A 9.031 9.031 0 0 0 16.311 37.992 A 11.221 11.221 0 0 0 16.2 39.601 A 12.587 12.587 0 0 0 16.268 40.942 Q 16.367 41.866 16.612 42.629 A 5.422 5.422 0 0 0 17.5 44.351 A 3.156 3.156 0 0 0 17.945 44.809 Q 19.356 46.001 22.5 46.001 Q 26.4 46.001 30.45 44.251 A 24.253 24.253 0 0 0 32.193 43.413 A 26.495 26.495 0 0 0 37.95 39.251 Q 41.4 36.001 43.5 31.601 Q 45.6 27.201 45.6 22.001 A 23.276 23.276 0 0 0 45.54 20.309 A 16.773 16.773 0 0 0 39.75 8.401 A 18.821 18.821 0 0 0 39.043 7.813 Q 35.557 5.062 30.805 3.988 A 29.944 29.944 0 0 0 24.2 3.301 Q 19.3 3.301 14.55 4.551 Q 9.8 5.801 6.3 7.701 A 27.186 27.186 0 0 0 6 7.862 Q 2.643 9.687 1.35 11.651 A 7.934 7.934 0 0 0 0.232 14.379 A 11.063 11.063 0 0 0 0 16.701 A 10.842 10.842 0 0 0 0.02 17.379 Q 0.185 20.001 1.7 20.001 A 3.1 3.1 0 0 0 2.274 19.946 A 3.886 3.886 0 0 0 2.95 19.751 A 8.743 8.743 0 0 0 3.529 19.503 A 10.895 10.895 0 0 0 4.3 19.101 Q 4.6 21.301 4.7 23.601 Q 4.8 25.901 4.8 27.901 Q 4.8 33.001 4.35 38.001 A 165.172 165.172 0 0 1 4.094 40.622 A 142.821 142.821 0 0 1 3.2 47.501 Q 2.5 51.901 2.05 55.751 Q 1.6 59.601 1.6 62.101 Q 1.6 64.208 1.97 65.575 A 5.365 5.365 0 0 0 2.4 66.701 A 6.053 6.053 0 0 0 2.506 66.89 Q 3.281 68.226 4.45 68.601 A 9.079 9.079 0 0 0 4.937 68.742 Z M 168.2 86.251 A 3.009 3.009 0 0 0 168.883 86.736 Q 169.772 87.201 171.1 87.201 Q 171.956 87.201 172.899 87.029 A 14.009 14.009 0 0 0 174.6 86.601 Q 176.5 86.001 177.9 84.451 A 4.7 4.7 0 0 0 178.609 83.409 Q 178.985 82.663 179.157 81.72 A 9.629 9.629 0 0 0 179.3 80.001 A 7.535 7.535 0 0 0 179.3 79.945 Q 179.296 79.355 179.2 78.401 A 30.915 30.915 0 0 0 179.17 78.113 Q 179.072 77.218 178.9 76.101 Q 178.5 73.201 178.1 68.601 A 88.41 88.41 0 0 1 177.935 66.351 Q 177.7 62.524 177.7 57.701 Q 177.7 51.901 177.95 46.651 Q 178.2 41.401 178.6 37.101 A 73.882 73.882 0 0 1 180.537 37.185 Q 181.449 37.238 182.249 37.311 A 32.938 32.938 0 0 1 183.9 37.501 A 599.021 599.021 0 0 1 184.334 37.563 Q 185.633 37.749 186.6 37.894 A 189.023 189.023 0 0 1 187.3 38.001 A 24.462 24.462 0 0 0 187.382 38.021 Q 188.517 38.301 189 38.301 Q 189.863 38.301 190.57 37.603 A 4.125 4.125 0 0 0 191.1 36.951 A 9.16 9.16 0 0 0 191.712 35.882 A 10.708 10.708 0 0 0 192.45 33.851 A 18.203 18.203 0 0 0 192.628 33.094 Q 192.758 32.481 192.826 31.931 A 9.267 9.267 0 0 0 192.9 30.801 A 5.969 5.969 0 0 0 192.888 30.419 Q 192.853 29.864 192.71 29.415 A 2.448 2.448 0 0 0 191.55 27.951 A 5.033 5.033 0 0 0 190.48 27.518 Q 189.362 27.201 187.8 27.201 A 24.699 24.699 0 0 0 187.474 27.203 Q 186.047 27.222 183.9 27.401 Q 181.5 27.601 179.4 27.801 A 75.308 75.308 0 0 1 179.495 27.168 Q 179.834 24.972 180.271 23.025 A 45.003 45.003 0 0 1 181.25 19.351 A 19.211 19.211 0 0 1 181.282 19.251 Q 181.776 17.713 182.467 16.453 A 11.298 11.298 0 0 1 184.65 13.601 A 7.057 7.057 0 0 1 185.272 13.084 Q 187.414 11.501 190.8 11.501 A 19.408 19.408 0 0 1 191.965 11.535 A 16.163 16.163 0 0 1 194.35 11.851 A 19.701 19.701 0 0 1 195.058 12.014 Q 195.625 12.156 196.116 12.319 A 9.969 9.969 0 0 1 197.1 12.701 L 198.3 13.101 A 4.943 4.943 0 0 0 198.375 13.125 Q 198.931 13.301 199.4 13.301 A 2.287 2.287 0 0 0 199.929 13.239 Q 200.815 13.03 201.55 12.101 A 3.971 3.971 0 0 0 201.587 12.054 Q 202.144 11.328 202.361 10.353 A 6.212 6.212 0 0 0 202.5 9.001 Q 202.5 6.401 200.85 4.351 A 10.32 10.32 0 0 0 199.409 2.886 A 11.742 11.742 0 0 0 196.55 1.151 Q 193.9 0.001 190.9 0.001 A 15.272 15.272 0 0 0 187.468 0.392 A 17.57 17.57 0 0 0 182.85 2.201 Q 178.9 4.401 176.6 8.201 Q 175.363 10.282 174.489 12.869 A 34.502 34.502 0 0 0 173.35 17.201 Q 172.3 22.501 171.8 28.401 A 42.751 42.751 0 0 0 171.01 28.507 A 37.623 37.623 0 0 0 168.75 28.901 Q 167.833 29.09 167.135 29.32 A 7.923 7.923 0 0 0 166.4 29.601 Q 165.592 29.924 165.088 30.364 A 2.445 2.445 0 0 0 164.45 31.201 A 4.251 4.251 0 0 0 164.278 31.653 Q 164.133 32.108 164.063 32.646 A 8.285 8.285 0 0 0 164 33.701 A 9.172 9.172 0 0 0 164.077 34.867 A 11.419 11.419 0 0 0 164.4 36.451 A 3.836 3.836 0 0 0 164.413 36.497 Q 164.649 37.31 165.144 37.652 A 1.469 1.469 0 0 0 166 37.901 Q 166.5 37.901 167.5 37.701 Q 168.4 37.501 169.3 37.451 A 38.609 38.609 0 0 0 169.872 37.414 A 45.504 45.504 0 0 0 171.2 37.301 Q 170.95 39.676 170.661 42.636 A 1164.152 1164.152 0 0 0 170.3 46.401 Q 169.8 51.701 169.25 57.401 A 1130.06 1130.06 0 0 0 168.981 60.222 A 998.483 998.483 0 0 0 168.25 68.351 Q 167.8 73.601 167.55 77.451 Q 167.3 81.301 167.3 82.801 Q 167.2 85.301 168.2 86.251 Z M 137.55 65.251 A 8.429 8.429 0 0 0 139.071 67.005 Q 141.708 69.301 146.3 69.301 A 17.958 17.958 0 0 0 149.509 69.026 A 13.166 13.166 0 0 0 154.6 67.001 A 9.736 9.736 0 0 0 156.319 65.547 A 5.956 5.956 0 0 0 158 61.401 A 4.423 4.423 0 0 0 157.954 60.739 Q 157.902 60.395 157.791 60.123 A 1.61 1.61 0 0 0 157.3 59.451 A 1.759 1.759 0 0 0 157.009 59.267 Q 156.288 58.901 154.9 58.901 A 23.877 23.877 0 0 1 152.196 58.756 Q 150.598 58.574 149.286 58.16 A 9.662 9.662 0 0 1 146.5 56.801 A 5.451 5.451 0 0 1 146.358 56.694 Q 144.329 55.121 143.793 51.645 A 18.061 18.061 0 0 1 143.6 48.901 Q 143.6 47.438 143.774 45.77 A 43.175 43.175 0 0 1 144.15 43.051 Q 144.7 39.801 145.4 36.701 A 47.436 47.436 0 0 1 146.607 36.715 Q 147.58 36.74 148.443 36.806 A 24.498 24.498 0 0 1 150.2 37.001 A 66.471 66.471 0 0 1 151.41 37.193 Q 151.978 37.289 152.475 37.385 A 29.407 29.407 0 0 1 153.5 37.601 Q 154.125 37.726 154.633 37.811 A 22.399 22.399 0 0 0 155.2 37.901 A 24.198 24.198 0 0 0 155.206 37.901 Q 155.901 38.001 156.2 38.001 A 1.67 1.67 0 0 0 156.939 37.825 Q 157.62 37.494 158.235 36.536 A 8.641 8.641 0 0 0 158.75 35.601 A 12.88 12.88 0 0 0 159.198 34.551 A 10.632 10.632 0 0 0 159.9 30.801 Q 159.9 29.633 159.578 28.851 A 2.411 2.411 0 0 0 158.65 27.701 A 4.285 4.285 0 0 0 157.649 27.239 Q 156.597 26.901 155.1 26.901 A 22.301 22.301 0 0 0 154.187 26.919 A 25.54 25.54 0 0 0 151.35 27.201 Q 149.4 27.501 147.5 27.901 Q 147.7 26.801 147.85 25.751 A 15.809 15.809 0 0 0 147.868 25.619 A 14.408 14.408 0 0 0 148 23.701 Q 148 21.949 147.533 21.005 A 1.815 1.815 0 0 0 145.8 19.901 A 3.734 3.734 0 0 0 145.444 19.918 Q 144.276 20.03 142.816 20.861 A 14.905 14.905 0 0 0 141.45 21.751 A 32.126 32.126 0 0 0 139.179 23.567 A 41.148 41.148 0 0 0 136.35 26.301 A 38.951 38.951 0 0 0 134.557 28.333 A 31.55 31.55 0 0 0 132.1 31.751 Q 130.985 33.555 130.601 34.994 A 5.479 5.479 0 0 0 130.4 36.401 Q 130.4 38.201 132.6 38.201 Q 134.7 38.201 136.8 37.601 A 97.836 97.836 0 0 1 136.665 38.808 A 114.592 114.592 0 0 1 136.3 41.601 Q 136 43.701 135.7 45.901 Q 135.4 48.101 135.15 50.301 Q 134.9 52.501 134.9 54.801 A 29.14 29.14 0 0 0 134.931 56.151 Q 135.186 61.637 137.55 65.251 Z M 244.5 67.401 A 4.134 4.134 0 0 0 245.531 68.25 Q 246.814 69.001 248.8 69.001 A 14.484 14.484 0 0 0 250.134 68.942 Q 252.6 68.713 254.15 67.601 A 12.253 12.253 0 0 0 254.378 67.433 Q 255.156 66.847 255.737 66.21 A 6.902 6.902 0 0 0 256.9 64.501 Q 257.688 62.827 257.7 62.026 A 1.644 1.644 0 0 0 257.7 62.001 A 2.462 2.462 0 0 0 257.69 61.77 Q 257.64 61.24 257.35 60.951 Q 257.11 60.71 256.704 60.446 A 8.195 8.195 0 0 0 256.3 60.201 A 19.477 19.477 0 0 1 254.885 59.306 Q 253.359 58.241 252.55 57.151 A 3.977 3.977 0 0 1 252.24 56.659 Q 251.661 55.579 251.481 53.822 A 16.958 16.958 0 0 1 251.4 52.101 A 25.484 25.484 0 0 1 251.401 51.965 Q 251.411 49.917 251.75 47.401 Q 252.1 44.801 252.5 41.901 Q 253.1 37.501 253.75 31.701 A 87.22 87.22 0 0 0 254.019 28.866 Q 254.4 24.049 254.4 18.001 A 132.237 132.237 0 0 0 254.398 17.315 Q 254.374 12.532 254 8.751 A 26.446 26.446 0 0 0 253.714 6.663 Q 253.487 5.402 253.149 4.352 A 11.271 11.271 0 0 0 252.3 2.351 A 5.798 5.798 0 0 0 251.981 1.837 Q 251.271 0.82 250.249 0.366 A 4.508 4.508 0 0 0 248.4 0.001 Q 246.8 0.001 245.1 0.851 A 11.883 11.883 0 0 0 244.044 1.446 A 9.584 9.584 0 0 0 242.25 2.901 A 5.947 5.947 0 0 0 242.139 3.02 Q 241.1 4.165 241.1 5.401 A 1.859 1.859 0 0 0 241.1 5.432 Q 241.116 6.335 242 8.301 A 26.919 26.919 0 0 1 244.036 13.703 A 35.389 35.389 0 0 1 245.05 19.751 A 166.332 166.332 0 0 1 245.209 21.786 A 148.653 148.653 0 0 1 245.6 32.401 Q 245.6 36.701 245.15 41.401 Q 244.7 46.101 244.1 50.401 Q 243.7 53.901 243.4 56.901 Q 243.203 58.869 243.136 60.364 A 31.957 31.957 0 0 0 243.1 61.801 A 20.487 20.487 0 0 0 243.12 62.726 Q 243.268 65.992 244.5 67.401 Z M 101.799 69.038 A 7.573 7.573 0 0 0 102.8 69.101 Q 106.3 69.101 108.35 66.701 A 8.244 8.244 0 0 0 110.062 63.392 A 10.967 10.967 0 0 0 110.4 60.601 Q 110.4 59.401 110.35 56.801 Q 110.3 54.201 110.2 51.701 A 35.895 35.895 0 0 1 110.474 48.138 Q 111.023 43.924 112.6 41.201 Q 114.8 37.401 117.7 37.401 A 3.821 3.821 0 0 1 119.793 37.995 A 4.644 4.644 0 0 1 120.9 39.001 A 1.611 1.611 0 0 0 121.12 39.241 A 1.134 1.134 0 0 0 121.6 39.501 A 4.231 4.231 0 0 0 121.773 39.54 Q 121.914 39.569 122.04 39.584 A 2.204 2.204 0 0 0 122.3 39.601 A 2.756 2.756 0 0 0 122.441 39.597 Q 123.705 39.532 124.945 38.306 A 9.276 9.276 0 0 0 125.85 37.251 A 10.214 10.214 0 0 0 126.212 36.732 A 8.148 8.148 0 0 0 127.6 32.201 A 6.378 6.378 0 0 0 127.442 30.73 A 3.871 3.871 0 0 0 125.8 28.301 Q 124.717 27.579 123.309 27.291 A 10.036 10.036 0 0 0 121.3 27.101 Q 117.3 27.101 114.65 29.451 A 14.009 14.009 0 0 0 114.534 29.555 Q 113.112 30.844 111.938 32.616 A 22.391 22.391 0 0 0 110.2 35.801 Q 110.2 33.663 109.773 31.984 A 9.232 9.232 0 0 0 108.85 29.651 Q 107.88 27.961 105.851 27.486 A 7.683 7.683 0 0 0 104.1 27.301 A 10.216 10.216 0 0 0 103.224 27.337 A 8.253 8.253 0 0 0 99.5 28.551 A 11.61 11.61 0 0 0 98.232 29.463 A 9.03 9.03 0 0 0 96.4 31.501 Q 95.777 32.463 95.507 33.33 A 4.266 4.266 0 0 0 95.3 34.601 A 2.438 2.438 0 0 0 95.349 35.1 A 1.634 1.634 0 0 0 95.85 36.001 Q 96.4 36.501 97.1 36.801 Q 98.7 37.301 99.8 38.251 A 3.16 3.16 0 0 1 100.009 38.448 Q 100.666 39.129 101.149 40.391 A 12.483 12.483 0 0 1 101.55 41.651 Q 102.2 44.101 102.2 49.401 A 46.511 46.511 0 0 1 102.141 51.734 A 53.596 53.596 0 0 1 101.45 57.951 Q 100.7 62.401 99.6 66.701 A 2.987 2.987 0 0 0 99.549 66.984 Q 99.407 68.062 100.25 68.551 A 3.43 3.43 0 0 0 100.869 68.828 Q 101.29 68.97 101.799 69.038 Z M 62.304 68.795 A 20.614 20.614 0 0 0 67 69.301 Q 73.6 69.301 78.55 66.101 Q 83.5 62.901 86.3 57.451 A 24.524 24.524 0 0 0 88.006 53.187 A 27.685 27.685 0 0 0 89.1 45.301 A 30.153 30.153 0 0 0 89.089 44.47 Q 88.868 36.466 84.35 31.901 A 14.683 14.683 0 0 0 82.677 30.447 Q 80.011 28.463 76.401 27.655 A 24.734 24.734 0 0 0 71 27.101 Q 64.7 27.101 60.2 29.251 A 64.629 64.629 0 0 0 59.35 29.664 Q 56.822 30.918 55.136 32.049 A 16.438 16.438 0 0 0 53.6 33.201 Q 52.7 33.901 51.75 35.251 Q 51.123 36.142 50.91 37.447 A 9.033 9.033 0 0 0 50.8 38.901 A 7.675 7.675 0 0 0 50.84 39.677 A 8.699 8.699 0 0 0 51.25 41.551 A 2.753 2.753 0 0 0 51.507 42.117 Q 51.986 42.901 52.9 42.901 A 1.296 1.296 0 0 0 52.914 42.9 Q 53.525 42.894 54.594 42.314 A 13.286 13.286 0 0 0 55.3 41.901 Q 53.7 44.701 52.75 47.901 Q 51.8 51.101 51.8 54.501 A 24.3 24.3 0 0 0 51.824 55.592 Q 51.929 57.912 52.485 59.846 A 11.954 11.954 0 0 0 55.95 65.551 A 14.067 14.067 0 0 0 62.304 68.795 Z M 206.904 68.795 A 20.614 20.614 0 0 0 211.6 69.301 Q 218.2 69.301 223.15 66.101 Q 228.1 62.901 230.9 57.451 A 24.524 24.524 0 0 0 232.606 53.187 A 27.685 27.685 0 0 0 233.7 45.301 A 30.153 30.153 0 0 0 233.689 44.47 Q 233.468 36.466 228.95 31.901 A 14.683 14.683 0 0 0 227.277 30.447 Q 224.611 28.463 221.001 27.655 A 24.734 24.734 0 0 0 215.6 27.101 Q 209.3 27.101 204.8 29.251 A 64.629 64.629 0 0 0 203.95 29.664 Q 201.422 30.918 199.736 32.049 A 16.438 16.438 0 0 0 198.2 33.201 Q 197.3 33.901 196.35 35.251 Q 195.723 36.142 195.51 37.447 A 9.033 9.033 0 0 0 195.4 38.901 A 7.675 7.675 0 0 0 195.44 39.677 A 8.699 8.699 0 0 0 195.85 41.551 A 2.753 2.753 0 0 0 196.107 42.117 Q 196.586 42.901 197.5 42.901 A 1.296 1.296 0 0 0 197.514 42.9 Q 198.125 42.894 199.194 42.314 A 13.286 13.286 0 0 0 199.9 41.901 Q 198.3 44.701 197.35 47.901 Q 196.4 51.101 196.4 54.501 A 24.3 24.3 0 0 0 196.424 55.592 Q 196.529 57.912 197.085 59.846 A 11.954 11.954 0 0 0 200.55 65.551 A 14.067 14.067 0 0 0 206.904 68.795 Z M 300.104 68.795 A 20.614 20.614 0 0 0 304.8 69.301 Q 311.4 69.301 316.35 66.101 Q 321.3 62.901 324.1 57.451 A 24.524 24.524 0 0 0 325.806 53.187 A 27.685 27.685 0 0 0 326.9 45.301 A 30.153 30.153 0 0 0 326.889 44.47 Q 326.668 36.466 322.15 31.901 A 14.683 14.683 0 0 0 320.477 30.447 Q 317.811 28.463 314.201 27.655 A 24.734 24.734 0 0 0 308.8 27.101 Q 302.5 27.101 298 29.251 A 64.629 64.629 0 0 0 297.15 29.664 Q 294.622 30.918 292.936 32.049 A 16.438 16.438 0 0 0 291.4 33.201 Q 290.5 33.901 289.55 35.251 Q 288.923 36.142 288.71 37.447 A 9.033 9.033 0 0 0 288.6 38.901 A 7.675 7.675 0 0 0 288.64 39.677 A 8.699 8.699 0 0 0 289.05 41.551 A 2.753 2.753 0 0 0 289.307 42.117 Q 289.786 42.901 290.7 42.901 A 1.296 1.296 0 0 0 290.714 42.9 Q 291.325 42.894 292.394 42.314 A 13.286 13.286 0 0 0 293.1 41.901 Q 291.5 44.701 290.55 47.901 Q 289.6 51.101 289.6 54.501 A 24.3 24.3 0 0 0 289.624 55.592 Q 289.729 57.912 290.285 59.846 A 11.954 11.954 0 0 0 293.75 65.551 A 14.067 14.067 0 0 0 300.104 68.795 Z M 268 67.351 A 5.305 5.305 0 0 0 268.515 67.79 Q 270.131 69.001 272.7 69.001 A 14.091 14.091 0 0 0 273.732 68.964 Q 274.829 68.883 275.755 68.625 A 6.904 6.904 0 0 0 277.95 67.601 A 12.253 12.253 0 0 0 278.178 67.433 Q 278.956 66.847 279.537 66.21 A 6.902 6.902 0 0 0 280.7 64.501 A 16.444 16.444 0 0 0 281.039 63.734 Q 281.339 63.002 281.444 62.489 A 2.472 2.472 0 0 0 281.5 62.001 A 2.125 2.125 0 0 0 281.497 61.881 Q 281.465 61.311 281.122 60.914 A 1.897 1.897 0 0 0 280.6 60.501 A 18.579 18.579 0 0 1 279.67 60.003 Q 278.936 59.583 278.34 59.141 A 8.99 8.99 0 0 1 277.2 58.151 A 3.716 3.716 0 0 1 276.524 57.158 Q 276 56.052 276 54.401 Q 276 53.001 276.2 51.401 Q 276.4 49.801 276.8 47.901 Q 277.3 45.301 277.8 42.251 Q 278.3 39.201 278.3 36.001 Q 278.3 33.901 277.9 31.901 Q 277.5 29.901 276.35 28.601 A 3.355 3.355 0 0 0 275.332 27.825 Q 274.77 27.543 274.049 27.412 A 7.59 7.59 0 0 0 272.7 27.301 A 9.046 9.046 0 0 0 271.63 27.364 A 9.507 9.507 0 0 0 268.25 28.451 A 13.16 13.16 0 0 0 266.7 29.418 A 10.085 10.085 0 0 0 264.8 31.201 A 8.183 8.183 0 0 0 264.274 31.921 Q 263.939 32.44 263.749 32.937 A 3.527 3.527 0 0 0 263.5 34.201 A 3.029 3.029 0 0 0 263.5 34.22 Q 263.508 35.407 264.45 36.151 Q 265.4 36.901 266.7 37.601 Q 268.4 38.401 268.9 40.051 Q 269.4 41.701 269.4 43.501 A 28.635 28.635 0 0 1 269.365 44.939 A 24.4 24.4 0 0 1 268.95 48.401 Q 268.5 50.701 267.8 52.901 Q 267.2 55.001 266.75 57.201 Q 266.3 59.401 266.3 61.701 Q 266.3 64.138 266.931 65.703 A 4.716 4.716 0 0 0 268 67.351 Z M 70.1 59.101 A 13.136 13.136 0 0 0 74.647 58.337 A 11.723 11.723 0 0 0 78.55 55.951 A 10.427 10.427 0 0 0 81.932 49.022 A 14.464 14.464 0 0 0 82 47.601 Q 82 43.781 80.25 41.513 A 7.148 7.148 0 0 0 78.5 39.901 A 14.039 14.039 0 0 0 71.811 37.657 A 17.435 17.435 0 0 0 70.4 37.601 Q 68.3 37.601 66.6 38.001 A 22.949 22.949 0 0 0 63.97 38.783 A 20.479 20.479 0 0 0 63.4 39.001 A 24.924 24.924 0 0 0 61.617 41.987 A 29.607 29.607 0 0 0 60.9 43.501 A 13.128 13.128 0 0 0 59.839 47.893 A 15.641 15.641 0 0 0 59.8 49.001 Q 59.8 54.001 62.8 56.551 Q 65.8 59.101 70.1 59.101 Z M 214.7 59.101 A 13.136 13.136 0 0 0 219.247 58.337 A 11.723 11.723 0 0 0 223.15 55.951 A 10.427 10.427 0 0 0 226.532 49.022 A 14.464 14.464 0 0 0 226.6 47.601 Q 226.6 43.781 224.85 41.513 A 7.148 7.148 0 0 0 223.1 39.901 A 14.039 14.039 0 0 0 216.411 37.657 A 17.435 17.435 0 0 0 215 37.601 Q 212.9 37.601 211.2 38.001 A 22.949 22.949 0 0 0 208.57 38.783 A 20.479 20.479 0 0 0 208 39.001 A 24.924 24.924 0 0 0 206.217 41.987 A 29.607 29.607 0 0 0 205.5 43.501 A 13.128 13.128 0 0 0 204.439 47.893 A 15.641 15.641 0 0 0 204.4 49.001 Q 204.4 54.001 207.4 56.551 Q 210.4 59.101 214.7 59.101 Z M 307.9 59.101 A 13.136 13.136 0 0 0 312.447 58.337 A 11.723 11.723 0 0 0 316.35 55.951 A 10.427 10.427 0 0 0 319.732 49.022 A 14.464 14.464 0 0 0 319.8 47.601 Q 319.8 43.781 318.05 41.513 A 7.148 7.148 0 0 0 316.3 39.901 A 14.039 14.039 0 0 0 309.611 37.657 A 17.435 17.435 0 0 0 308.2 37.601 Q 306.1 37.601 304.4 38.001 A 22.949 22.949 0 0 0 301.77 38.783 A 20.479 20.479 0 0 0 301.2 39.001 A 24.924 24.924 0 0 0 299.417 41.987 A 29.607 29.607 0 0 0 298.7 43.501 A 13.128 13.128 0 0 0 297.639 47.893 A 15.641 15.641 0 0 0 297.6 49.001 Q 297.6 54.001 300.6 56.551 Q 303.6 59.101 307.9 59.101 Z M 272.6 18.301 Q 269.8 18.201 268.1 16.601 A 5.219 5.219 0 0 1 266.601 13.941 A 7.936 7.936 0 0 1 266.4 12.101 A 8.133 8.133 0 0 1 266.844 9.628 A 6.68 6.68 0 0 1 268.5 7.051 Q 270.403 5.196 273.3 5.196 A 9.299 9.299 0 0 1 273.6 5.201 Q 276.5 5.301 278.15 6.901 A 4.968 4.968 0 0 1 279.538 9.449 Q 279.706 10.199 279.706 11.073 A 9.494 9.494 0 0 1 279.7 11.401 A 8.091 8.091 0 0 1 279.24 13.904 A 6.787 6.787 0 0 1 277.7 16.351 A 6.33 6.33 0 0 1 274.141 18.175 A 9.061 9.061 0 0 1 272.6 18.301 Z" stroke-dasharray='120' stroke-dashoffset='120' vector-effect="non-scaling-stroke"/></g></svg>