<svg version="1.0" xmlns="http://www.w3.org/2000/svg" width="1440" height="1440" viewBox="0 0 1080 1080"><path d="M414 378.6c-7.3 3.2-11 8.7-11.9 17.8l-.6 5.9-91.8 54.3-91.8 54.4-2.7-3.1c-7.2-8.6-22.3-9-29.9-.8-6.9 7.5-6.9 20.3 0 27.8 3.2 3.4 9.5 6.1 14.7 6.1 11.9 0 20.6-9.5 19.8-21.7l-.3-5.4 91.9-54.4 92-54.4 1.6 2.7c6.2 9.9 21.6 12.3 30.2 4.6 1.6-1.5 2.4-.6 11.7 13.7 5.5 8.5 44.4 68.5 86.4 133.3l76.5 117.9-1.4 3.3c-4 9.6.6 21.1 10.1 25.5 12.4 5.7 26-1.6 28.3-15.3l.7-4 108.6-45.7 108.7-45.7 2.7 3.4c6.9 8.6 21.1 9.5 29.4 1.9 7.9-7.2 7.9-22.2 0-29.4-5.8-5.3-15.2-6.7-22.4-3.4-7.6 3.5-11.8 10.7-11.4 19.4l.3 5-107.8 45.3C696.4 662.6 647.5 683 647 683c-.4 0-1.1-1.1-1.4-2.4-.9-3.7-5.6-8.7-10.1-10.7-6.9-3.2-16.5-1.9-21.7 2.8-1 .9-2 1.4-2.2 1.2-.2-.2-39.1-60.1-86.4-133.2L439.1 408l1.5-3.5c2.9-7.1.8-17.1-4.7-22.2-5.6-5.1-15-6.7-21.9-3.7z"/></svg>